<svg width="127" height="120" viewBox="0 0 127 120" fill="none" xmlns="http://www.w3.org/2000/svg">
<path d="M64.3651 120C98.7604 120 126.643 118.271 126.643 116.139C126.643 114.007 98.7604 112.278 64.3651 112.278C29.9698 112.278 2.08691 114.007 2.08691 116.139C2.08691 118.271 29.9698 120 64.3651 120Z" fill="#181F1A"/>
<path opacity="0.7" d="M64.3651 120C98.7604 120 126.643 118.271 126.643 116.139C126.643 114.007 98.7604 112.278 64.3651 112.278C29.9698 112.278 2.08691 114.007 2.08691 116.139C2.08691 118.271 29.9698 120 64.3651 120Z" fill="#1E1C1C"/>
<path d="M86.748 9.03979L86.8213 9.72144C86.832 9.82327 86.9034 9.90863 87.002 9.93628C87.4823 10.0708 87.9462 10.2593 88.3838 10.4988C88.4749 10.5486 88.5871 10.537 88.666 10.4695L89.1797 10.03L90.0947 10.698L89.8184 11.3201C89.7766 11.414 89.797 11.5242 89.8691 11.5974C90.2216 11.9535 90.5317 12.3496 90.793 12.7771C90.8469 12.8654 90.95 12.911 91.0518 12.8923L91.7178 12.7693L92.165 13.8132L91.6104 14.2175C91.5269 14.2782 91.4893 14.3834 91.5156 14.4832C91.6436 14.9669 91.7127 15.4644 91.7227 15.9646C91.7247 16.0684 91.7909 16.1601 91.8887 16.1951L92.5264 16.4236L92.3916 17.5476L91.7109 17.6199C91.634 17.628 91.5666 17.6712 91.5264 17.7341L91.4961 17.8035C91.3653 18.286 91.1758 18.7509 90.9336 19.1882C90.8832 19.2794 90.8953 19.3922 90.9629 19.4714L91.4004 19.9841L90.7227 20.8914L90.0957 20.6111C90.0253 20.5798 89.946 20.5839 89.8799 20.6179L89.8184 20.6619C89.4622 21.0132 89.067 21.3226 88.6396 21.5828C88.5513 21.6365 88.505 21.7389 88.5234 21.8406L88.6426 22.5076L87.5947 22.9578L87.1914 22.408C87.1459 22.346 87.0752 22.3097 87.001 22.3064L86.9268 22.3142C86.441 22.4407 85.9422 22.5107 85.4404 22.5222C85.3629 22.524 85.2923 22.5612 85.2471 22.6208L85.2109 22.6882L84.9814 23.3259L83.8604 23.1912L83.7891 22.5095C83.7808 22.4327 83.7377 22.3661 83.6748 22.3259L83.6064 22.2947L83.2471 22.1853C82.8912 22.0654 82.5461 21.9146 82.2168 21.7332C82.1485 21.6956 82.0683 21.6921 81.999 21.7214L81.9346 21.7615L81.4219 22.196L80.5137 21.5183L80.7939 20.8923C80.8359 20.7984 80.8162 20.6883 80.7441 20.615C80.3926 20.258 80.084 19.8608 79.8242 19.4324C79.7836 19.3654 79.7147 19.3222 79.6396 19.3132L79.5635 19.3162L78.8945 19.4412L78.4502 18.3972L79.0029 17.9978C79.0862 17.9374 79.1246 17.8318 79.0986 17.7322C78.9721 17.2465 78.9021 16.7476 78.8906 16.2458C78.8887 16.1682 78.8509 16.0976 78.791 16.0525L78.7246 16.0164L78.0879 15.7908L78.2207 14.6677L78.9082 14.5984C79.011 14.588 79.0967 14.5154 79.124 14.4158C79.2557 13.9321 79.4448 13.4653 79.6865 13.0261C79.7366 12.935 79.7248 12.822 79.6572 12.7429L79.2197 12.2302L79.8994 11.322L80.5244 11.6003C80.6179 11.6419 80.7276 11.6219 80.8008 11.5505C81.1565 11.2039 81.5511 10.8995 81.9766 10.6433C82.0658 10.5896 82.1127 10.4859 82.0938 10.3835L81.9697 9.71655L83.0137 9.27222L83.418 9.82593C83.4786 9.90893 83.5842 9.94669 83.6836 9.92065C84.168 9.79289 84.6662 9.72208 85.167 9.70972C85.2699 9.7071 85.3605 9.6415 85.3955 9.54468L85.624 8.90698L86.748 9.03979ZM86.5615 12.2527C85.7989 12.0037 84.9794 11.987 84.207 12.2039C83.4347 12.4208 82.7442 12.8619 82.2227 13.4714C81.7011 14.081 81.3721 14.832 81.2773 15.6287C81.1507 16.6946 81.4522 17.7669 82.1152 18.6111C82.7785 19.4554 83.7496 20.0023 84.8154 20.1316C85.6118 20.2281 86.419 20.0867 87.1348 19.7244C87.8504 19.362 88.4423 18.7954 88.8359 18.0964C89.2296 17.3973 89.407 16.5966 89.3457 15.7966C89.2843 14.9968 88.9867 14.2331 88.4912 13.6023C87.9956 12.9715 87.3241 12.5017 86.5615 12.2527Z" stroke="#872FA0" stroke-width="0.5" stroke-linejoin="round"/>
<path d="M46.2441 46.9711L46.3066 47.5698L46.3252 47.7407L46.4902 47.7856C46.9241 47.904 47.3426 48.0731 47.7363 48.2905L47.8877 48.3745L48.0195 48.2621L48.4727 47.8745L49.2871 48.4662L49.04 49.0151L48.9688 49.1723L49.0908 49.2944C49.4098 49.6144 49.6913 49.9704 49.9287 50.3549L50.0186 50.4995L50.1865 50.4692L50.7695 50.3618L51.1592 51.2709L50.6602 51.6264L50.5195 51.726L50.5635 51.893C50.6782 52.3306 50.741 52.7806 50.751 53.2328L50.7549 53.4057L50.917 53.4633L51.4756 53.6616L51.3594 54.643L50.7617 54.7084L50.5928 54.727L50.5469 54.8911C50.4274 55.3263 50.2566 55.7461 50.0381 56.1411L49.9551 56.2914L50.0664 56.4233L50.4521 56.8784L49.8623 57.6674L49.3115 57.4184L49.1553 57.3481L49.0332 57.4682C48.7107 57.7853 48.3522 58.0641 47.9658 58.2993L47.8203 58.3881L47.8496 58.5561L47.9551 59.1567L47.0449 59.5483L46.6914 59.0629L46.5908 58.9243L46.4258 58.9682C45.9885 59.0834 45.539 59.1462 45.0869 59.1557L44.9141 59.1596L44.8564 59.3217L44.6572 59.8832L43.6758 59.7651L43.6143 59.1674L43.5967 58.9965L43.4307 58.9516C42.9945 58.833 42.574 58.6629 42.1787 58.4438L42.0264 58.3588L41.8945 58.4721L41.4443 58.8569L40.6289 58.2582L40.8779 57.7094L40.9482 57.5532L40.8281 57.4311C40.5111 57.1087 40.2322 56.7509 39.9971 56.3647L39.9072 56.2162L39.7363 56.2485L39.1514 56.3598L38.7637 55.4526L39.2646 55.0981L39.4053 54.9975L39.3613 54.8305C39.2466 54.3929 39.1838 53.943 39.1738 53.4907L39.1699 53.3188L39.0078 53.2612L38.4473 53.062L38.5635 52.0825L39.1553 52.0287L39.3281 52.0131L39.374 51.8461C39.4942 51.4099 39.6647 50.9887 39.8828 50.5922L39.9658 50.4418L39.8545 50.31L39.4688 49.8569L40.0586 49.0659L40.6104 49.3159L40.7666 49.3862L40.8887 49.2661C41.2109 48.9489 41.5687 48.6698 41.9551 48.435L42.1016 48.3461L42.0713 48.1762L41.9639 47.5893L42.877 47.2006L43.2314 47.6772L43.332 47.812L43.4951 47.769C43.9327 47.654 44.3826 47.5913 44.835 47.5815L45.0078 47.5776L45.0654 47.4155L45.2637 46.853L46.2441 46.9711ZM46.1035 49.851C45.4086 49.6245 44.6617 49.6085 43.958 49.8061C43.2545 50.0038 42.6256 50.4062 42.1504 50.9614C41.6752 51.5165 41.3749 52.1997 41.2881 52.9252V52.9262C41.1727 53.8995 41.4486 54.8786 42.0547 55.6489C42.6608 56.4191 43.5474 56.9178 44.5205 57.0346H44.5215C45.2471 57.1209 45.9824 56.9899 46.6338 56.6586C47.2849 56.3273 47.8231 55.8104 48.1807 55.1733C48.5383 54.5359 48.6993 53.8063 48.6426 53.0776C48.5858 52.349 48.3141 51.6538 47.8623 51.0795C47.4104 50.5052 46.7983 50.0776 46.1035 49.851Z" fill="#781FBD" stroke="#872FA0" stroke-width="0.5"/>
<path d="M94.751 69.0667L95.1045 70.6311L95.1426 70.7981L95.3125 70.8235C96.3445 70.9761 97.3549 71.2504 98.3223 71.6409L98.4824 71.7053L98.5996 71.5793L99.6748 70.4202L102.041 71.7844L101.561 73.3235L101.509 73.4866L101.644 73.593C102.459 74.2428 103.196 74.9856 103.84 75.8059L103.946 75.9426L104.111 75.8899L105.633 75.4094L106.999 77.7844L105.819 78.8743L105.693 78.9905L105.756 79.1497C106.139 80.1204 106.406 81.1337 106.551 82.1672L106.575 82.3381L106.743 82.3762L108.291 82.7258V85.4475L106.738 85.7678L106.567 85.803L106.541 85.9758C106.386 87.008 106.11 88.0184 105.72 88.9866L105.655 89.1467L105.782 89.2639L106.947 90.343L105.583 92.7122L104.048 92.2375L103.884 92.1868L103.778 92.3206C103.129 93.1357 102.386 93.8722 101.565 94.5139L101.43 94.6194L101.48 94.7844L101.948 96.303L99.582 97.6672L98.4941 96.4866L98.3779 96.3606L98.2178 96.4231C97.2456 96.807 96.2319 97.0762 95.1973 97.2249L95.0264 97.2493L94.9883 97.4172L94.6377 98.9651H91.9102L91.5557 97.4006L91.5176 97.2346L91.3486 97.2092L90.9648 97.1448C90.0716 96.9834 89.197 96.7301 88.3555 96.3879L88.1943 96.3225L88.0762 96.4504L87 97.6301L84.6309 96.2659L85.1074 94.7278L85.1582 94.5637L85.0234 94.4583C84.2054 93.8129 83.4657 93.0732 82.8203 92.2551L82.7139 92.1204L82.5508 92.1711L81.0303 92.6389L79.667 90.2737L80.8486 89.1809L80.9736 89.0647L80.9111 88.9055C80.5298 87.9352 80.263 86.9231 80.1162 85.8909L80.0918 85.7209L79.9248 85.6829L78.376 85.3284V82.6028L79.9414 82.2463L80.1074 82.2083L80.1328 82.0393C80.2859 81.0083 80.5601 79.999 80.9502 79.0325L81.0146 78.8723L80.8887 78.7551L79.7256 77.6721L81.0869 75.3157L82.623 75.7913L82.7861 75.842L82.8926 75.7083C83.5425 74.8937 84.2852 74.1576 85.1055 73.5149L85.2412 73.4094L85.1904 73.2444L84.7207 71.7219L87.0811 70.3606L88.1699 71.5422L88.2871 71.6682L88.4463 71.6057C89.4165 71.2214 90.4293 70.9544 91.4629 70.8108L91.6338 70.7864L91.6719 70.6184L92.0264 69.0667H94.751ZM93.334 73.9807C91.3451 73.9807 89.4008 74.5711 87.7471 75.676C86.0934 76.7809 84.8041 78.3513 84.043 80.1887C83.2818 82.0262 83.0827 84.0486 83.4707 85.9993C83.8587 87.95 84.8162 89.7423 86.2227 91.1487C87.6291 92.5551 89.4213 93.5126 91.3721 93.9006C93.3228 94.2886 95.3451 94.0895 97.1826 93.3284C99.02 92.5672 100.59 91.2779 101.695 89.6243C102.8 87.9706 103.391 86.0262 103.391 84.0374C103.391 81.3703 102.33 78.8129 100.444 76.927C98.5584 75.0411 96.001 73.9808 93.334 73.9807Z" fill="white" stroke="#872FA0" stroke-width="0.5"/>
<path d="M54.0127 8.35181V9.70728H46.4658V8.35181H54.0127Z" fill="#763289" stroke="#872FA0" stroke-width="0.5"/>
<path d="M51.2539 11.0342V12.3897H46.4658V11.0342H51.2539Z" fill="#763289" stroke="#872FA0" stroke-width="0.5"/>
<path d="M49.0098 13.7164V15.0718H46.4658V13.7164H49.0098Z" fill="#763289" stroke="#872FA0" stroke-width="0.5"/>
<path opacity="0.2" d="M54.0127 8.35181V9.70728H46.4658V8.35181H54.0127Z" fill="black" stroke="#872FA0" stroke-width="0.5"/>
<path opacity="0.2" d="M51.2539 11.0342V12.3897H46.4658V11.0342H51.2539Z" fill="black" stroke="#872FA0" stroke-width="0.5"/>
<path opacity="0.2" d="M49.0098 13.7164V15.0718H46.4658V13.7164H49.0098Z" fill="black" stroke="#872FA0" stroke-width="0.5"/>
<path d="M34.7207 28.9073V33.9982H32.4922V28.9073H34.7207Z" fill="#763289" stroke="#872FA0" stroke-width="0.5"/>
<path d="M38.6631 30.8298V34.0017H36.4346V30.8298H38.6631Z" fill="#763289" stroke="#872FA0" stroke-width="0.5"/>
<path d="M42.6064 32.3864V34.0006H40.3779V32.3864H42.6064Z" fill="#763289" stroke="#872FA0" stroke-width="0.5"/>
<path opacity="0.2" d="M34.7207 28.9073V33.9982H32.4922V28.9073H34.7207Z" fill="black" stroke="#872FA0" stroke-width="0.5"/>
<path opacity="0.2" d="M38.6631 30.8298V34.0017H36.4346V30.8298H38.6631Z" fill="black" stroke="#872FA0" stroke-width="0.5"/>
<path opacity="0.2" d="M42.6064 32.3864V34.0006H40.3779V32.3864H42.6064Z" fill="black" stroke="#872FA0" stroke-width="0.5"/>
<mask id="path-18-inside-1_3973_14" fill="white">
<path d="M64.6729 38.4807H31.6316C31.1781 38.4815 30.7289 38.393 30.3096 38.22C29.8904 38.0471 29.5094 37.7932 29.1884 37.4728C28.8674 37.1524 28.6127 36.7719 28.439 36.353C28.2652 35.934 28.1758 35.485 28.1758 35.0315V7.75322C28.1775 6.83897 28.5415 5.96268 29.188 5.31621C29.8344 4.66973 30.7107 4.30577 31.625 4.30402H64.6663C65.1197 4.30358 65.5687 4.39245 65.9878 4.56556C66.4068 4.73866 66.7877 4.9926 67.1086 5.31289C67.4295 5.63318 67.6842 6.01354 67.8581 6.43225C68.032 6.85096 68.1217 7.29983 68.1221 7.75322V35.0315C68.1221 35.9463 67.7587 36.8236 67.1119 37.4704C66.465 38.1173 65.5877 38.4807 64.6729 38.4807ZM31.6316 4.61939C30.7975 4.62115 29.998 4.95328 29.4082 5.5431C28.8184 6.13291 28.4863 6.93237 28.4845 7.7665V35.0448C28.4863 35.8789 28.8184 36.6783 29.4082 37.2682C29.998 37.858 30.7975 38.1901 31.6316 38.1919H64.6729C65.5071 38.1901 66.3065 37.858 66.8963 37.2682C67.4862 36.6783 67.8183 35.8789 67.82 35.0448V7.75322C67.8183 6.91909 67.4862 6.11964 66.8963 5.52982C66.3065 4.94 65.5071 4.60787 64.6729 4.60611L31.6316 4.61939Z"/>
</mask>
<path d="M64.6729 38.4807H31.6316C31.1781 38.4815 30.7289 38.393 30.3096 38.22C29.8904 38.0471 29.5094 37.7932 29.1884 37.4728C28.8674 37.1524 28.6127 36.7719 28.439 36.353C28.2652 35.934 28.1758 35.485 28.1758 35.0315V7.75322C28.1775 6.83897 28.5415 5.96268 29.188 5.31621C29.8344 4.66973 30.7107 4.30577 31.625 4.30402H64.6663C65.1197 4.30358 65.5687 4.39245 65.9878 4.56556C66.4068 4.73866 66.7877 4.9926 67.1086 5.31289C67.4295 5.63318 67.6842 6.01354 67.8581 6.43225C68.032 6.85096 68.1217 7.29983 68.1221 7.75322V35.0315C68.1221 35.9463 67.7587 36.8236 67.1119 37.4704C66.465 38.1173 65.5877 38.4807 64.6729 38.4807ZM31.6316 4.61939C30.7975 4.62115 29.998 4.95328 29.4082 5.5431C28.8184 6.13291 28.4863 6.93237 28.4845 7.7665V35.0448C28.4863 35.8789 28.8184 36.6783 29.4082 37.2682C29.998 37.858 30.7975 38.1901 31.6316 38.1919H64.6729C65.5071 38.1901 66.3065 37.858 66.8963 37.2682C67.4862 36.6783 67.8183 35.8789 67.82 35.0448V7.75322C67.8183 6.91909 67.4862 6.11964 66.8963 5.52982C66.3065 4.94 65.5071 4.60787 64.6729 4.60611L31.6316 4.61939Z" fill="#541063"/>
<path d="M64.6729 38.4807V38.9807V38.4807ZM31.6316 38.4807V37.9807L31.6307 37.9807L31.6316 38.4807ZM28.439 36.353L27.9771 36.5445L28.439 36.353ZM28.1758 35.0315H28.6758H28.1758ZM28.1758 7.75322L27.6758 7.75226V7.75322H28.1758ZM31.625 4.30402V3.80402L31.624 3.80402L31.625 4.30402ZM64.6663 4.30402V4.80402L64.6668 4.80402L64.6663 4.30402ZM68.1221 7.75322H68.6221V7.75274L68.1221 7.75322ZM68.1221 35.0315H67.6221H68.1221ZM31.6316 4.61939L31.6314 4.11939L31.6306 4.1194L31.6316 4.61939ZM28.4845 7.7665L27.9845 7.76545V7.7665H28.4845ZM28.4845 35.0448H27.9845L27.9845 35.0458L28.4845 35.0448ZM31.6316 38.1919L31.6306 38.6919H31.6316V38.1919ZM64.6729 38.1919V38.6919H64.674L64.6729 38.1919ZM67.82 35.0448L68.32 35.0458V35.0448H67.82ZM67.82 7.75322H68.32V7.75217L67.82 7.75322ZM64.6729 4.60611L64.674 4.10611L64.6727 4.10611L64.6729 4.60611ZM64.6729 37.9807H31.6316V38.9807H64.6729V37.9807ZM31.6307 37.9807C31.2429 37.9814 30.8588 37.9057 30.5003 37.7578L30.119 38.6822C30.599 38.8803 31.1133 38.9817 31.6326 38.9807L31.6307 37.9807ZM30.5003 37.7578C30.1418 37.6099 29.8161 37.3928 29.5416 37.1189L28.8352 37.8267C29.2027 38.1935 29.6389 38.4842 30.119 38.6822L30.5003 37.7578ZM29.5416 37.1189C29.2671 36.8449 29.0494 36.5196 28.9008 36.1614L27.9771 36.5445C28.1761 37.0242 28.4676 37.4599 28.8352 37.8267L29.5416 37.1189ZM28.9008 36.1614C28.7523 35.8032 28.6758 35.4192 28.6758 35.0315L27.6758 35.0315C27.6758 35.5507 27.7782 36.0649 27.9771 36.5445L28.9008 36.1614ZM28.6758 35.0315V7.75322H27.6758V35.0315H28.6758ZM28.6758 7.75418C28.6773 6.97221 28.9886 6.2227 29.5415 5.66976L28.8344 4.96265C28.0944 5.70266 27.6778 6.70574 27.6758 7.75226L28.6758 7.75418ZM29.5415 5.66976C30.0945 5.11682 30.844 4.80552 31.6259 4.80402L31.624 3.80402C30.5775 3.80603 29.5744 4.22265 28.8344 4.96265L29.5415 5.66976ZM31.625 4.80402H64.6663V3.80402H31.625V4.80402ZM64.6668 4.80402C65.0545 4.80364 65.4385 4.87964 65.7969 5.02768L66.1787 4.10343C65.6989 3.90526 65.1849 3.80352 64.6658 3.80402L64.6668 4.80402ZM65.7969 5.02768C66.1552 5.17571 66.4809 5.39288 66.7554 5.66678L67.4618 4.959C67.0944 4.59232 66.6584 4.3016 66.1787 4.10343L65.7969 5.02768ZM66.7554 5.66678C67.0298 5.94068 67.2476 6.26596 67.3963 6.62403L68.3198 6.24046C68.1207 5.76112 67.8292 5.32567 67.4618 4.959L66.7554 5.66678ZM67.3963 6.62403C67.545 6.98211 67.6218 7.36597 67.6221 7.7537L68.6221 7.75274C68.6216 7.23369 68.5189 6.71982 68.3198 6.24046L67.3963 6.62403ZM67.6221 7.75322V35.0315H68.6221V7.75322H67.6221ZM67.6221 35.0315C67.6221 35.8137 67.3114 36.5638 66.7583 37.1169L67.4654 37.824C68.2061 37.0834 68.6221 36.0789 68.6221 35.0315H67.6221ZM66.7583 37.1169C66.2052 37.67 65.4551 37.9807 64.6729 37.9807V38.9807C65.7203 38.9807 66.7248 38.5646 67.4654 37.824L66.7583 37.1169ZM31.6306 4.1194C30.6642 4.12143 29.738 4.50622 29.0547 5.18954L29.7618 5.89665C30.2581 5.40034 30.9308 5.12087 31.6327 5.11939L31.6306 4.1194ZM29.0547 5.18954C28.3713 5.87287 27.9865 6.79908 27.9845 7.76545L28.9845 7.76755C28.986 7.06567 29.2655 6.39296 29.7618 5.89665L29.0547 5.18954ZM27.9845 7.7665V35.0448H28.9845V7.7665H27.9845ZM27.9845 35.0458C27.9865 36.0122 28.3713 36.9384 29.0547 37.6217L29.7618 36.9146C29.2655 36.4183 28.986 35.7456 28.9845 35.0437L27.9845 35.0458ZM29.0547 37.6217C29.738 38.305 30.6642 38.6898 31.6306 38.6919L31.6327 37.6919C30.9308 37.6904 30.2581 37.4109 29.7618 36.9146L29.0547 37.6217ZM31.6316 38.6919H64.6729V37.6919H31.6316V38.6919ZM64.674 38.6919C65.6404 38.6898 66.5666 38.305 67.2499 37.6217L66.5428 36.9146C66.0465 37.4109 65.3738 37.6904 64.6719 37.6919L64.674 38.6919ZM67.2499 37.6217C67.9332 36.9384 68.318 36.0122 68.32 35.0458L67.32 35.0437C67.3186 35.7456 67.0391 36.4183 66.5428 36.9146L67.2499 37.6217ZM68.32 35.0448V7.75322H67.32V35.0448H68.32ZM68.32 7.75217C68.318 6.7858 67.9332 5.85959 67.2499 5.17626L66.5428 5.88337C67.0391 6.37968 67.3186 7.05239 67.32 7.75427L68.32 7.75217ZM67.2499 5.17626C66.5666 4.49294 65.6404 4.10815 64.674 4.10612L64.6719 5.10611C65.3738 5.10759 66.0465 5.38707 66.5428 5.88337L67.2499 5.17626ZM64.6727 4.10611L31.6314 4.11939L31.6318 5.11939L64.6731 5.10611L64.6727 4.10611Z" fill="#872FA0" mask="url(#path-18-inside-1_3973_14)"/>
<mask id="path-20-inside-2_3973_14" fill="white">
<path d="M64.2495 28.8103H52.4678V29.1124H64.2495V28.8103Z"/>
</mask>
<path d="M64.2495 28.8103H52.4678V29.1124H64.2495V28.8103Z" fill="#541063"/>
<path d="M52.4678 28.8103V28.3103H51.9678V28.8103H52.4678ZM64.2495 28.8103H64.7495V28.3103H64.2495V28.8103ZM64.2495 29.1124V29.6124H64.7495V29.1124H64.2495ZM52.4678 29.1124H51.9678V29.6124H52.4678V29.1124ZM52.4678 29.3103H64.2495V28.3103H52.4678V29.3103ZM63.7495 28.8103V29.1124H64.7495V28.8103H63.7495ZM64.2495 28.6124H52.4678V29.6124H64.2495V28.6124ZM52.9678 29.1124V28.8103H51.9678V29.1124H52.9678Z" fill="#872FA0" mask="url(#path-20-inside-2_3973_14)"/>
<mask id="path-22-inside-3_3973_14" fill="white">
<path d="M64.2495 30.0753H52.4678V30.3774H64.2495V30.0753Z"/>
</mask>
<path d="M64.2495 30.0753H52.4678V30.3774H64.2495V30.0753Z" fill="#541063"/>
<path d="M52.4678 30.0753V29.5753H51.9678V30.0753H52.4678ZM64.2495 30.0753H64.7495V29.5753H64.2495V30.0753ZM64.2495 30.3774V30.8774H64.7495V30.3774H64.2495ZM52.4678 30.3774H51.9678V30.8774H52.4678V30.3774ZM52.4678 30.5753H64.2495V29.5753H52.4678V30.5753ZM63.7495 30.0753V30.3774H64.7495V30.0753H63.7495ZM64.2495 29.8774H52.4678V30.8774H64.2495V29.8774ZM52.9678 30.3774V30.0753H51.9678V30.3774H52.9678Z" fill="#872FA0" mask="url(#path-22-inside-3_3973_14)"/>
<mask id="path-24-inside-4_3973_14" fill="white">
<path d="M64.2495 31.3365H52.4678V31.6386H64.2495V31.3365Z"/>
</mask>
<path d="M64.2495 31.3365H52.4678V31.6386H64.2495V31.3365Z" fill="#541063"/>
<path d="M52.4678 31.3365V30.8365H51.9678V31.3365H52.4678ZM64.2495 31.3365H64.7495V30.8365H64.2495V31.3365ZM64.2495 31.6386V32.1386H64.7495V31.6386H64.2495ZM52.4678 31.6386H51.9678V32.1386H52.4678V31.6386ZM52.4678 31.8365H64.2495V30.8365H52.4678V31.8365ZM63.7495 31.3365V31.6386H64.7495V31.3365H63.7495ZM64.2495 31.1386H52.4678V32.1386H64.2495V31.1386ZM52.9678 31.6386V31.3365H51.9678V31.6386H52.9678Z" fill="#872FA0" mask="url(#path-24-inside-4_3973_14)"/>
<mask id="path-26-inside-5_3973_14" fill="white">
<path d="M64.2495 32.5984H52.4678V32.9005H64.2495V32.5984Z"/>
</mask>
<path d="M64.2495 32.5984H52.4678V32.9005H64.2495V32.5984Z" fill="#541063"/>
<path d="M52.4678 32.5984V32.0984H51.9678V32.5984H52.4678ZM64.2495 32.5984H64.7495V32.0984H64.2495V32.5984ZM64.2495 32.9005V33.4005H64.7495V32.9005H64.2495ZM52.4678 32.9005H51.9678V33.4005H52.4678V32.9005ZM52.4678 33.0984H64.2495V32.0984H52.4678V33.0984ZM63.7495 32.5984V32.9005H64.7495V32.5984H63.7495ZM64.2495 32.4005H52.4678V33.4005H64.2495V32.4005ZM52.9678 32.9005V32.5984H51.9678V32.9005H52.9678Z" fill="#872FA0" mask="url(#path-26-inside-5_3973_14)"/>
<mask id="path-28-inside-6_3973_14" fill="white">
<path d="M64.2495 33.8596H52.4678V34.1617H64.2495V33.8596Z"/>
</mask>
<path d="M64.2495 33.8596H52.4678V34.1617H64.2495V33.8596Z" fill="#541063"/>
<path d="M52.4678 33.8596V33.3596H51.9678V33.8596H52.4678ZM64.2495 33.8596H64.7495V33.3596H64.2495V33.8596ZM64.2495 34.1617V34.6617H64.7495V34.1617H64.2495ZM52.4678 34.1617H51.9678V34.6617H52.4678V34.1617ZM52.4678 34.3596H64.2495V33.3596H52.4678V34.3596ZM63.7495 33.8596V34.1617H64.7495V33.8596H63.7495ZM64.2495 33.6617H52.4678V34.6617H64.2495V33.6617ZM52.9678 34.1617V33.8596H51.9678V34.1617H52.9678Z" fill="#872FA0" mask="url(#path-28-inside-6_3973_14)"/>
<mask id="path-30-inside-7_3973_14" fill="white">
<path d="M43.6616 8.22809H31.8799V8.53019H43.6616V8.22809Z"/>
</mask>
<path d="M43.6616 8.22809H31.8799V8.53019H43.6616V8.22809Z" fill="#541063"/>
<path d="M31.8799 8.22809V7.72809H31.3799V8.22809H31.8799ZM43.6616 8.22809H44.1616V7.72809H43.6616V8.22809ZM43.6616 8.53019V9.03019H44.1616V8.53019H43.6616ZM31.8799 8.53019H31.3799V9.03019H31.8799V8.53019ZM31.8799 8.72809H43.6616V7.72809H31.8799V8.72809ZM43.1616 8.22809V8.53019H44.1616V8.22809H43.1616ZM43.6616 8.03019H31.8799V9.03019H43.6616V8.03019ZM32.3799 8.53019V8.22809H31.3799V8.53019H32.3799Z" fill="#872FA0" mask="url(#path-30-inside-7_3973_14)"/>
<mask id="path-32-inside-8_3973_14" fill="white">
<path d="M43.6616 9.48932H31.8799V9.79141H43.6616V9.48932Z"/>
</mask>
<path d="M43.6616 9.48932H31.8799V9.79141H43.6616V9.48932Z" fill="#541063"/>
<path d="M31.8799 9.48932V8.98932H31.3799V9.48932H31.8799ZM43.6616 9.48932H44.1616V8.98932H43.6616V9.48932ZM43.6616 9.79141V10.2914H44.1616V9.79141H43.6616ZM31.8799 9.79141H31.3799V10.2914H31.8799V9.79141ZM31.8799 9.98932H43.6616V8.98932H31.8799V9.98932ZM43.1616 9.48932V9.79141H44.1616V9.48932H43.1616ZM43.6616 9.29141H31.8799V10.2914H43.6616V9.29141ZM32.3799 9.79141V9.48932H31.3799V9.79141H32.3799Z" fill="#872FA0" mask="url(#path-32-inside-8_3973_14)"/>
<mask id="path-34-inside-9_3973_14" fill="white">
<path d="M43.6616 10.7511H31.8799V11.0532H43.6616V10.7511Z"/>
</mask>
<path d="M43.6616 10.7511H31.8799V11.0532H43.6616V10.7511Z" fill="#541063"/>
<path d="M31.8799 10.7511V10.2511H31.3799V10.7511H31.8799ZM43.6616 10.7511H44.1616V10.2511H43.6616V10.7511ZM43.6616 11.0532V11.5532H44.1616V11.0532H43.6616ZM31.8799 11.0532H31.3799V11.5532H31.8799V11.0532ZM31.8799 11.2511H43.6616V10.2511H31.8799V11.2511ZM43.1616 10.7511V11.0532H44.1616V10.7511H43.1616ZM43.6616 10.5532H31.8799V11.5532H43.6616V10.5532ZM32.3799 11.0532V10.7511H31.3799V11.0532H32.3799Z" fill="#872FA0" mask="url(#path-34-inside-9_3973_14)"/>
<mask id="path-36-inside-10_3973_14" fill="white">
<path d="M43.6616 12.0129H31.8799V12.315H43.6616V12.0129Z"/>
</mask>
<path d="M43.6616 12.0129H31.8799V12.315H43.6616V12.0129Z" fill="#541063"/>
<path d="M31.8799 12.0129V11.5129H31.3799V12.0129H31.8799ZM43.6616 12.0129H44.1616V11.5129H43.6616V12.0129ZM43.6616 12.315V12.815H44.1616V12.315H43.6616ZM31.8799 12.315H31.3799V12.815H31.8799V12.315ZM31.8799 12.5129H43.6616V11.5129H31.8799V12.5129ZM43.1616 12.0129V12.315H44.1616V12.0129H43.1616ZM43.6616 11.815H31.8799V12.815H43.6616V11.815ZM32.3799 12.315V12.0129H31.3799V12.315H32.3799Z" fill="#872FA0" mask="url(#path-36-inside-10_3973_14)"/>
<mask id="path-38-inside-11_3973_14" fill="white">
<path d="M43.6616 13.2742H31.8799V13.5763H43.6616V13.2742Z"/>
</mask>
<path d="M43.6616 13.2742H31.8799V13.5763H43.6616V13.2742Z" fill="#541063"/>
<path d="M31.8799 13.2742V12.7742H31.3799V13.2742H31.8799ZM43.6616 13.2742H44.1616V12.7742H43.6616V13.2742ZM43.6616 13.5763V14.0763H44.1616V13.5763H43.6616ZM31.8799 13.5763H31.3799V14.0763H31.8799V13.5763ZM31.8799 13.7742H43.6616V12.7742H31.8799V13.7742ZM43.1616 13.2742V13.5763H44.1616V13.2742H43.1616ZM43.6616 13.0763H31.8799V14.0763H43.6616V13.0763ZM32.3799 13.5763V13.2742H31.3799V13.5763H32.3799Z" fill="#872FA0" mask="url(#path-38-inside-11_3973_14)"/>
<path d="M63.7637 19.1052L62.0371 18.198L61.8154 18.0828L61.6992 18.3035L60.0996 21.3406L60.0283 21.4763L60.1162 21.6013C60.2263 21.7582 60.2898 21.9431 60.2998 22.1345V22.1375C60.3087 22.2744 60.2908 22.412 60.2461 22.5417C60.2013 22.6716 60.1306 22.7918 60.0391 22.8943C59.9477 22.9966 59.8367 23.0794 59.7129 23.1384C59.589 23.1975 59.4545 23.2314 59.3174 23.238C59.1802 23.2446 59.0422 23.2245 58.9131 23.1775C58.7842 23.1305 58.6662 23.0577 58.5654 22.9646C58.4645 22.8713 58.3831 22.7586 58.3262 22.6335C58.2693 22.5086 58.2376 22.3733 58.2334 22.2361L58.2285 22.0828L58.0889 22.0173L55.2334 20.6892L55.1055 20.6296L54.9883 20.7087C54.8177 20.8236 54.6168 20.8854 54.4111 20.8855C54.3541 20.8854 54.2972 20.8803 54.2412 20.8699L54.1055 20.8445L54.0117 20.946L50.2734 25.0164L50.1738 25.1248L50.2197 25.2634C50.2538 25.367 50.2728 25.4757 50.2744 25.5847V25.697C50.2664 25.8513 50.223 26.0021 50.1484 26.1375V26.1384C50.0158 26.383 49.7911 26.5651 49.5244 26.6443C49.2577 26.7234 48.9701 26.6929 48.7256 26.5603C48.4813 26.4277 48.2999 26.2037 48.2207 25.9373C48.1415 25.6705 48.1711 25.383 48.3037 25.1384L48.3818 24.9939L48.2803 24.865L43.0518 18.2253L42.9561 18.1042L42.8047 18.1355C42.7443 18.1479 42.6827 18.1535 42.6211 18.1531H42.6201C42.5216 18.153 42.4235 18.1372 42.3301 18.1062L42.1816 18.0564L42.0723 18.1687L36.0137 24.3865L35.9121 24.491L35.9521 24.6296C35.9634 24.669 35.9719 24.7093 35.9775 24.7498L35.9854 24.8728C35.9851 24.9949 35.9637 25.1161 35.9229 25.2312C35.8509 25.4204 35.7258 25.5845 35.5615 25.7029C35.396 25.8221 35.1989 25.8896 34.9951 25.8972C34.7912 25.9047 34.589 25.8526 34.415 25.7458C34.2412 25.6391 34.1032 25.4828 34.0176 25.2976C33.932 25.1123 33.9031 24.9055 33.9346 24.7039C33.9661 24.5023 34.0565 24.3142 34.1943 24.1638C34.3321 24.0137 34.5112 23.9079 34.709 23.8591C34.9071 23.8104 35.1157 23.8211 35.3076 23.8904L35.459 23.9451L35.5713 23.8298L41.5635 17.6882L41.668 17.5808L41.623 17.4373C41.6066 17.3854 41.5931 17.3326 41.584 17.2791L41.5684 17.1179C41.5689 16.9823 41.5975 16.8483 41.6523 16.7244C41.7699 16.4851 41.9752 16.3003 42.2256 16.2087C42.4762 16.1172 42.7528 16.1259 42.9971 16.2332C43.2413 16.3404 43.435 16.5375 43.5371 16.7839C43.6392 17.0304 43.6417 17.3068 43.5449 17.5554L43.4932 17.6892L43.582 17.8005L48.8398 24.4773L48.9365 24.5994L49.0889 24.5671C49.1338 24.5576 49.1796 24.5526 49.2256 24.5525C49.323 24.5531 49.4197 24.5682 49.5127 24.5974L49.665 24.6453L49.7725 24.5281L53.4238 20.5437L53.5342 20.4236L53.4678 20.2732C53.4069 20.1363 53.3745 19.9884 53.373 19.8386V19.8298L53.3721 19.821V19.7341L53.373 19.7302C53.39 19.4579 53.5134 19.2032 53.7168 19.0212C53.9202 18.8393 54.1874 18.7442 54.46 18.7576C54.7324 18.771 54.9883 18.8917 55.1729 19.0925C55.3575 19.2935 55.456 19.559 55.4463 19.8318V20.0173L55.5908 20.0837L58.3965 21.3826L58.5352 21.446L58.6553 21.3523C58.8322 21.2143 59.0501 21.1391 59.2744 21.1394H59.4258L59.4961 21.0056L61.0859 17.9822L61.2031 17.7605L60.9805 17.6443L59.2529 16.739L63.5576 14.0144L63.7637 19.1052Z" fill="#286B8C" stroke="#CD1BBE" stroke-width="0.5"/>
<path d="M85.3311 42.2461C85.7846 42.2461 86.22 42.4257 86.541 42.7461C86.8619 43.0665 87.0422 43.5016 87.043 43.9551V60.9648L87.0342 61.1338C86.9947 61.5249 86.8216 61.8926 86.541 62.1729C86.22 62.4933 85.7846 62.6738 85.3311 62.6738H64.749C64.2959 62.6738 63.8605 62.4933 63.54 62.1729C63.2199 61.8525 63.04 61.4178 63.04 60.9648V43.9648C63.04 43.5113 63.2196 43.0759 63.54 42.7549C63.8204 42.474 64.1887 42.3012 64.5801 42.2617L64.749 42.2529L85.3311 42.2461Z" stroke="#872FA0" stroke-width="0.5" stroke-linejoin="round"/>
<mask id="path-42-inside-12_3973_14" fill="white">
<path d="M65.9777 44.3196H64.4141V44.5287H65.9777V44.3196Z"/>
</mask>
<path d="M65.9777 44.3196H64.4141V44.5287H65.9777V44.3196Z" fill="#541063"/>
<path d="M64.4141 44.3196V43.8196H63.9141V44.3196H64.4141ZM65.9777 44.3196H66.4777V43.8196H65.9777V44.3196ZM65.9777 44.5287V45.0287H66.4777V44.5287H65.9777ZM64.4141 44.5287H63.9141V45.0287H64.4141V44.5287ZM64.4141 44.8196H65.9777V43.8196H64.4141V44.8196ZM65.4777 44.3196V44.5287H66.4777V44.3196H65.4777ZM65.9777 44.0287H64.4141V45.0287H65.9777V44.0287ZM64.9141 44.5287V44.3196H63.9141V44.5287H64.9141Z" fill="#872FA0" mask="url(#path-42-inside-12_3973_14)"/>
<mask id="path-44-inside-13_3973_14" fill="white">
<path d="M65.9777 46.0261H64.4141V46.2353H65.9777V46.0261Z"/>
</mask>
<path d="M65.9777 46.0261H64.4141V46.2353H65.9777V46.0261Z" fill="#541063"/>
<path d="M64.4141 46.0261V45.5261H63.9141V46.0261H64.4141ZM65.9777 46.0261H66.4777V45.5261H65.9777V46.0261ZM65.9777 46.2353V46.7353H66.4777V46.2353H65.9777ZM64.4141 46.2353H63.9141V46.7353H64.4141V46.2353ZM64.4141 46.5261H65.9777V45.5261H64.4141V46.5261ZM65.4777 46.0261V46.2353H66.4777V46.0261H65.4777ZM65.9777 45.7353H64.4141V46.7353H65.9777V45.7353ZM64.9141 46.2353V46.0261H63.9141V46.2353H64.9141Z" fill="#872FA0" mask="url(#path-44-inside-13_3973_14)"/>
<mask id="path-46-inside-14_3973_14" fill="white">
<path d="M65.9777 47.7327H64.4141V47.9418H65.9777V47.7327Z"/>
</mask>
<path d="M65.9777 47.7327H64.4141V47.9418H65.9777V47.7327Z" fill="#541063"/>
<path d="M64.4141 47.7327V47.2327H63.9141V47.7327H64.4141ZM65.9777 47.7327H66.4777V47.2327H65.9777V47.7327ZM65.9777 47.9418V48.4418H66.4777V47.9418H65.9777ZM64.4141 47.9418H63.9141V48.4418H64.4141V47.9418ZM64.4141 48.2327H65.9777V47.2327H64.4141V48.2327ZM65.4777 47.7327V47.9418H66.4777V47.7327H65.4777ZM65.9777 47.4418H64.4141V48.4418H65.9777V47.4418ZM64.9141 47.9418V47.7327H63.9141V47.9418H64.9141Z" fill="#872FA0" mask="url(#path-46-inside-14_3973_14)"/>
<mask id="path-48-inside-15_3973_14" fill="white">
<path d="M65.9777 49.4421H64.4141V49.6513H65.9777V49.4421Z"/>
</mask>
<path d="M65.9777 49.4421H64.4141V49.6513H65.9777V49.4421Z" fill="#541063"/>
<path d="M64.4141 49.4421V48.9421H63.9141V49.4421H64.4141ZM65.9777 49.4421H66.4777V48.9421H65.9777V49.4421ZM65.9777 49.6513V50.1513H66.4777V49.6513H65.9777ZM64.4141 49.6513H63.9141V50.1513H64.4141V49.6513ZM64.4141 49.9421H65.9777V48.9421H64.4141V49.9421ZM65.4777 49.4421V49.6513H66.4777V49.4421H65.4777ZM65.9777 49.1513H64.4141V50.1513H65.9777V49.1513ZM64.9141 49.6513V49.4421H63.9141V49.6513H64.9141Z" fill="#872FA0" mask="url(#path-48-inside-15_3973_14)"/>
<mask id="path-50-inside-16_3973_14" fill="white">
<path d="M65.9171 46.0261H64.3535V46.2353H65.9171V46.0261Z"/>
</mask>
<path d="M65.9171 46.0261H64.3535V46.2353H65.9171V46.0261Z" fill="#541063"/>
<path d="M64.3535 46.0261V45.5261H63.8535V46.0261H64.3535ZM65.9171 46.0261H66.4171V45.5261H65.9171V46.0261ZM65.9171 46.2353V46.7353H66.4171V46.2353H65.9171ZM64.3535 46.2353H63.8535V46.7353H64.3535V46.2353ZM64.3535 46.5261H65.9171V45.5261H64.3535V46.5261ZM65.4171 46.0261V46.2353H66.4171V46.0261H65.4171ZM65.9171 45.7353H64.3535V46.7353H65.9171V45.7353ZM64.8535 46.2353V46.0261H63.8535V46.2353H64.8535Z" fill="#872FA0" mask="url(#path-50-inside-16_3973_14)"/>
<mask id="path-52-inside-17_3973_14" fill="white">
<path d="M65.9777 51.1484H64.4141V51.3576H65.9777V51.1484Z"/>
</mask>
<path d="M65.9777 51.1484H64.4141V51.3576H65.9777V51.1484Z" fill="#541063"/>
<path d="M64.4141 51.1484V50.6484H63.9141V51.1484H64.4141ZM65.9777 51.1484H66.4777V50.6484H65.9777V51.1484ZM65.9777 51.3576V51.8576H66.4777V51.3576H65.9777ZM64.4141 51.3576H63.9141V51.8576H64.4141V51.3576ZM64.4141 51.6484H65.9777V50.6484H64.4141V51.6484ZM65.4777 51.1484V51.3576H66.4777V51.1484H65.4777ZM65.9777 50.8576H64.4141V51.8576H65.9777V50.8576ZM64.9141 51.3576V51.1484H63.9141V51.3576H64.9141Z" fill="#872FA0" mask="url(#path-52-inside-17_3973_14)"/>
<path d="M73.7402 46.1386C75.0756 45.6149 76.5363 45.4988 77.9375 45.8056C79.3388 46.1124 80.618 46.8283 81.6123 47.8622C82.6064 48.896 83.2715 50.2014 83.5234 51.6132C83.7754 53.0254 83.6028 54.4809 83.0273 55.7949C82.4519 57.1088 81.4997 58.2225 80.291 58.9951C79.0823 59.7676 77.6715 60.1643 76.2373 60.1347C74.3177 60.0959 72.492 59.2968 71.1611 57.913C69.9135 56.6157 69.1967 54.9038 69.1416 53.1132L69.1387 52.7538C69.165 51.3197 69.6166 49.9256 70.4355 48.748C71.2546 47.5704 72.4048 46.6624 73.7402 46.1386ZM76.5 47.3408C75.0255 47.311 73.599 47.8681 72.5352 48.8896C71.4716 49.911 70.8573 51.3128 70.8271 52.787C70.8047 53.8868 71.1088 54.9685 71.7012 55.8954C72.2935 56.8223 73.1469 57.5535 74.1543 57.9951C75.1618 58.4366 76.2783 58.5695 77.3613 58.3769C78.4442 58.1843 79.4459 57.6748 80.2393 56.913C81.0326 56.1512 81.5819 55.1708 81.8184 54.0966C82.0548 53.0223 81.9677 51.9015 81.5674 50.8769C81.1671 49.8524 80.4723 48.9693 79.5703 48.3398C78.6683 47.7103 77.5996 47.3631 76.5 47.3408Z" fill="#763289" stroke="#872FA0" stroke-width="0.5"/>
<path opacity="0.2" d="M73.7402 46.1386C75.0756 45.6149 76.5363 45.4988 77.9375 45.8056C79.3388 46.1124 80.618 46.8283 81.6123 47.8622C82.6064 48.896 83.2715 50.2014 83.5234 51.6132C83.7754 53.0254 83.6028 54.4809 83.0273 55.7949C82.4519 57.1088 81.4997 58.2225 80.291 58.9951C79.0823 59.7676 77.6715 60.1643 76.2373 60.1347C74.3177 60.0959 72.492 59.2968 71.1611 57.913C69.9135 56.6157 69.1967 54.9038 69.1416 53.1132L69.1387 52.7538C69.165 51.3197 69.6166 49.9256 70.4355 48.748C71.2546 47.5704 72.4048 46.6624 73.7402 46.1386ZM76.5 47.3408C75.0255 47.311 73.599 47.8681 72.5352 48.8896C71.4716 49.911 70.8573 51.3128 70.8271 52.787C70.8047 53.8868 71.1088 54.9685 71.7012 55.8954C72.2935 56.8223 73.1469 57.5535 74.1543 57.9951C75.1618 58.4366 76.2783 58.5695 77.3613 58.3769C78.4442 58.1843 79.4459 57.6748 80.2393 56.913C81.0326 56.1512 81.5819 55.1708 81.8184 54.0966C82.0548 53.0223 81.9677 51.9015 81.5674 50.8769C81.1671 49.8524 80.4723 48.9693 79.5703 48.3398C78.6683 47.7103 77.5996 47.3631 76.5 47.3408Z" fill="black" stroke="#872FA0" stroke-width="0.5"/>
<path d="M76.3936 47.4796C75.5676 47.4505 74.7455 47.6103 73.9912 47.9503C73.302 48.2609 72.6872 48.7131 72.1855 49.2755L71.9834 49.5157C71.9505 49.554 71.9019 49.607 71.8604 49.6651L71.8428 49.6905L71.8369 49.7042C71.0949 50.761 70.7493 52.0463 70.8604 53.3331C70.9717 54.6227 71.5353 55.8314 72.4512 56.7462C72.5295 56.8244 72.6175 56.9021 72.6885 56.9669L72.6943 56.9717C73.5357 57.6951 74.5789 58.14 75.6797 58.2471L75.9014 58.2637H76.5488C77.1838 58.2481 77.8122 58.1202 78.4033 57.8839C79.0476 57.6262 79.6333 57.2434 80.1318 56.7618L81.5518 58.1905C80.8783 58.8405 80.0885 59.3582 79.2217 59.713C78.324 60.0803 77.3625 60.2669 76.3926 60.2628C75.4226 60.2586 74.4628 60.0636 73.5684 59.6885C72.674 59.3135 71.8624 58.7659 71.1797 58.0772L71.1787 58.0762C70.1413 57.0349 69.4379 55.7079 69.1592 54.2647C68.8804 52.8213 69.039 51.3266 69.6143 49.9737C70.1895 48.621 71.1559 47.4706 72.3887 46.67C73.5929 45.888 74.9982 45.4753 76.4326 45.4796L76.3936 47.4796Z" fill="#541063" stroke="#872FA0" stroke-width="0.5"/>
<path d="M82.9893 49.1168C83.702 50.2904 84.0886 51.6458 84.0879 53.0416C84.0868 55.0445 83.2907 56.9655 81.874 58.3814C80.4574 59.7973 78.5361 60.5923 76.5332 60.5923C74.9485 60.5923 73.4165 60.0924 72.1436 59.1832C73.3445 59.9923 74.7603 60.45 76.2305 60.481L76.4863 60.4869V60.4781C77.9009 60.4597 79.2845 60.0472 80.4795 59.2838C81.746 58.4744 82.7442 57.3078 83.3477 55.9312C83.9512 54.5544 84.1333 53.0294 83.8701 51.5494C83.7172 50.6895 83.4172 49.8676 82.9893 49.1168Z" fill="#541063" stroke="#872FA0" stroke-width="0.5"/>
<path d="M37.6924 69.1785V89.316" stroke="#872FA0" stroke-width="0.5" stroke-linecap="round" stroke-linejoin="round"/>
<path d="M40.6807 77.0275V88.0568H39.4707V77.0275H40.6807Z" fill="#541063" stroke="#872FA0" stroke-width="0.5"/>
<path d="M43.124 81.7311V88.0533H41.9141V81.7311H43.124Z" fill="#763289" stroke="#872FA0" stroke-width="0.5"/>
<path d="M45.9951 73.2989V88.0567H44.7852V73.2989H45.9951Z" fill="white" stroke="#872FA0" stroke-width="0.5" stroke-linejoin="round"/>
<path d="M50.7637 71.0984V88.0535H49.5537V71.0984H50.7637Z" fill="#541063" stroke="#872FA0" stroke-width="0.5"/>
<path d="M53.208 84.238V88.0574H51.998V84.238H53.208Z" fill="#763289" stroke="#872FA0" stroke-width="0.5"/>
<path d="M56.0801 78.2486V88.0562H54.8701V78.2486H56.0801Z" fill="white" stroke="#872FA0" stroke-width="0.5" stroke-linejoin="round"/>
<path d="M63.0459 79.8259V88.0535H61.8359V79.8259H63.0459Z" fill="#541063" stroke="#872FA0" stroke-width="0.5"/>
<path d="M65.4902 73.054V88.054H64.2803V73.054H65.4902Z" fill="#763289" stroke="#872FA0" stroke-width="0.5"/>
<path d="M68.3652 76.4761V88.0533H67.1553V76.4761H68.3652Z" fill="white" stroke="#872FA0" stroke-width="0.5" stroke-linejoin="round"/>
<path d="M35.8574 85.6375H36.8135" stroke="#872FA0" stroke-width="0.5" stroke-linecap="round" stroke-linejoin="round"/>
<path d="M35.8574 83.151H36.8135" stroke="#872FA0" stroke-width="0.5" stroke-linecap="round" stroke-linejoin="round"/>
<path d="M35.8574 80.6681H36.8135" stroke="#872FA0" stroke-width="0.5" stroke-linecap="round" stroke-linejoin="round"/>
<path d="M35.8574 78.1814H36.8135" stroke="#872FA0" stroke-width="0.5" stroke-linecap="round" stroke-linejoin="round"/>
<path d="M35.8574 75.6949H36.8135" stroke="#872FA0" stroke-width="0.5" stroke-linecap="round" stroke-linejoin="round"/>
<path d="M35.8574 73.2086H36.8135" stroke="#872FA0" stroke-width="0.5" stroke-linecap="round" stroke-linejoin="round"/>
<path d="M35.8574 70.7218H36.8135" stroke="#872FA0" stroke-width="0.5" stroke-linecap="round" stroke-linejoin="round"/>
<path d="M36.5615 88.3064H69.812" stroke="#872FA0" stroke-width="0.5" stroke-linecap="round" stroke-linejoin="round"/>
<path opacity="0.3" d="M43.124 81.7311V88.0533H41.9141V81.7311H43.124Z" fill="black" stroke="#872FA0" stroke-width="0.5"/>
<path opacity="0.3" d="M53.208 84.238V88.0574H51.998V84.238H53.208Z" fill="black" stroke="#872FA0" stroke-width="0.5"/>
<path opacity="0.3" d="M65.4902 73.054V88.054H64.2803V73.054H65.4902Z" fill="black" stroke="#872FA0" stroke-width="0.5"/>
<path d="M71.1641 66.6233C71.6717 66.6241 72.1586 66.8259 72.5176 67.1848C72.8316 67.4988 73.0252 67.9108 73.0693 68.3489L73.0791 68.5383V88.3C73.0774 88.8071 72.8751 89.293 72.5166 89.6516C72.1578 90.0104 71.6714 90.2135 71.1641 90.2151H34.499C33.9919 90.2135 33.5058 90.0105 33.1475 89.6516C32.7893 89.2928 32.5878 88.807 32.5869 88.3V68.5452C32.5877 68.0384 32.7891 67.5519 33.1475 67.1936C33.5057 66.8354 33.9915 66.6339 34.498 66.6331L71.1641 66.6233Z" stroke="#872FA0" stroke-width="0.5" stroke-linejoin="round"/>
<path d="M5.48755 110.545C5.48755 110.545 6.25441 115.664 4.39868 116.189C2.54295 116.713 1.25489 116.023 1.02251 115.256C0.790131 114.489 2.4334 109.012 2.4334 109.012L5.48755 110.545Z" fill="white"/>
<path d="M37.7656 111.677L45.8325 113.59C45.8325 113.59 46.4434 113.922 46.377 114.469C46.3106 115.017 42.629 116.421 41.5966 116.597C40.5641 116.773 34.6052 117.55 33.7587 116.823C32.9121 116.096 34.7015 110.3 34.7015 110.3L37.7656 111.677Z" fill="white"/>
<path d="M23.1576 18.3166C23.1576 18.3166 24.2929 20.0295 24.3095 20.896C24.3261 21.7624 24.2199 22.7517 24.7511 23.263C25.2822 23.7742 25.6906 24.3319 25.4715 24.5909C25.2523 24.8498 24.8307 25.3544 24.8307 25.3544C24.8307 25.3544 25.3785 28.2724 24.6681 28.8003C23.9576 29.3281 21.8231 28.8003 21.8231 28.8003V30.6859C21.8231 30.6859 18.7888 29.69 16.6941 29.8759L16.3223 25.8358C16.3223 25.8358 20.8736 17.0849 23.1576 18.3166Z" fill="white"/>
<path d="M41.8233 30.2543C41.8233 30.2543 41.5511 28.1828 42.5603 26.9345C42.5603 26.9345 41.3519 26.7287 41.498 26.2905C41.6441 25.8523 43.4898 26.4266 43.4898 26.4266L42.9919 25.4307C42.9919 25.4307 41.249 24.8531 41.4648 24.3119C41.6806 23.7708 44.2368 25.102 44.2368 25.102C44.2368 25.102 42.7197 23.8339 42.9321 23.3061C43.1446 22.7782 44.6883 22.7882 45.5115 25.5237L45.9298 25.0025C45.9298 25.0025 46.0792 21.8885 46.5075 21.7192C46.5075 21.7192 47.1714 22.0844 47.1714 23.8737C47.1714 23.8737 47.8354 24.6738 47.4138 25.351C46.9921 26.0283 45.9995 27.552 45.1563 28.123C44.3131 28.694 44.3164 30.9215 44.3164 30.9215L41.8233 30.2543Z" fill="white"/>
<path d="M15.104 13.2273L15.4858 12.7161C15.4858 12.7161 19.7583 10.8106 19.652 10.2163C19.5458 9.62211 17.1257 10.4421 16.6643 10.1267C16.6643 10.1267 17.1058 4.50308 16.6643 4.3205C16.2228 4.13791 15.7314 6.95968 15.7314 6.95968C15.7314 6.95968 15.1106 4.06488 14.6326 4.14787C14.1546 4.23086 14.3538 7.13563 14.3538 7.13563C14.3538 7.13563 13.4408 5.27326 13.0856 5.44589C12.7304 5.61851 13.2616 7.88921 13.2616 7.88921C13.2616 7.88921 12.5976 7.10907 12.332 7.34477C12.4195 8.5177 12.7412 9.66119 13.2782 10.7077L12.3553 12.2679L15.104 13.2273Z" fill="white"/>
<path d="M41.3606 30.2674L44.3052 30.6791C44.3052 30.6791 42.1507 48.9376 41.5166 51.1917C40.8825 53.4458 40.3115 55.0659 38.1471 55.1754C35.9826 55.285 28.2709 48.8015 28.2709 48.8015L27.9123 57.7648L28.4136 61.4829C28.4136 61.4829 18.9823 66.4393 9.39154 62.1269L9.60732 57.7648L6.15148 37.8132L3.43262 28.3387L12.2067 11.7035L15.387 13.3634L9.77663 28.5047L11.3469 33.5606L13.103 32.8568L15.045 30.3803C15.045 30.3803 18.3382 28.6706 22.5045 31.0443L23.1684 33.1224C23.1684 33.1224 28.0551 33.4909 36.3046 44.9274L41.3606 30.2674Z" fill="#E2A3FF"/>
<path opacity="0.2" d="M20.3115 30.2675L20.6833 32.8237C20.6833 32.8237 23.4254 34.6429 24.5276 35.2736C24.5276 35.2736 27.2232 52.2972 25.228 55.6468L23.1267 58.9367C23.1267 58.9367 25.2745 58.9367 26.2638 57.4328C26.2638 57.4328 25.0322 61.5427 21.8386 62.6481C21.8386 62.6481 26.7418 62.1369 28.4283 61.4862L27.927 57.7681L28.7337 37.0364C28.7337 37.0364 29.4939 35.6487 23.1731 33.1623L22.2403 30.9214L20.3115 30.2675Z" fill="black"/>
<mask id="path-87-inside-18_3973_14" fill="white">
<path d="M23.1588 18.549C23.1588 18.549 24.1879 20.0562 24.3107 20.8961C24.4335 21.736 24.0684 22.6622 24.7522 23.263C25.4361 23.8639 25.7481 24.259 25.4726 24.5909C25.1971 24.9229 24.8319 25.3545 24.8319 25.3545C24.8319 25.3545 25.1108 28.1995 24.6692 28.8003C24.2277 29.4012 21.8242 28.8003 21.8242 28.8003V30.686"/>
</mask>
<path d="M23.5717 18.2671C23.416 18.039 23.1048 17.9804 22.8768 18.1361C22.6487 18.2918 22.5901 18.6029 22.7458 18.831L23.5717 18.2671ZM24.8319 25.3545L24.4502 25.0315C24.3629 25.1346 24.3211 25.2687 24.3343 25.4032L24.8319 25.3545ZM21.8242 28.8003L21.9455 28.3153C21.7961 28.2779 21.6379 28.3115 21.5165 28.4062C21.3952 28.501 21.3242 28.6464 21.3242 28.8003H21.8242ZM21.3242 30.686C21.3242 30.9621 21.5481 31.186 21.8242 31.186C22.1004 31.186 22.3242 30.9621 22.3242 30.686H21.3242ZM23.1588 18.549C22.7458 18.831 22.7458 18.8309 22.7458 18.8309C22.7458 18.8309 22.7458 18.8309 22.7458 18.8309C22.7458 18.8309 22.7458 18.8309 22.7458 18.8309C22.7458 18.831 22.746 18.8311 22.7461 18.8314C22.7465 18.8319 22.747 18.8328 22.7479 18.834C22.7495 18.8364 22.7521 18.8402 22.7555 18.8453C22.7624 18.8556 22.7729 18.8712 22.7863 18.8915C22.8133 18.9322 22.8524 18.9919 22.8998 19.0663C22.9949 19.2156 23.1226 19.4225 23.2535 19.6538C23.5296 20.1418 23.7698 20.653 23.816 20.9684L24.8054 20.8237C24.7287 20.2993 24.393 19.6369 24.1238 19.1613C23.9821 18.9109 23.8448 18.6885 23.7431 18.5289C23.6922 18.449 23.6499 18.3843 23.6201 18.3393C23.6052 18.3168 23.5934 18.2992 23.5851 18.287C23.581 18.2809 23.5778 18.2761 23.5755 18.2728C23.5744 18.2711 23.5735 18.2698 23.5729 18.2688C23.5725 18.2683 23.5723 18.268 23.5721 18.2677C23.572 18.2675 23.5719 18.2674 23.5718 18.2673C23.5718 18.2672 23.5718 18.2672 23.5717 18.2672C23.5717 18.2671 23.5717 18.2671 23.1588 18.549ZM23.816 20.9684C23.8401 21.1336 23.8416 21.3133 23.8356 21.5211C23.8299 21.7144 23.816 21.9575 23.8212 22.1808C23.832 22.6483 23.9255 23.2022 24.4222 23.6386L25.0822 22.8874C24.8951 22.723 24.8292 22.5134 24.8209 22.1576C24.8166 21.9692 24.8282 21.7858 24.8351 21.5504C24.8416 21.3295 24.8427 21.0785 24.8054 20.8237L23.816 20.9684ZM24.4222 23.6386C24.7671 23.9417 24.9593 24.1446 25.0433 24.2848C25.0815 24.3485 25.0728 24.3604 25.0725 24.3343C25.072 24.2943 25.0905 24.2684 25.0879 24.2716L25.8573 24.9103C25.9925 24.7475 26.0753 24.5477 26.0724 24.3215C26.0697 24.1092 25.992 23.9225 25.9011 23.7708C25.727 23.4803 25.4212 23.1852 25.0822 22.8874L24.4222 23.6386ZM25.0879 24.2716C24.9512 24.4363 24.7919 24.6261 24.6664 24.7752C24.6037 24.8497 24.5496 24.9138 24.5112 24.9593C24.492 24.982 24.4767 25.0001 24.4663 25.0125C24.461 25.0187 24.457 25.0234 24.4543 25.0267C24.4529 25.0283 24.4519 25.0295 24.4512 25.0303C24.4509 25.0307 24.4506 25.031 24.4505 25.0312C24.4504 25.0313 24.4503 25.0314 24.4503 25.0314C24.4502 25.0314 24.4502 25.0315 24.4502 25.0315C24.4502 25.0315 24.4502 25.0315 24.4502 25.0315C24.4502 25.0315 24.4502 25.0315 24.8319 25.3545C25.2136 25.6774 25.2136 25.6774 25.2136 25.6774C25.2136 25.6774 25.2136 25.6774 25.2136 25.6774C25.2136 25.6774 25.2136 25.6774 25.2137 25.6773C25.2137 25.6773 25.2138 25.6772 25.2139 25.6771C25.2141 25.6769 25.2143 25.6766 25.2147 25.6761C25.2154 25.6753 25.2164 25.6741 25.2178 25.6724C25.2206 25.6691 25.2247 25.6643 25.23 25.6581C25.2406 25.6455 25.256 25.6273 25.2753 25.6044C25.314 25.5586 25.3684 25.4941 25.4315 25.4192C25.5574 25.2695 25.7185 25.0776 25.8573 24.9103L25.0879 24.2716ZM24.8319 25.3545C24.3343 25.4032 24.3343 25.4032 24.3343 25.4032C24.3343 25.4032 24.3343 25.4032 24.3343 25.4032C24.3343 25.4032 24.3343 25.4033 24.3343 25.4034C24.3343 25.4036 24.3344 25.404 24.3344 25.4046C24.3345 25.4058 24.3347 25.4076 24.3349 25.41C24.3354 25.4149 24.3361 25.4225 24.337 25.4325C24.3389 25.4524 24.3416 25.4822 24.3448 25.5205C24.3514 25.5972 24.3604 25.7081 24.3698 25.8431C24.3886 26.1139 24.4092 26.4793 24.4162 26.8613C24.4233 27.2458 24.4165 27.6351 24.3835 27.9575C24.367 28.1189 24.3449 28.2528 24.3186 28.3558C24.2902 28.4669 24.2658 28.505 24.2663 28.5043L25.0721 29.0964C25.183 28.9455 25.2465 28.7632 25.2874 28.6037C25.3303 28.4361 25.3589 28.2492 25.3783 28.0593C25.4172 27.6793 25.4235 27.2447 25.416 26.8428C25.4086 26.4385 25.387 26.0551 25.3674 25.7736C25.3575 25.6326 25.3481 25.5164 25.3412 25.4352C25.3377 25.3946 25.3348 25.3627 25.3328 25.3407C25.3318 25.3297 25.331 25.3211 25.3304 25.3153C25.3302 25.3123 25.3299 25.31 25.3298 25.3084C25.3297 25.3076 25.3296 25.307 25.3296 25.3065C25.3296 25.3063 25.3296 25.3061 25.3295 25.306C25.3295 25.3059 25.3295 25.3058 25.3295 25.3058C25.3295 25.3057 25.3295 25.3057 24.8319 25.3545ZM24.2663 28.5043C24.2872 28.4758 24.2963 28.4851 24.2424 28.5055C24.1901 28.5254 24.1074 28.5447 23.9897 28.5562C23.7536 28.5794 23.452 28.5649 23.138 28.5289C22.8288 28.4935 22.5294 28.44 22.3057 28.3948C22.1944 28.3723 22.103 28.3521 22.04 28.3376C22.0085 28.3304 21.9842 28.3246 21.9681 28.3208C21.96 28.3188 21.954 28.3174 21.9502 28.3164C21.9483 28.316 21.947 28.3156 21.9462 28.3154C21.9458 28.3153 21.9455 28.3153 21.9454 28.3153C21.9453 28.3152 21.9453 28.3152 21.9453 28.3152C21.9453 28.3152 21.9454 28.3152 21.9454 28.3152C21.9454 28.3153 21.9455 28.3153 21.8242 28.8003C21.703 29.2854 21.703 29.2854 21.7031 29.2855C21.7032 29.2855 21.7032 29.2855 21.7033 29.2855C21.7035 29.2856 21.7037 29.2856 21.7039 29.2857C21.7044 29.2858 21.705 29.2859 21.7058 29.2861C21.7073 29.2865 21.7094 29.287 21.712 29.2877C21.7173 29.289 21.7249 29.2908 21.7345 29.2931C21.7538 29.2978 21.7816 29.3043 21.8167 29.3124C21.8868 29.3284 21.9867 29.3505 22.1076 29.3749C22.3483 29.4236 22.6775 29.4827 23.0243 29.5224C23.3663 29.5616 23.7484 29.5847 24.0872 29.5515C24.2568 29.5348 24.4343 29.5024 24.598 29.4402C24.7601 29.3785 24.9409 29.2751 25.0721 29.0964L24.2663 28.5043ZM21.3242 28.8003V30.686H22.3242V28.8003H21.3242Z" fill="#263238" mask="url(#path-87-inside-18_3973_14)"/>
<mask id="path-89-inside-19_3973_14" fill="white">
<path d="M21.8242 25.2284C21.8242 25.2284 20.8615 22.7419 20.1411 23.3428C19.4208 23.9437 20.0615 27.2302 21.8242 26.5098"/>
</mask>
<path d="M21.358 25.409C21.4577 25.6665 21.7473 25.7944 22.0048 25.6947C22.2623 25.595 22.3902 25.3054 22.2905 25.0479L21.358 25.409ZM22.0134 26.9727C22.269 26.8682 22.3915 26.5763 22.2871 26.3207C22.1826 26.0651 21.8907 25.9425 21.6351 26.047L22.0134 26.9727ZM21.8242 25.2284C22.2905 25.0479 22.2905 25.0478 22.2904 25.0477C22.2904 25.0477 22.2904 25.0476 22.2903 25.0475C22.2903 25.0473 22.2902 25.0471 22.2901 25.0468C22.2899 25.0463 22.2896 25.0457 22.2893 25.0449C22.2887 25.0433 22.2878 25.041 22.2867 25.0383C22.2846 25.0327 22.2815 25.0249 22.2775 25.0149C22.2695 24.995 22.258 24.9666 22.2433 24.9311C22.2138 24.8601 22.1712 24.7603 22.1179 24.6427C22.0121 24.4095 21.86 24.098 21.6806 23.8014C21.5083 23.5167 21.2817 23.1962 21.0145 22.9889C20.8783 22.8832 20.6957 22.7786 20.475 22.7543C20.2343 22.7278 20.0071 22.8035 19.8209 22.9589L20.4614 23.7268C20.4628 23.7256 20.4524 23.7344 20.43 23.7416C20.4069 23.7489 20.3838 23.7503 20.3656 23.7483C20.3354 23.745 20.3462 23.7361 20.4015 23.779C20.5175 23.8689 20.6666 24.0574 20.8251 24.3192C20.9763 24.5691 21.11 24.8417 21.2072 25.0559C21.2554 25.162 21.2937 25.2518 21.3197 25.3144C21.3326 25.3457 21.3425 25.3701 21.349 25.3864C21.3523 25.3945 21.3547 25.4005 21.3562 25.4044C21.3569 25.4063 21.3574 25.4076 21.3577 25.4084C21.3579 25.4088 21.358 25.409 21.358 25.4091C21.358 25.4092 21.3581 25.4092 21.358 25.4092C21.358 25.4091 21.358 25.4091 21.358 25.4091C21.358 25.409 21.358 25.409 21.8242 25.2284ZM19.8209 22.9589C19.6337 23.115 19.5242 23.3274 19.4593 23.5248C19.3929 23.7268 19.3607 23.9505 19.3526 24.1745C19.3366 24.6218 19.415 25.1299 19.5811 25.5912C19.7447 26.0458 20.014 26.5104 20.4218 26.8075C20.8598 27.1266 21.4135 27.2178 22.0134 26.9727L21.6351 26.047C21.3535 26.1621 21.1662 26.1126 21.0107 25.9993C20.8251 25.8641 20.6487 25.6045 20.5219 25.2524C20.3976 24.907 20.3407 24.5259 20.352 24.2104C20.3576 24.0531 20.3797 23.9271 20.4093 23.8371C20.4404 23.7425 20.4685 23.7209 20.4614 23.7268L19.8209 22.9589Z" fill="#263238" mask="url(#path-89-inside-19_3973_14)"/>
<path d="M21.5619 24.6503C21.5619 24.6503 22.7073 24.5574 21.9836 21.8717C21.2598 19.186 22.8268 19.5479 24.5099 18.7843C26.193 18.0208 26.5947 16.6199 26.2328 15.78C25.871 14.9401 25.2701 14.4952 23.1455 14.8969C23.1455 14.8969 20.8216 12.2113 18.5775 15.1791C18.5775 15.1791 13.5249 15.0994 12.1638 17.5029C10.8027 19.9064 12.6053 26.0413 15.2511 28.0862C17.897 30.1312 20.483 28.4946 21.0208 26.5724C21.0208 26.5724 19.2182 25.5998 20.1411 23.3556C20.1411 23.3423 20.981 23.0436 21.5619 24.6503Z" fill="#263238"/>
<path d="M13.3945 33.2168C17.7056 32.1281 23.2932 32.1254 28.5146 36.4141L27.6611 57.7412C27.6606 57.7557 27.6611 57.7708 27.6631 57.7852L28.1387 61.3154C28.0784 61.3413 28.0027 61.3748 27.9111 61.4121C27.6495 61.5188 27.263 61.6678 26.7676 61.8359C25.7766 62.1722 24.3502 62.5844 22.6133 62.8857C19.1786 63.4816 14.5388 63.6415 9.64844 61.9375L9.85547 57.7637C9.85637 57.7454 9.85564 57.727 9.85254 57.709L6.16016 36.4131C6.16266 36.4114 6.1654 36.41 6.16797 36.4082C6.25796 36.3469 6.39234 36.2575 6.56738 36.1465C6.91762 35.9245 7.43132 35.6163 8.08105 35.2734C9.38134 34.5873 11.2244 33.7649 13.3945 33.2168Z" stroke="#263238" stroke-width="0.5" stroke-linecap="round" stroke-linejoin="round"/>
<mask id="path-93-inside-20_3973_14" fill="white">
<path d="M12.9404 33.0759L15.0451 30.3935C15.0451 30.3935 19.1716 28.966 22.5046 31.0575L23.1685 33.1356"/>
</mask>
<path d="M12.5471 32.7672C12.3766 32.9845 12.4145 33.2988 12.6318 33.4692C12.849 33.6397 13.1633 33.6018 13.3338 33.3845L12.5471 32.7672ZM15.0451 30.3935L14.8817 29.921C14.7909 29.9524 14.7111 30.0093 14.6518 30.0849L15.0451 30.3935ZM22.5046 31.0575L22.9809 30.9053C22.9449 30.7928 22.8704 30.6967 22.7703 30.6339L22.5046 31.0575ZM22.6922 33.2878C22.7763 33.5508 23.0577 33.6959 23.3207 33.6119C23.5837 33.5279 23.7289 33.2465 23.6448 32.9834L22.6922 33.2878ZM13.3338 33.3845L15.4385 30.7022L14.6518 30.0849L12.5471 32.7672L13.3338 33.3845ZM15.0451 30.3935C15.2086 30.866 15.2085 30.8661 15.2083 30.8661C15.2083 30.8661 15.2082 30.8662 15.2081 30.8662C15.2081 30.8662 15.208 30.8662 15.2081 30.8662C15.2081 30.8662 15.2084 30.8661 15.209 30.8659C15.2101 30.8655 15.2122 30.8648 15.2152 30.8638C15.2213 30.8618 15.2313 30.8585 15.2449 30.8542C15.2721 30.8454 15.314 30.8324 15.3695 30.8161C15.4804 30.7836 15.6452 30.7386 15.8543 30.6904C16.273 30.5939 16.866 30.4857 17.5579 30.4401C18.9487 30.3485 20.6948 30.5121 22.2388 31.481L22.7703 30.6339C20.9814 29.5114 18.9978 29.3431 17.4921 29.4423C16.7358 29.4921 16.0888 29.6101 15.6297 29.7159C15.3998 29.7689 15.2162 29.819 15.0884 29.8564C15.0246 29.8751 14.9746 29.8907 14.9397 29.9018C14.9223 29.9074 14.9087 29.9119 14.8989 29.9152C14.8941 29.9168 14.8902 29.9181 14.8873 29.9191C14.8859 29.9196 14.8847 29.92 14.8837 29.9203C14.8833 29.9204 14.8829 29.9206 14.8825 29.9207C14.8823 29.9208 14.8821 29.9208 14.882 29.9209C14.8819 29.9209 14.8817 29.921 15.0451 30.3935ZM22.0283 31.2096L22.6922 33.2878L23.6448 32.9834L22.9809 30.9053L22.0283 31.2096Z" fill="#263238" mask="url(#path-93-inside-20_3973_14)"/>
<path d="M28.7725 36.2991L39.4188 48.5423" stroke="#263238" stroke-width="0.5" stroke-linecap="round" stroke-linejoin="round"/>
<mask id="path-96-inside-21_3973_14" fill="white">
<path d="M28.2812 48.5525C28.2812 48.5525 35.3357 55.1156 38.1475 55.1919C40.9593 55.2683 41.4274 51.8722 41.4274 51.8722L44.3056 30.6923L41.361 30.2806L36.2951 44.9638"/>
</mask>
<path d="M28.6218 48.1864C28.4196 47.9983 28.1033 48.0097 27.9152 48.2119C27.7271 48.4141 27.7385 48.7304 27.9407 48.9185L28.6218 48.1864ZM41.4274 51.8722L41.9227 51.9405L41.9228 51.9395L41.4274 51.8722ZM44.3056 30.6923L44.8011 30.7596C44.8381 30.4867 44.6476 30.2352 44.3748 30.1971L44.3056 30.6923ZM41.361 30.2806L41.4302 29.7855C41.1934 29.7524 40.9663 29.8915 40.8883 30.1176L41.361 30.2806ZM35.8224 44.8007C35.7324 45.0618 35.871 45.3464 36.132 45.4365C36.3931 45.5265 36.6777 45.3879 36.7677 45.1269L35.8224 44.8007ZM28.2812 48.5525C27.9407 48.9185 27.9407 48.9186 27.9408 48.9187C27.9409 48.9187 27.941 48.9188 27.9411 48.919C27.9414 48.9192 27.9418 48.9195 27.9422 48.92C27.9432 48.9209 27.9446 48.9221 27.9464 48.9238C27.9499 48.9271 27.9552 48.932 27.9621 48.9384C27.976 48.9512 27.9963 48.97 28.0229 48.9944C28.0761 49.0433 28.1542 49.1146 28.2543 49.2053C28.4545 49.3866 28.7433 49.6452 29.0984 49.9556C29.8082 50.576 30.7853 51.4051 31.8524 52.2378C32.9176 53.0689 34.0819 53.911 35.1648 54.5525C35.7063 54.8733 36.2359 55.149 36.7289 55.3483C37.2162 55.5453 37.6973 55.6799 38.1339 55.6917L38.1611 54.6921C37.8947 54.6849 37.5403 54.5977 37.1037 54.4212C36.6726 54.2469 36.1898 53.9974 35.6745 53.6921C34.6439 53.0816 33.5174 52.2685 32.4675 51.4494C31.4195 50.6316 30.4573 49.8152 29.7565 49.2027C29.4063 48.8966 29.122 48.6419 28.9254 48.464C28.8272 48.375 28.7509 48.3053 28.6994 48.2579C28.6736 48.2343 28.6541 48.2162 28.641 48.2042C28.6345 48.1981 28.6296 48.1936 28.6264 48.1906C28.6248 48.1891 28.6236 48.188 28.6228 48.1873C28.6225 48.187 28.6222 48.1867 28.622 48.1866C28.6219 48.1865 28.6219 48.1864 28.6218 48.1864C28.6218 48.1864 28.6218 48.1864 28.2812 48.5525ZM38.1339 55.6917C39.7931 55.7368 40.7576 54.7378 41.2785 53.8043C41.5378 53.3397 41.6974 52.8776 41.7922 52.535C41.8399 52.3627 41.872 52.218 41.8923 52.1147C41.9025 52.063 41.9098 52.0215 41.9147 51.992C41.9172 51.9772 41.919 51.9653 41.9203 51.9567C41.921 51.9524 41.9215 51.9488 41.9219 51.9461C41.9221 51.9448 41.9223 51.9436 41.9224 51.9427C41.9225 51.9422 41.9225 51.9418 41.9226 51.9414C41.9226 51.9412 41.9226 51.941 41.9227 51.9409C41.9227 51.9407 41.9227 51.9405 41.4274 51.8722C40.9321 51.8039 40.9321 51.8037 40.9321 51.8036C40.9321 51.8035 40.9322 51.8034 40.9322 51.8033C40.9322 51.8031 40.9322 51.803 40.9322 51.8029C40.9322 51.8028 40.9322 51.8029 40.9322 51.8032C40.9321 51.8037 40.9319 51.8051 40.9316 51.8072C40.931 51.8113 40.9298 51.8186 40.9282 51.8286C40.9248 51.8488 40.9193 51.8802 40.9112 51.9212C40.895 52.0033 40.8686 52.1233 40.8285 52.2682C40.7477 52.56 40.6144 52.9422 40.4053 53.317C39.9892 54.0625 39.3137 54.7234 38.1611 54.6921L38.1339 55.6917ZM41.9228 51.9395L44.8011 30.7596L43.8102 30.625L40.932 51.8049L41.9228 51.9395ZM44.3748 30.1971L41.4302 29.7855L41.2918 30.7758L44.2364 31.1875L44.3748 30.1971ZM40.8883 30.1176L35.8224 44.8007L36.7677 45.1269L41.8337 30.4437L40.8883 30.1176Z" fill="#263238" mask="url(#path-96-inside-21_3973_14)"/>
<mask id="path-98-inside-22_3973_14" fill="white">
<path d="M44.2539 30.6261C44.2539 30.6261 44.6223 28.2326 45.5818 27.6882C46.5412 27.1437 47.6798 25.0324 47.3147 24.4249C46.9495 23.8174 45.8341 25.7926 44.8282 26.1711C43.8223 26.5495 43.0056 28.4086 42.8662 29.2152"/>
</mask>
<path d="M43.7597 30.5501C43.7177 30.823 43.9049 31.0783 44.1778 31.1203C44.4507 31.1623 44.706 30.9751 44.748 30.7022L43.7597 30.5501ZM42.3735 29.1301C42.3265 29.4022 42.5089 29.6609 42.7811 29.7079C43.0532 29.755 43.3119 29.5725 43.3589 29.3004L42.3735 29.1301ZM44.2539 30.6261C44.748 30.7022 44.748 30.7023 44.748 30.7024C44.748 30.7024 44.748 30.7024 44.748 30.7025C44.748 30.7025 44.748 30.7025 44.748 30.7025C44.748 30.7024 44.748 30.7022 44.7481 30.7019C44.7482 30.7012 44.7484 30.7 44.7487 30.6982C44.7492 30.6946 44.7502 30.6888 44.7515 30.681C44.7541 30.6654 44.7581 30.6416 44.7637 30.6106C44.7748 30.5487 44.792 30.4583 44.8155 30.3477C44.8627 30.1255 44.9349 29.8261 45.0345 29.5129C45.1349 29.1974 45.2587 28.8823 45.4052 28.6222C45.5566 28.3533 45.7043 28.1935 45.8285 28.123L45.335 27.2533C44.9795 27.455 44.7213 27.7986 44.5338 28.1316C44.3414 28.4734 44.1932 28.8588 44.0816 29.2097C43.9692 29.563 43.8892 29.896 43.8374 30.1396C43.8114 30.2619 43.7922 30.3628 43.7794 30.4338C43.7731 30.4694 43.7683 30.4975 43.765 30.5172C43.7633 30.5271 43.7621 30.5348 43.7612 30.5403C43.7608 30.5431 43.7604 30.5453 43.7602 30.5469C43.76 30.5477 43.7599 30.5484 43.7599 30.5489C43.7598 30.5492 43.7598 30.5494 43.7597 30.5496C43.7597 30.5497 43.7597 30.5498 43.7597 30.5499C43.7597 30.55 43.7597 30.5501 44.2539 30.6261ZM45.8285 28.123C46.4318 27.7807 47.0119 27.0159 47.3859 26.3158C47.5786 25.9552 47.7357 25.5768 47.8189 25.2317C47.8605 25.0592 47.8872 24.8807 47.8843 24.7089C47.8815 24.5405 47.8498 24.3447 47.7432 24.1673L46.8861 24.6825C46.8708 24.6569 46.8834 24.66 46.8845 24.7255C46.8855 24.7875 46.8756 24.878 46.8468 24.9973C46.7892 25.236 46.6702 25.5333 46.5039 25.8446C46.1601 26.4881 45.6911 27.0512 45.335 27.2533L45.8285 28.123ZM47.7432 24.1673C47.6295 23.9782 47.4349 23.8239 47.1693 23.8106C46.9506 23.7996 46.767 23.8912 46.6514 23.9624C46.4163 24.1072 46.1672 24.3586 45.9524 24.5805C45.7174 24.8233 45.4895 25.0684 45.2533 25.2832C45.013 25.5017 44.8119 25.6429 44.6521 25.7031L45.0042 26.639C45.3473 26.5099 45.663 26.2623 45.9261 26.023C46.1933 25.78 46.4557 25.4983 46.671 25.276C46.9064 25.0327 47.0675 24.8806 47.1756 24.814C47.2317 24.7795 47.203 24.8136 47.1191 24.8093C46.9884 24.8028 46.9085 24.7197 46.8861 24.6825L47.7432 24.1673ZM44.6521 25.7031C44.3003 25.8354 43.998 26.0828 43.7484 26.355C43.4956 26.6306 43.2736 26.9572 43.0873 27.286C42.7189 27.9361 42.4553 28.6571 42.3735 29.1301L43.3589 29.3004C43.4166 28.9667 43.631 28.3548 43.9573 27.7791C44.1182 27.4951 44.2977 27.2355 44.4854 27.0309C44.6761 26.8229 44.8531 26.6959 45.0042 26.639L44.6521 25.7031Z" fill="#263238" mask="url(#path-98-inside-22_3973_14)"/>
<mask id="path-100-inside-23_3973_14" fill="white">
<path d="M47.0084 24.3387C47.0084 24.3387 47.0084 21.5734 46.5005 21.7028C45.9926 21.8323 45.9229 25.3346 45.9229 25.3346"/>
</mask>
<path d="M46.5084 24.3387C46.5084 24.6148 46.7323 24.8387 47.0084 24.8387C47.2845 24.8387 47.5084 24.6148 47.5084 24.3387H46.5084ZM45.423 25.3247C45.4175 25.6008 45.6368 25.829 45.9129 25.8345C46.189 25.84 46.4173 25.6207 46.4228 25.3446L45.423 25.3247ZM47.0084 24.3387C47.5084 24.3387 47.5084 24.3386 47.5084 24.3386C47.5084 24.3385 47.5084 24.3385 47.5084 24.3384C47.5084 24.3383 47.5084 24.3381 47.5084 24.3378C47.5084 24.3374 47.5084 24.3368 47.5084 24.336C47.5084 24.3344 47.5084 24.3322 47.5084 24.3293C47.5084 24.3236 47.5083 24.3153 47.5083 24.3046C47.5081 24.2833 47.5079 24.2525 47.5074 24.2136C47.5063 24.1357 47.5043 24.0252 47.5002 23.8932C47.4921 23.6303 47.4758 23.2773 47.4427 22.9254C47.4104 22.5813 47.3594 22.2077 47.2735 21.918C47.2325 21.7795 47.1699 21.6112 47.0645 21.4742C46.9505 21.3258 46.7102 21.1334 46.377 21.2183L46.624 22.1873C46.4177 22.2399 46.2886 22.1056 46.2718 22.0837C46.2636 22.0731 46.2843 22.0996 46.3147 22.2021C46.3717 22.3945 46.416 22.688 46.4471 23.019C46.4775 23.3423 46.4929 23.6726 46.5007 23.9241C46.5046 24.0493 46.5065 24.1538 46.5075 24.2267C46.5079 24.2631 46.5082 24.2916 46.5083 24.3107C46.5084 24.3203 46.5084 24.3275 46.5084 24.3323C46.5084 24.3346 46.5084 24.3363 46.5084 24.3374C46.5084 24.338 46.5084 24.3383 46.5084 24.3386C46.5084 24.3387 46.5084 24.3387 46.5084 24.3388C46.5084 24.3388 46.5084 24.3388 46.5084 24.3388C46.5084 24.3387 46.5084 24.3387 47.0084 24.3387ZM46.377 21.2183C46.2134 21.26 46.1012 21.3582 46.0325 21.4374C45.9631 21.5174 45.9133 21.6063 45.8768 21.6845C45.8039 21.8405 45.7502 22.0284 45.7081 22.2152C45.6229 22.5941 45.5643 23.07 45.5232 23.5221C45.4818 23.9784 45.4568 24.4286 45.4422 24.7635C45.4348 24.9313 45.43 25.0709 45.4271 25.1688C45.4256 25.2178 45.4246 25.2564 45.4239 25.2829C45.4236 25.2962 45.4233 25.3064 45.4232 25.3135C45.4231 25.317 45.4231 25.3197 45.423 25.3216C45.423 25.3225 45.423 25.3232 45.423 25.3238C45.423 25.324 45.423 25.3242 45.423 25.3244C45.423 25.3244 45.423 25.3245 45.423 25.3246C45.423 25.3246 45.423 25.3247 45.9229 25.3346C46.4228 25.3446 46.4228 25.3446 46.4228 25.3446C46.4228 25.3446 46.4228 25.3446 46.4228 25.3446C46.4228 25.3445 46.4228 25.3444 46.4228 25.3442C46.4228 25.3439 46.4228 25.3434 46.4228 25.3426C46.4228 25.3411 46.4229 25.3388 46.4229 25.3357C46.4231 25.3295 46.4233 25.32 46.4236 25.3076C46.4242 25.2828 46.4252 25.246 46.4266 25.199C46.4295 25.1049 46.4341 24.9698 46.4412 24.8072C46.4555 24.4814 46.4796 24.0479 46.5192 23.6125C46.559 23.1728 46.6131 22.7488 46.6838 22.4347C46.7197 22.2749 46.7547 22.1679 46.7829 22.1076C46.7969 22.0776 46.8007 22.078 46.788 22.0925C46.7762 22.1062 46.7241 22.1618 46.624 22.1873L46.377 21.2183Z" fill="#263238" mask="url(#path-100-inside-23_3973_14)"/>
<mask id="path-102-inside-24_3973_14" fill="white">
<path d="M45.55 25.69C45.55 25.69 45.218 24.1397 44.3051 23.3828C43.3921 22.6259 42.8211 23.0342 42.924 23.2898C43.027 23.5454 44.5839 25.6136 44.5474 26.3174"/>
</mask>
<path d="M45.061 25.7947C45.1189 26.0647 45.3846 26.2367 45.6547 26.1789C45.9247 26.1211 46.0967 25.8553 46.0389 25.5853L45.061 25.7947ZM44.0481 26.2915C44.0338 26.5673 44.2457 26.8024 44.5215 26.8168C44.7973 26.8311 45.0324 26.6191 45.0467 26.3433L44.0481 26.2915ZM45.55 25.69C46.0389 25.5853 46.0389 25.5852 46.0388 25.5851C46.0388 25.585 46.0388 25.5849 46.0388 25.5848C46.0387 25.5846 46.0387 25.5844 46.0386 25.5841C46.0385 25.5836 46.0384 25.5831 46.0382 25.5824C46.038 25.581 46.0376 25.5793 46.0371 25.5772C46.0362 25.573 46.0349 25.5674 46.0333 25.5603C46.03 25.5462 46.0254 25.5265 46.0193 25.5017C46.007 25.4523 45.9888 25.3825 45.9642 25.2972C45.9151 25.127 45.8394 24.8922 45.7327 24.631C45.5248 24.1224 45.1752 23.4547 44.6242 22.9979L43.9859 23.7677C44.3478 24.0677 44.6207 24.5537 44.807 25.0094C44.8974 25.2305 44.9618 25.4305 45.0035 25.5746C45.0242 25.6465 45.0391 25.7038 45.0486 25.7421C45.0533 25.7612 45.0567 25.7755 45.0587 25.7845C45.0598 25.789 45.0605 25.7921 45.0609 25.7938C45.061 25.7947 45.0612 25.7952 45.0612 25.7953C45.0612 25.7954 45.0612 25.7954 45.0612 25.7953C45.0612 25.7952 45.0611 25.7952 45.0611 25.7951C45.0611 25.795 45.0611 25.7949 45.0611 25.7949C45.0611 25.7948 45.061 25.7947 45.55 25.69ZM44.6242 22.9979C44.103 22.5657 43.5905 22.3925 43.1539 22.463C42.939 22.4977 42.7327 22.5958 42.5879 22.7652C42.4429 22.935 42.3496 23.2017 42.4602 23.4766L43.3879 23.1031C43.4471 23.2501 43.3866 23.3699 43.3482 23.4149C43.31 23.4595 43.2842 23.4549 43.3134 23.4502C43.3647 23.4419 43.5942 23.4429 43.9859 23.7677L44.6242 22.9979ZM42.4602 23.4766C42.4938 23.5599 42.5578 23.6618 42.6028 23.7326C42.6583 23.8199 42.7303 23.9287 42.8097 24.0483C42.9706 24.2907 43.1695 24.5889 43.3638 24.9003C43.5591 25.2132 43.7422 25.5275 43.8728 25.7997C43.9381 25.9358 43.9858 26.0522 44.0156 26.1463C44.0303 26.1928 44.0391 26.2293 44.0438 26.2564C44.0487 26.2844 44.0479 26.2948 44.0481 26.2915L45.0467 26.3433C45.0558 26.1684 45.0158 25.993 44.9691 25.8452C44.9203 25.6905 44.8516 25.5279 44.7744 25.3671C44.6201 25.0456 44.4144 24.6949 44.2122 24.3708C44.009 24.0452 43.8017 23.7345 43.6428 23.4952C43.5623 23.374 43.4961 23.2737 43.4469 23.1963C43.3872 23.1023 43.38 23.0836 43.3879 23.1031L42.4602 23.4766Z" fill="#263238" mask="url(#path-102-inside-24_3973_14)"/>
<mask id="path-104-inside-25_3973_14" fill="white">
<path d="M43.9711 24.9229C43.9711 24.9229 41.4647 23.7743 41.458 24.4614C41.4514 25.1486 42.9851 25.4142 42.9851 25.4142L43.4831 26.4101C43.4831 26.4101 41.3717 25.7462 41.4912 26.274C41.6107 26.8018 42.5535 26.918 42.5535 26.918C42.5535 26.918 41.5277 27.9339 41.8166 30.2378"/>
</mask>
<path d="M43.7628 25.3774C44.0138 25.4925 44.3106 25.3822 44.4256 25.1312C44.5407 24.8802 44.4304 24.5834 44.1794 24.4683L43.7628 25.3774ZM42.9851 25.4142L43.4323 25.1906C43.3613 25.0485 43.2269 24.9486 43.0704 24.9215L42.9851 25.4142ZM43.4831 26.4101L43.3331 26.8871C43.5245 26.9473 43.7334 26.8872 43.8636 26.7345C43.9938 26.5818 44.02 26.366 43.9303 26.1865L43.4831 26.4101ZM42.5535 26.918L42.9054 27.2733C43.0415 27.1385 43.0886 26.9378 43.0267 26.7565C42.9648 26.5752 42.8048 26.4452 42.6147 26.4218L42.5535 26.918ZM41.3204 30.3C41.3548 30.574 41.6048 30.7682 41.8788 30.7339C42.1528 30.6995 42.347 30.4496 42.3127 30.1756L41.3204 30.3ZM43.9711 24.9229C44.1794 24.4683 44.1793 24.4683 44.1792 24.4683C44.1792 24.4683 44.1791 24.4682 44.1791 24.4682C44.1789 24.4681 44.1787 24.468 44.1785 24.4679C44.1781 24.4677 44.1775 24.4675 44.1767 24.4671C44.1753 24.4665 44.1732 24.4655 44.1705 24.4643C44.1652 24.4619 44.1576 24.4584 44.1478 24.454C44.1282 24.4452 44.0999 24.4326 44.0642 24.417C43.9928 24.3857 43.8915 24.342 43.77 24.2919C43.5283 24.1923 43.2012 24.0647 42.8698 23.9584C42.5494 23.8556 42.1826 23.7585 41.8769 23.7442C41.7311 23.7374 41.5295 23.7448 41.3455 23.8362C41.245 23.8861 41.142 23.9651 41.0659 24.0844C40.9892 24.2044 40.9592 24.335 40.9581 24.4566L41.958 24.4663C41.9577 24.502 41.948 24.561 41.9088 24.6224C41.8701 24.683 41.8216 24.7162 41.7903 24.7318C41.7447 24.7545 41.74 24.7389 41.8301 24.7431C41.9962 24.7509 42.2573 24.8121 42.5643 24.9106C42.8603 25.0055 43.1602 25.1221 43.3887 25.2164C43.5023 25.2632 43.5968 25.3039 43.6625 25.3328C43.6954 25.3472 43.721 25.3586 43.7381 25.3663C43.7466 25.3701 43.7531 25.373 43.7572 25.3749C43.7593 25.3759 43.7608 25.3765 43.7618 25.377C43.7622 25.3772 43.7625 25.3773 43.7627 25.3774C43.7628 25.3774 43.7628 25.3775 43.7629 25.3775C43.7629 25.3775 43.7628 25.3775 43.7628 25.3775C43.7628 25.3774 43.7628 25.3774 43.9711 24.9229ZM40.9581 24.4566C40.9544 24.8345 41.167 25.1085 41.3698 25.281C41.5723 25.4533 41.8205 25.575 42.0342 25.6601C42.2534 25.7473 42.4682 25.8083 42.6252 25.8473C42.7046 25.8669 42.7711 25.8815 42.8187 25.8912C42.8425 25.8961 42.8617 25.8998 42.8754 25.9024C42.8823 25.9037 42.8879 25.9047 42.8919 25.9055C42.894 25.9058 42.8957 25.9061 42.897 25.9064C42.8976 25.9065 42.8982 25.9066 42.8987 25.9067C42.8989 25.9067 42.8991 25.9068 42.8993 25.9068C42.8994 25.9068 42.8995 25.9068 42.8996 25.9068C42.8997 25.9069 42.8998 25.9069 42.9851 25.4142C43.0704 24.9215 43.0705 24.9216 43.0706 24.9216C43.0706 24.9216 43.0707 24.9216 43.0708 24.9216C43.0709 24.9216 43.0709 24.9216 43.071 24.9216C43.0711 24.9216 43.0711 24.9217 43.071 24.9216C43.0708 24.9216 43.0703 24.9215 43.0695 24.9214C43.0678 24.9211 43.0647 24.9205 43.0603 24.9197C43.0516 24.918 43.0378 24.9154 43.0197 24.9117C42.9835 24.9042 42.9303 24.8926 42.8659 24.8767C42.7356 24.8443 42.5674 24.796 42.404 24.731C42.235 24.6637 42.101 24.5902 42.0178 24.5194C41.9349 24.4489 41.9583 24.432 41.958 24.4663L40.9581 24.4566ZM42.5379 25.6378L43.0359 26.6337L43.9303 26.1865L43.4323 25.1906L42.5379 25.6378ZM43.4831 26.4101C43.6331 25.9331 43.633 25.9331 43.6329 25.9331C43.6329 25.9331 43.6328 25.9331 43.6328 25.9331C43.6326 25.933 43.6325 25.933 43.6323 25.9329C43.6319 25.9328 43.6314 25.9326 43.6307 25.9324C43.6294 25.932 43.6277 25.9315 43.6254 25.9308C43.6208 25.9293 43.6143 25.9273 43.606 25.9248C43.5894 25.9197 43.5654 25.9124 43.5353 25.9034C43.4751 25.8855 43.3897 25.8606 43.2878 25.8326C43.0854 25.7768 42.8118 25.7067 42.538 25.6534C42.2764 25.6024 41.9693 25.5571 41.719 25.5737C41.6047 25.5813 41.4178 25.6054 41.256 25.7185C41.1644 25.7826 41.0749 25.8797 41.0248 26.0156C40.9754 26.1495 40.9797 26.2792 41.0036 26.3844L41.9789 26.1636C41.9878 26.2029 41.9946 26.2759 41.963 26.3616C41.9307 26.4491 41.8743 26.5064 41.829 26.5381C41.7598 26.5865 41.7182 26.5759 41.785 26.5715C41.897 26.5641 42.0953 26.5859 42.3466 26.6349C42.5858 26.6815 42.8325 26.7444 43.0223 26.7967C43.1165 26.8226 43.1951 26.8455 43.2499 26.8618C43.2772 26.87 43.2985 26.8765 43.3128 26.8808C43.3199 26.883 43.3252 26.8846 43.3287 26.8857C43.3304 26.8862 43.3316 26.8866 43.3323 26.8869C43.3327 26.887 43.333 26.8871 43.3331 26.8871C43.3332 26.8871 43.3332 26.8871 43.3332 26.8871C43.3332 26.8871 43.3332 26.8871 43.3332 26.8871C43.3331 26.8871 43.3331 26.8871 43.4831 26.4101ZM41.0036 26.3844C41.1247 26.9194 41.6258 27.1613 41.8899 27.2615C42.0462 27.3207 42.194 27.3581 42.3006 27.3808C42.3547 27.3922 42.4 27.4003 42.433 27.4056C42.4494 27.4083 42.4629 27.4103 42.473 27.4117C42.478 27.4124 42.4821 27.413 42.4854 27.4134C42.487 27.4136 42.4884 27.4138 42.4896 27.4139C42.4902 27.414 42.4907 27.4141 42.4912 27.4141C42.4914 27.4142 42.4916 27.4142 42.4918 27.4142C42.4919 27.4142 42.4921 27.4142 42.4921 27.4143C42.4923 27.4143 42.4924 27.4143 42.5535 26.918C42.6147 26.4218 42.6148 26.4218 42.6149 26.4218C42.615 26.4218 42.6151 26.4218 42.6152 26.4219C42.6153 26.4219 42.6155 26.4219 42.6156 26.4219C42.6158 26.4219 42.616 26.422 42.6161 26.422C42.6164 26.422 42.6164 26.422 42.6163 26.422C42.6159 26.4219 42.6148 26.4218 42.6129 26.4215C42.609 26.421 42.6022 26.42 42.5926 26.4184C42.5735 26.4153 42.5443 26.4102 42.5081 26.4025C42.4343 26.3869 42.3388 26.3622 42.2445 26.3264C42.1471 26.2895 42.0712 26.2484 42.0222 26.2086C41.9752 26.1706 41.9768 26.1543 41.9789 26.1636L41.0036 26.3844ZM42.5535 26.918C42.2017 26.5628 42.2015 26.563 42.2013 26.5632C42.2012 26.5633 42.2009 26.5635 42.2008 26.5637C42.2005 26.564 42.2001 26.5644 42.1998 26.5647C42.199 26.5654 42.1983 26.5662 42.1974 26.5671C42.1957 26.5688 42.1938 26.5707 42.1917 26.5729C42.1873 26.5774 42.1821 26.5829 42.176 26.5895C42.1637 26.6027 42.148 26.6202 42.1294 26.642C42.0921 26.6857 42.0433 26.747 41.9879 26.8265C41.8768 26.9854 41.739 27.217 41.6136 27.5256C41.3612 28.1462 41.1653 29.0624 41.3204 30.3L42.3127 30.1756C42.179 29.1093 42.3516 28.3656 42.5399 27.9023C42.6348 27.6689 42.7354 27.5026 42.8077 27.3991C42.8439 27.3473 42.873 27.3112 42.8907 27.2904C42.8996 27.2799 42.9056 27.2733 42.9082 27.2705C42.9095 27.2691 42.91 27.2686 42.9096 27.2691C42.9093 27.2693 42.9089 27.2698 42.9082 27.2705C42.9078 27.2709 42.9074 27.2713 42.907 27.2717C42.9067 27.272 42.9065 27.2722 42.9062 27.2725C42.9061 27.2726 42.9059 27.2728 42.9058 27.2729C42.9056 27.2731 42.9054 27.2733 42.5535 26.918Z" fill="#263238" mask="url(#path-104-inside-25_3973_14)"/>
<path d="M26.9633 61.7185L27.6041 66.2068C27.6041 66.2068 33.5032 83.9043 34.3995 87.3635C35.2959 90.8226 35.8104 98.6506 36.0594 102.239C36.3084 105.828 38.3832 111.866 38.3832 111.866C38.3832 111.866 38.1276 114.303 33.7688 113.918C33.7688 113.918 31.9728 106.737 30.0507 102.505C28.1286 98.2721 27.8464 91.8517 27.8464 91.8517L18.4847 74.6688C18.4847 74.6688 16.5693 84.6745 15.2812 88.3893C13.9533 92.2202 4.90039 113.476 5.53446 111.986C5.53446 111.986 4.25304 112.756 1.55078 110.831C1.55078 110.831 3.47291 104.42 3.98415 100.958C4.49539 97.4953 7.19101 89.5445 7.19101 89.5445C7.19101 89.5445 7.83172 74.5427 8.85087 69.9249C8.85087 69.9249 8.18693 64.8391 9.60446 61.2471C15.223 63.0821 21.2535 63.2459 26.9633 61.7185Z" fill="#263238"/>
<mask id="path-107-inside-26_3973_14" fill="white">
<path d="M13.3564 71.6548L17.5592 72.8765L18.1701 74.3671"/>
</mask>
<path d="M13.496 71.1747C13.2308 71.0976 12.9534 71.2501 12.8763 71.5153C12.7992 71.7805 12.9517 72.0579 13.2169 72.135L13.496 71.1747ZM17.5592 72.8765L18.0219 72.6869C17.9641 72.5459 17.8451 72.4389 17.6988 72.3964L17.5592 72.8765ZM17.7074 74.5567C17.8121 74.8122 18.1041 74.9344 18.3597 74.8297C18.6152 74.725 18.7374 74.433 18.6327 74.1775L17.7074 74.5567ZM13.2169 72.135L17.4197 73.3566L17.6988 72.3964L13.496 71.1747L13.2169 72.135ZM17.0966 73.0661L17.7074 74.5567L18.6327 74.1775L18.0219 72.6869L17.0966 73.0661Z" fill="#263238" mask="url(#path-107-inside-26_3973_14)"/>
<mask id="path-109-inside-27_3973_14" fill="white">
<path d="M33.8629 113.394C33.8629 113.394 33.2953 116.239 33.76 116.823C34.0057 117.129 34.736 117.072 35.0879 117.079C35.8979 117.095 36.7113 117.042 37.5213 116.989C39.1413 116.883 40.8012 116.9 42.3648 116.398C43.682 116.002 44.9403 115.432 46.1061 114.702C46.7435 114.277 46.1061 113.59 46.1061 113.59L38.3877 111.857"/>
</mask>
<path d="M34.3533 113.492C34.4073 113.221 34.2316 112.958 33.9608 112.904C33.69 112.85 33.4266 113.025 33.3726 113.296L34.3533 113.492ZM33.76 116.823L33.3687 117.135L33.3704 117.137L33.76 116.823ZM35.0879 117.079L35.0982 116.579L35.0974 116.579L35.0879 117.079ZM42.3648 116.398L42.2208 115.919L42.2121 115.922L42.3648 116.398ZM46.1061 114.702L46.3715 115.126C46.3755 115.123 46.3795 115.121 46.3835 115.118L46.1061 114.702ZM46.1061 113.59L46.4727 113.25C46.4039 113.176 46.3143 113.124 46.2157 113.102L46.1061 113.59ZM38.4973 111.369C38.2278 111.309 37.9604 111.478 37.8999 111.747C37.8394 112.017 38.0088 112.284 38.2782 112.345L38.4973 111.369ZM33.8629 113.394C33.3726 113.296 33.3726 113.296 33.3726 113.296C33.3726 113.296 33.3726 113.296 33.3725 113.296C33.3725 113.297 33.3725 113.297 33.3724 113.297C33.3723 113.298 33.3722 113.298 33.372 113.299C33.3717 113.301 33.3713 113.303 33.3707 113.306C33.3695 113.312 33.3679 113.32 33.3657 113.331C33.3615 113.354 33.3554 113.386 33.3478 113.426C33.3327 113.508 33.3118 113.624 33.2883 113.765C33.2413 114.047 33.1833 114.431 33.14 114.836C33.0971 115.238 33.067 115.675 33.0803 116.058C33.087 116.25 33.1048 116.441 33.1423 116.614C33.178 116.778 33.2409 116.974 33.3687 117.135L34.1513 116.512C34.163 116.527 34.142 116.505 34.1197 116.402C34.0993 116.308 34.0852 116.181 34.0797 116.024C34.0688 115.709 34.0935 115.325 34.1344 114.943C34.1749 114.563 34.2298 114.2 34.2747 113.93C34.2971 113.795 34.317 113.685 34.3311 113.608C34.3382 113.57 34.3438 113.541 34.3476 113.521C34.3496 113.511 34.351 113.503 34.352 113.498C34.3524 113.496 34.3528 113.494 34.353 113.493C34.3531 113.493 34.3532 113.492 34.3533 113.492C34.3533 113.492 34.3533 113.492 34.3533 113.492C34.3533 113.492 34.3533 113.492 34.3533 113.492C34.3533 113.492 34.3533 113.492 33.8629 113.394ZM33.3704 117.137C33.5118 117.312 33.699 117.408 33.8573 117.463C34.018 117.519 34.1868 117.546 34.336 117.561C34.617 117.588 34.9511 117.576 35.0785 117.579L35.0974 116.579C34.8729 116.575 34.6659 116.588 34.4323 116.565C34.3242 116.555 34.2424 116.539 34.186 116.519C34.1273 116.498 34.1311 116.487 34.1496 116.51L33.3704 117.137ZM35.0777 117.579C35.9128 117.596 36.7475 117.541 37.554 117.488L37.4886 116.49C36.675 116.544 35.8831 116.595 35.0982 116.579L35.0777 117.579ZM37.554 117.488C39.1209 117.385 40.8771 117.4 42.5174 116.874L42.2121 115.922C40.7253 116.399 39.1617 116.381 37.4886 116.49L37.554 117.488ZM42.5087 116.877C43.8687 116.468 45.1678 115.879 46.3715 115.126L45.8408 114.278C44.7128 114.984 43.4954 115.536 42.2209 115.919L42.5087 116.877ZM46.3835 115.118C46.6335 114.951 46.7981 114.728 46.8612 114.466C46.921 114.217 46.8761 113.988 46.8164 113.82C46.7564 113.65 46.6703 113.51 46.6052 113.417C46.5717 113.369 46.5411 113.33 46.518 113.302C46.5064 113.288 46.4964 113.276 46.4888 113.268C46.4849 113.263 46.4816 113.26 46.4789 113.257C46.4776 113.255 46.4764 113.254 46.4753 113.253C46.4748 113.252 46.4743 113.252 46.4739 113.251C46.4737 113.251 46.4735 113.251 46.4733 113.25C46.4732 113.25 46.473 113.25 46.473 113.25C46.4728 113.25 46.4727 113.25 46.1061 113.59C45.7395 113.93 45.7394 113.93 45.7393 113.93C45.7392 113.93 45.7391 113.929 45.739 113.929C45.7389 113.929 45.7387 113.929 45.7386 113.929C45.7383 113.929 45.738 113.928 45.7378 113.928C45.7374 113.928 45.7371 113.927 45.7369 113.927C45.7366 113.927 45.7368 113.927 45.7375 113.928C45.7388 113.929 45.742 113.933 45.7466 113.938C45.7558 113.95 45.77 113.968 45.7863 113.991C45.8208 114.04 45.8542 114.098 45.8738 114.153C45.8832 114.18 45.8874 114.2 45.8888 114.214C45.8895 114.221 45.8895 114.225 45.8893 114.228C45.8892 114.23 45.8891 114.23 45.8891 114.231C45.889 114.232 45.8889 114.232 45.8889 114.232C45.8889 114.232 45.8889 114.232 45.889 114.232C45.889 114.232 45.889 114.232 45.889 114.232C45.889 114.232 45.8883 114.233 45.8858 114.237C45.8812 114.243 45.8663 114.261 45.8288 114.286L46.3835 115.118ZM46.2157 113.102L38.4973 111.369L38.2782 112.345L45.9966 114.078L46.2157 113.102Z" fill="#263238" mask="url(#path-109-inside-27_3973_14)"/>
<path d="M45.2461 113.999C43.4789 115.295 40.8974 115.737 38.6016 115.826C37.4494 115.87 36.3846 115.823 35.5566 115.759L45.2461 113.999Z" stroke="#263238" stroke-width="0.5" stroke-linecap="round" stroke-linejoin="round"/>
<mask id="path-112-inside-28_3973_14" fill="white">
<path d="M1.88694 110.545C1.88694 110.545 0.891021 113.961 1.03709 115.037C1.18316 116.112 2.26207 116.365 3.52357 116.335C4.78507 116.305 5.30295 115.741 5.48885 114.888C5.67476 114.034 5.48885 111.276 5.48885 111.276"/>
</mask>
<path d="M2.36696 110.685C2.44425 110.42 2.29199 110.143 2.02689 110.065C1.76178 109.988 1.48422 110.14 1.40693 110.405L2.36696 110.685ZM5.98772 111.242C5.96915 110.966 5.73075 110.758 5.45523 110.777C5.17972 110.795 4.97142 111.034 4.98998 111.309L5.98772 111.242ZM1.88694 110.545C1.40693 110.405 1.40691 110.405 1.4069 110.405C1.40689 110.405 1.40687 110.406 1.40685 110.406C1.4068 110.406 1.40675 110.406 1.40668 110.406C1.40653 110.407 1.40633 110.407 1.40607 110.408C1.40554 110.41 1.40478 110.413 1.40379 110.416C1.40182 110.423 1.39894 110.433 1.39521 110.446C1.38775 110.472 1.37691 110.51 1.36322 110.558C1.33584 110.655 1.29701 110.795 1.25092 110.965C1.15885 111.306 1.03738 111.773 0.920328 112.274C0.803561 112.774 0.689665 113.316 0.614116 113.805C0.541134 114.277 0.494426 114.757 0.541638 115.104L1.53254 114.97C1.50672 114.779 1.52973 114.428 1.6024 113.958C1.6725 113.504 1.7802 112.99 1.89415 112.501C2.00782 112.014 2.1262 111.56 2.2163 111.226C2.2613 111.06 2.29913 110.924 2.32565 110.83C2.3389 110.783 2.34932 110.746 2.35638 110.722C2.35991 110.71 2.3626 110.7 2.36438 110.694C2.36527 110.691 2.36594 110.689 2.36637 110.687C2.36659 110.686 2.36675 110.686 2.36684 110.686C2.36689 110.685 2.36693 110.685 2.36695 110.685C2.36695 110.685 2.36696 110.685 2.36696 110.685C2.36696 110.685 2.36696 110.685 1.88694 110.545ZM0.541638 115.104C0.641525 115.84 1.08079 116.306 1.66267 116.559C2.20951 116.797 2.88282 116.85 3.53541 116.835L3.51173 115.835C2.90283 115.849 2.40593 115.792 2.06142 115.642C1.75195 115.507 1.57872 115.31 1.53254 114.97L0.541638 115.104ZM3.53541 116.835C4.23589 116.818 4.80097 116.651 5.22431 116.308C5.65014 115.963 5.86891 115.492 5.97739 114.994L5.00032 114.781C4.92289 115.136 4.78977 115.373 4.59481 115.531C4.39736 115.691 4.07275 115.822 3.51173 115.835L3.53541 116.835ZM5.97739 114.994C6.03502 114.729 6.0584 114.355 6.06715 113.975C6.07614 113.584 6.0701 113.15 6.05835 112.747C6.04658 112.344 6.02895 111.968 6.01428 111.693C6.00694 111.556 6.00033 111.444 5.99554 111.365C5.99315 111.326 5.99121 111.296 5.98986 111.275C5.98918 111.264 5.98866 111.256 5.9883 111.251C5.98811 111.248 5.98798 111.246 5.98788 111.244C5.98783 111.244 5.98779 111.243 5.98777 111.243C5.98775 111.242 5.98774 111.242 5.98774 111.242C5.98773 111.242 5.98773 111.242 5.98773 111.242C5.98772 111.242 5.98772 111.242 5.48885 111.276C4.98998 111.309 4.98998 111.309 4.98998 111.309C4.98998 111.309 4.98998 111.309 4.98999 111.309C4.98999 111.309 4.99 111.309 4.99001 111.31C4.99002 111.31 4.99005 111.31 4.99009 111.311C4.99018 111.312 4.9903 111.314 4.99046 111.316C4.9908 111.321 4.99129 111.329 4.99193 111.339C4.99321 111.359 4.99509 111.388 4.99741 111.426C5.00206 111.502 5.00852 111.612 5.01571 111.747C5.03009 112.016 5.04731 112.383 5.05878 112.776C5.07027 113.17 5.07585 113.585 5.06741 113.952C5.05873 114.329 5.03564 114.619 5.00032 114.781L5.97739 114.994Z" fill="#263238" mask="url(#path-112-inside-28_3973_14)"/>
<path d="M1.02246 114.516L5.4875 114.887" stroke="#263238" stroke-width="0.5" stroke-linecap="round" stroke-linejoin="round"/>
<mask id="path-115-inside-29_3973_14" fill="white">
<path d="M12.6793 11.8098C13.0577 11.1193 13.2802 10.6977 13.2802 10.6977C13.2802 10.6977 12.0485 7.71993 12.3573 7.35476C12.666 6.98959 13.3798 8.01871 13.3798 8.01871C13.3798 8.01871 12.6494 5.65174 13.1109 5.44923C13.5723 5.24673 14.3956 7.44107 14.3956 7.44107C14.3956 7.44107 14.1798 4.27073 14.6579 4.12134C15.1359 3.97195 15.7102 7.13566 15.7102 7.13566C15.7102 7.13566 16.3277 4.32052 16.7061 4.29396C17.0846 4.26741 16.7061 10.1002 16.7061 10.1002C17.4697 10.4753 19.7138 9.55906 19.6939 10.2994C19.674 11.0397 15.3782 12.7427 15.3782 12.7427C15.3031 12.8402 15.2375 12.9447 15.1824 13.0547"/>
</mask>
<path d="M12.2408 11.5695C12.1081 11.8117 12.1968 12.1156 12.439 12.2483C12.6811 12.381 12.985 12.2923 13.1178 12.0502L12.2408 11.5695ZM13.2802 10.6977L13.7224 10.931C13.7918 10.7995 13.799 10.644 13.7422 10.5066L13.2802 10.6977ZM13.3798 8.01871L12.9689 8.30366C13.1094 8.5063 13.3768 8.57621 13.5985 8.46831C13.8203 8.36041 13.9302 8.10694 13.8575 7.87129L13.3798 8.01871ZM14.3956 7.44107L13.9275 7.61671C14.0146 7.84904 14.259 7.98229 14.5015 7.92973C14.744 7.87716 14.9113 7.65469 14.8944 7.40712L14.3956 7.44107ZM15.7102 7.13566L15.2183 7.22496C15.2608 7.45941 15.4629 7.63124 15.7011 7.63557C15.9394 7.6399 16.1476 7.47552 16.1986 7.24278L15.7102 7.13566ZM16.7061 10.1002L16.2072 10.0678C16.1941 10.2698 16.304 10.4597 16.4857 10.5489L16.7061 10.1002ZM15.3782 12.7427L15.194 12.2779C15.1103 12.311 15.0372 12.3662 14.9822 12.4374L15.3782 12.7427ZM14.7353 12.8308C14.6117 13.0777 14.7116 13.3781 14.9585 13.5018C15.2054 13.6255 15.5058 13.5256 15.6294 13.2787L14.7353 12.8308ZM13.1178 12.0502C13.3078 11.7035 13.4587 11.4242 13.5622 11.2313C13.614 11.1349 13.6539 11.0601 13.6809 11.0092C13.6945 10.9838 13.7048 10.9644 13.7117 10.9512C13.7152 10.9447 13.7178 10.9397 13.7196 10.9363C13.7205 10.9346 13.7212 10.9333 13.7217 10.9324C13.7219 10.932 13.7221 10.9317 13.7222 10.9314C13.7223 10.9313 13.7223 10.9312 13.7223 10.9312C13.7224 10.9311 13.7224 10.9311 13.7224 10.9311C13.7224 10.9311 13.7224 10.9311 13.7224 10.9311C13.7224 10.931 13.7224 10.931 13.2802 10.6977C12.8379 10.4644 12.8379 10.4644 12.8379 10.4644C12.8379 10.4644 12.8379 10.4644 12.8379 10.4644C12.8379 10.4644 12.8379 10.4644 12.8379 10.4645C12.8379 10.4645 12.8379 10.4646 12.8378 10.4646C12.8377 10.4648 12.8376 10.4651 12.8374 10.4655C12.837 10.4662 12.8364 10.4674 12.8355 10.469C12.8339 10.4721 12.8314 10.4768 12.828 10.4831C12.8213 10.4958 12.8113 10.5147 12.7981 10.5396C12.7716 10.5894 12.7323 10.6631 12.6811 10.7584C12.5788 10.9489 12.4293 11.2257 12.2408 11.5695L13.1178 12.0502ZM13.2802 10.6977C13.7422 10.5066 13.7422 10.5066 13.7422 10.5067C13.7422 10.5066 13.7422 10.5066 13.7422 10.5066C13.7422 10.5066 13.7421 10.5065 13.7421 10.5063C13.742 10.506 13.7418 10.5056 13.7415 10.505C13.741 10.5037 13.7402 10.5017 13.7391 10.4991C13.7369 10.4938 13.7336 10.4857 13.7293 10.4751C13.7206 10.4539 13.7079 10.4226 13.6917 10.3823C13.6592 10.3018 13.6131 10.186 13.5586 10.0457C13.4495 9.76468 13.3078 9.38804 13.1762 9.00187C13.0435 8.61244 12.9257 8.22719 12.8598 7.92466C12.8264 7.77151 12.8106 7.65854 12.808 7.58551C12.8067 7.54904 12.8094 7.53839 12.808 7.54562C12.8076 7.54791 12.7971 7.60893 12.7391 7.67757L11.9755 7.03194C11.8788 7.14623 11.8418 7.27332 11.8255 7.35934C11.8083 7.45031 11.8058 7.54108 11.8086 7.62098C11.8143 7.7807 11.844 7.96028 11.8827 8.13765C11.9609 8.49616 12.0931 8.92384 12.2297 9.3245C12.3674 9.72843 12.5143 10.1191 12.6265 10.4078C12.6826 10.5524 12.7303 10.6721 12.764 10.7558C12.7809 10.7977 12.7943 10.8307 12.8035 10.8533C12.8082 10.8646 12.8117 10.8733 12.8142 10.8793C12.8154 10.8823 12.8164 10.8846 12.817 10.8862C12.8174 10.887 12.8176 10.8876 12.8178 10.888C12.8179 10.8883 12.818 10.8884 12.818 10.8886C12.8181 10.8886 12.8181 10.8887 12.8181 10.8887C12.8181 10.8888 12.8181 10.8888 13.2802 10.6977ZM12.7391 7.67757C12.703 7.72028 12.6388 7.76256 12.5586 7.7737C12.5246 7.77841 12.4979 7.77601 12.4815 7.77319C12.4733 7.77178 12.4672 7.77019 12.4635 7.76908C12.4616 7.76851 12.4602 7.76804 12.4593 7.76773C12.4589 7.76757 12.4585 7.76744 12.4583 7.76736C12.4581 7.76727 12.458 7.76723 12.458 7.76723C12.458 7.76723 12.4581 7.76727 12.4583 7.76736C12.4585 7.76745 12.4588 7.76758 12.4592 7.76777C12.46 7.76814 12.4612 7.76869 12.4627 7.76946C12.4658 7.77101 12.47 7.7733 12.4754 7.77651C12.4863 7.78304 12.5004 7.79234 12.5174 7.80504C12.552 7.83089 12.5918 7.86546 12.6352 7.90777C12.7225 7.99291 12.8066 8.09195 12.8711 8.17363C12.9027 8.2136 12.9282 8.24753 12.9453 8.27094C12.9539 8.28261 12.9603 8.29157 12.9644 8.29723C12.9664 8.30006 12.9678 8.30206 12.9686 8.30316C12.9689 8.30371 12.9692 8.30403 12.9692 8.30411C12.9693 8.30416 12.9692 8.30414 12.9692 8.30406C12.9692 8.30403 12.9691 8.30397 12.9691 8.30391C12.9691 8.30387 12.969 8.30381 12.969 8.30379C12.969 8.30373 12.9689 8.30366 13.3798 8.01871C13.7906 7.73376 13.7906 7.73368 13.7905 7.7336C13.7905 7.73356 13.7904 7.73348 13.7904 7.73341C13.7903 7.73328 13.7902 7.73314 13.7901 7.73297C13.7898 7.73265 13.7896 7.73226 13.7893 7.73181C13.7886 7.73091 13.7878 7.72976 13.7869 7.72837C13.7849 7.7256 13.7823 7.72186 13.779 7.71724C13.7724 7.70801 13.7632 7.69521 13.7516 7.67946C13.7286 7.64802 13.6959 7.6044 13.6557 7.55359C13.5768 7.45372 13.4631 7.31831 13.3334 7.19182C13.2129 7.07436 13.0386 6.92429 12.8366 6.84166C12.7311 6.79851 12.5859 6.76033 12.4211 6.78319C12.2428 6.80794 12.0887 6.89795 11.9755 7.03194L12.7391 7.67757ZM13.3798 8.01871C13.8575 7.87129 13.8575 7.87132 13.8576 7.87135C13.8576 7.87135 13.8576 7.87137 13.8576 7.87137C13.8576 7.87136 13.8575 7.87132 13.8575 7.87124C13.8575 7.87108 13.8574 7.87078 13.8572 7.87034C13.857 7.86946 13.8565 7.86802 13.8559 7.86605C13.8547 7.8621 13.8529 7.856 13.8504 7.84787C13.8455 7.83163 13.8383 7.80733 13.8291 7.77609C13.8108 7.71355 13.785 7.6234 13.7553 7.51439C13.6957 7.29541 13.6218 7.00467 13.5623 6.71071C13.5016 6.4109 13.4611 6.13229 13.4582 5.929C13.4567 5.82479 13.4659 5.77182 13.4704 5.756C13.4776 5.73123 13.4535 5.84489 13.3118 5.90708L12.9099 4.99138C12.6529 5.1042 12.5507 5.33613 12.5094 5.47956C12.4656 5.63194 12.4562 5.79712 12.4583 5.94329C12.4625 6.24076 12.518 6.59186 12.5822 6.90911C12.6476 7.23221 12.7275 7.54586 12.7904 7.77702C12.822 7.89307 12.8496 7.98943 12.8694 8.05712C12.8793 8.09099 12.8873 8.11775 12.8929 8.13627C12.8957 8.14554 12.8979 8.15275 12.8994 8.15777C12.9002 8.16028 12.9008 8.16224 12.9012 8.16364C12.9014 8.16434 12.9016 8.1649 12.9017 8.16531C12.9018 8.16552 12.9019 8.16569 12.9019 8.16583C12.9019 8.1659 12.9019 8.16597 12.9019 8.166C12.902 8.16607 12.902 8.16613 13.3798 8.01871ZM13.3118 5.90708C13.1637 5.97208 13.0488 5.91 13.0384 5.90367C13.0326 5.90013 13.0598 5.91742 13.1161 5.98775C13.2246 6.12307 13.352 6.34044 13.4797 6.5941C13.6041 6.84122 13.7164 7.09731 13.7982 7.29367C13.8389 7.39133 13.8716 7.47305 13.8939 7.52998C13.9051 7.55843 13.9137 7.58063 13.9194 7.59547C13.9222 7.60288 13.9243 7.60846 13.9257 7.61204C13.9264 7.61384 13.9269 7.61514 13.9272 7.61592C13.9273 7.61631 13.9274 7.61658 13.9275 7.61671C13.9275 7.61678 13.9275 7.61681 13.9275 7.61681C13.9275 7.61681 13.9275 7.61679 13.9275 7.61679C13.9275 7.61675 13.9275 7.61671 14.3956 7.44107C14.8637 7.26543 14.8637 7.26538 14.8637 7.26531C14.8637 7.26528 14.8636 7.2652 14.8636 7.26514C14.8636 7.265 14.8635 7.26484 14.8634 7.26464C14.8633 7.26424 14.8631 7.26371 14.8628 7.26305C14.8623 7.26172 14.8616 7.25988 14.8607 7.25752C14.859 7.25282 14.8564 7.2461 14.8531 7.23749C14.8465 7.22029 14.8369 7.19554 14.8247 7.16438C14.8002 7.1021 14.765 7.01397 14.7213 6.90907C14.6343 6.70032 14.5119 6.42049 14.3728 6.14433C14.2371 5.87471 14.0721 5.58147 13.8964 5.3623C13.8107 5.25539 13.6979 5.13447 13.5587 5.04969C13.415 4.96211 13.1734 4.87576 12.9099 4.99138L13.3118 5.90708ZM14.3956 7.44107C14.8944 7.40712 14.8944 7.40715 14.8944 7.40716C14.8944 7.40715 14.8944 7.40715 14.8944 7.40713C14.8944 7.40708 14.8944 7.40698 14.8944 7.40684C14.8944 7.40656 14.8944 7.40609 14.8943 7.40543C14.8942 7.40411 14.8941 7.40204 14.8939 7.39925C14.8936 7.39367 14.893 7.3852 14.8923 7.37403C14.8909 7.35167 14.8889 7.31851 14.8864 7.27605C14.8816 7.1911 14.8752 7.06911 14.8689 6.92209C14.8563 6.62731 14.8446 6.23526 14.8475 5.84081C14.8503 5.44182 14.868 5.0593 14.9098 4.77612C14.9312 4.63172 14.9552 4.5392 14.9744 4.49041C15.0079 4.40565 14.9833 4.54348 14.807 4.59858L14.5087 3.6441C14.2129 3.73654 14.0905 4.00612 14.0442 4.12334C13.9838 4.27652 13.9462 4.45619 13.9206 4.63003C13.8684 4.98329 13.8504 5.42137 13.8475 5.83365C13.8445 6.25046 13.8568 6.66032 13.8698 6.96465C13.8763 7.11719 13.883 7.24405 13.8881 7.33306C13.8906 7.37758 13.8928 7.41268 13.8943 7.43684C13.895 7.44892 13.8956 7.45827 13.8961 7.46469C13.8963 7.46791 13.8964 7.47039 13.8966 7.47212C13.8966 7.47299 13.8967 7.47366 13.8967 7.47415C13.8967 7.47439 13.8967 7.47459 13.8967 7.47473C13.8967 7.4748 13.8967 7.47488 13.8967 7.47492C13.8968 7.47498 13.8968 7.47503 14.3956 7.44107ZM14.807 4.59858C14.5601 4.67575 14.4258 4.49233 14.4596 4.53202C14.4732 4.54811 14.5116 4.6061 14.5662 4.7304C14.6709 4.96885 14.7796 5.31934 14.8798 5.69979C14.9784 6.07448 15.0632 6.4561 15.1235 6.74565C15.1536 6.89001 15.1774 7.01056 15.1937 7.09475C15.2018 7.13682 15.208 7.16977 15.2122 7.192C15.2142 7.20312 15.2158 7.21156 15.2168 7.21712C15.2173 7.2199 15.2177 7.22196 15.2179 7.22327C15.2181 7.22393 15.2182 7.2244 15.2182 7.22469C15.2182 7.22483 15.2182 7.22492 15.2183 7.22497C15.2183 7.22499 15.2183 7.22499 15.2183 7.225C15.2183 7.22499 15.2183 7.22496 15.7102 7.13566C16.2022 7.04635 16.2022 7.0463 16.2022 7.04624C16.2021 7.0462 16.2021 7.04613 16.2021 7.04606C16.2021 7.04591 16.2021 7.04572 16.202 7.04547C16.2019 7.04499 16.2018 7.04432 16.2016 7.04345C16.2013 7.04173 16.2009 7.03925 16.2003 7.03605C16.1991 7.02965 16.1974 7.02034 16.1951 7.00832C16.1906 6.98429 16.1841 6.94941 16.1755 6.90527C16.1585 6.81702 16.1337 6.69158 16.1025 6.54167C16.0402 6.24269 15.9515 5.84273 15.8468 5.44517C15.7437 5.05336 15.6191 4.64093 15.4817 4.3282C15.4153 4.17692 15.3303 4.01225 15.2211 3.88392C15.132 3.77919 14.8752 3.52959 14.5087 3.6441L14.807 4.59858ZM15.7102 7.13566C16.1986 7.24278 16.1986 7.2428 16.1986 7.24281C16.1986 7.2428 16.1986 7.24279 16.1986 7.24277C16.1986 7.24273 16.1986 7.24264 16.1987 7.24251C16.1987 7.24225 16.1988 7.24182 16.1989 7.24123C16.1992 7.24004 16.1996 7.23819 16.2002 7.2357C16.2013 7.23071 16.203 7.22316 16.2052 7.21321C16.2096 7.19331 16.2163 7.16384 16.2249 7.12615C16.2421 7.05076 16.2673 6.94265 16.2987 6.81269C16.3615 6.55218 16.4488 6.20659 16.5471 5.86191C16.6464 5.51354 16.7528 5.18135 16.8527 4.94088C16.9037 4.818 16.9442 4.74076 16.9705 4.70137C16.9839 4.68127 16.9818 4.68913 16.9612 4.70706C16.9443 4.72184 16.8689 4.78377 16.7411 4.79274L16.6711 3.79519C16.496 3.80748 16.3715 3.89451 16.3039 3.95345C16.2327 4.01554 16.1786 4.0866 16.1389 4.14601C16.059 4.26566 15.9892 4.41271 15.9291 4.55749C15.8067 4.85232 15.6877 5.2289 15.5854 5.58763C15.4821 5.95005 15.3913 6.3099 15.3266 6.57806C15.2941 6.71244 15.2681 6.82447 15.2501 6.90313C15.2411 6.94247 15.2341 6.97351 15.2293 6.99486C15.2269 7.00553 15.2251 7.01379 15.2238 7.01946C15.2232 7.0223 15.2227 7.02448 15.2224 7.026C15.2222 7.02676 15.2221 7.02735 15.222 7.02778C15.2219 7.02799 15.2219 7.02816 15.2219 7.02828C15.2219 7.02835 15.2219 7.02841 15.2218 7.02844C15.2218 7.02849 15.2218 7.02853 15.7102 7.13566ZM16.7411 4.79274C16.5726 4.80456 16.4502 4.7254 16.388 4.66398C16.3345 4.61105 16.3134 4.56195 16.3103 4.55488C16.303 4.53812 16.3104 4.55011 16.3214 4.61715C16.3418 4.74066 16.3573 4.93965 16.3661 5.20631C16.3832 5.73247 16.3719 6.44577 16.3483 7.17086C16.3248 7.89341 16.2895 8.6178 16.2601 9.16221C16.2454 9.43424 16.2321 9.66094 16.2226 9.81952C16.2178 9.89881 16.2139 9.96104 16.2113 10.0034C16.2099 10.0245 16.2089 10.0407 16.2082 10.0516C16.2079 10.057 16.2076 10.0611 16.2074 10.0638C16.2074 10.0652 16.2073 10.0662 16.2072 10.0669C16.2072 10.0672 16.2072 10.0674 16.2072 10.0676C16.2072 10.0677 16.2072 10.0677 16.2072 10.0678C16.2072 10.0678 16.2072 10.0678 16.7061 10.1002C17.2051 10.1326 17.2051 10.1325 17.2051 10.1325C17.2051 10.1324 17.2051 10.1323 17.2051 10.1322C17.2051 10.132 17.2051 10.1317 17.2052 10.1314C17.2052 10.1306 17.2053 10.1295 17.2054 10.1281C17.2056 10.1252 17.2058 10.1209 17.2062 10.1153C17.2069 10.1041 17.208 10.0875 17.2093 10.066C17.212 10.0229 17.2159 9.95984 17.2208 9.87968C17.2304 9.71939 17.2438 9.49061 17.2586 9.21624C17.2883 8.66783 17.324 7.93569 17.3478 7.20336C17.3715 6.47358 17.3838 5.73366 17.3655 5.17366C17.3565 4.89723 17.3395 4.64489 17.3081 4.45451C17.2933 4.36459 17.2701 4.25399 17.2267 4.15471C17.2056 4.10638 17.1652 4.02604 17.0908 3.95259C17.0079 3.87065 16.8633 3.78171 16.6711 3.79519L16.7411 4.79274ZM16.4857 10.5489C16.807 10.7068 17.2112 10.7061 17.5318 10.6843C17.8718 10.6612 18.2519 10.6007 18.5617 10.5582C18.9001 10.5118 19.1406 10.4895 19.2883 10.5057C19.3631 10.5139 19.3448 10.5259 19.2992 10.4911C19.2219 10.4321 19.1926 10.3402 19.1941 10.2859L20.1937 10.3128C20.2002 10.0734 20.1051 9.84824 19.9059 9.69621C19.7384 9.56831 19.5421 9.52753 19.3973 9.51166C19.106 9.47971 18.7415 9.52421 18.4259 9.56746C18.0818 9.61463 17.7589 9.66656 17.464 9.6866C17.1497 9.70797 16.987 9.6811 16.9266 9.65141L16.4857 10.5489ZM19.1941 10.2859C19.196 10.2145 19.2214 10.1785 19.2158 10.1876C19.2116 10.1945 19.1943 10.2189 19.1521 10.2604C19.0673 10.3439 18.9295 10.4501 18.7386 10.5743C18.36 10.8205 17.8439 11.0919 17.3117 11.3481C16.7829 11.6027 16.2531 11.8354 15.8543 12.0048C15.6552 12.0894 15.4894 12.1579 15.3737 12.2052C15.3159 12.2288 15.2706 12.2472 15.2399 12.2595C15.2246 12.2656 15.2129 12.2703 15.2052 12.2734C15.2013 12.275 15.1984 12.2761 15.1965 12.2769C15.1956 12.2772 15.1949 12.2775 15.1945 12.2777C15.1943 12.2778 15.1941 12.2778 15.194 12.2779C15.194 12.2779 15.194 12.2779 15.194 12.2779C15.194 12.2779 15.194 12.2779 15.3782 12.7427C15.5625 13.2075 15.5626 13.2075 15.5626 13.2074C15.5627 13.2074 15.5628 13.2074 15.5628 13.2074C15.563 13.2073 15.5633 13.2072 15.5636 13.2071C15.5642 13.2068 15.565 13.2065 15.5662 13.206C15.5684 13.2051 15.5717 13.2038 15.5759 13.2021C15.5844 13.1987 15.5969 13.1938 15.613 13.1873C15.6453 13.1743 15.6923 13.1553 15.752 13.1309C15.8713 13.0822 16.0413 13.0119 16.2453 12.9252C16.6525 12.7522 17.1978 12.5128 17.7455 12.2491C18.2897 11.9871 18.8513 11.6939 19.2838 11.4126C19.4983 11.273 19.6995 11.1247 19.8534 10.9734C19.9306 10.8974 20.0076 10.8094 20.0685 10.71C20.128 10.6128 20.1893 10.4767 20.1937 10.3128L19.1941 10.2859ZM14.9822 12.4374C14.8875 12.5603 14.8048 12.6921 14.7353 12.8308L15.6294 13.2787C15.6702 13.1973 15.7187 13.12 15.7743 13.0479L14.9822 12.4374Z" fill="#263238" mask="url(#path-115-inside-29_3973_14)"/>
<mask id="path-117-inside-30_3973_14" fill="white">
<path d="M5.88922 36.2994L3.43262 28.3387L12.2067 11.7135L15.387 13.3767L9.77663 28.518L11.3469 33.574"/>
</mask>
<path d="M5.41145 36.4469C5.49288 36.7108 5.77279 36.8586 6.03666 36.7772C6.30052 36.6958 6.44842 36.4159 6.36699 36.152L5.41145 36.4469ZM3.43262 28.3387L2.99042 28.1054C2.92857 28.2226 2.91577 28.3595 2.95485 28.4862L3.43262 28.3387ZM12.2067 11.7135L12.4384 11.2704C12.1943 11.1428 11.893 11.2366 11.7645 11.4801L12.2067 11.7135ZM15.387 13.3767L15.8558 13.5504C15.9433 13.3144 15.8417 13.0502 15.6187 12.9336L15.387 13.3767ZM9.77663 28.518L9.30778 28.3443C9.26945 28.4477 9.26641 28.5609 9.29913 28.6663L9.77663 28.518ZM10.8694 33.7222C10.9513 33.986 11.2314 34.1334 11.4952 34.0515C11.7589 33.9696 11.9063 33.6894 11.8244 33.4257L10.8694 33.7222ZM6.36699 36.152L3.91039 28.1913L2.95485 28.4862L5.41145 36.4469L6.36699 36.152ZM3.87481 28.5721L12.6489 11.9469L11.7645 11.4801L2.99042 28.1054L3.87481 28.5721ZM11.975 12.1566L15.1553 13.8198L15.6187 12.9336L12.4384 11.2704L11.975 12.1566ZM14.9181 13.203L9.30778 28.3443L10.2455 28.6917L15.8558 13.5504L14.9181 13.203ZM9.29913 28.6663L10.8694 33.7222L11.8244 33.4257L10.2541 28.3697L9.29913 28.6663Z" fill="#263238" mask="url(#path-117-inside-30_3973_14)"/>
<mask id="path-119-inside-31_3973_14" fill="white">
<path d="M6.17319 27.0806C6.17319 27.0806 9.3203 27.054 9.7751 28.518C8.3965 28.4414 7.03085 28.8193 5.8877 29.5936"/>
</mask>
<path d="M6.16897 26.5806C5.89284 26.5829 5.67088 26.8087 5.67321 27.0848C5.67554 27.361 5.90128 27.5829 6.17741 27.5806L6.16897 26.5806ZM9.7751 28.518L9.74736 29.0173C9.91092 29.0264 10.0686 28.9548 10.1693 28.8256C10.2701 28.6965 10.3012 28.5261 10.2526 28.3697L9.7751 28.518ZM5.60728 29.1797C5.37865 29.3345 5.31886 29.6454 5.47373 29.874C5.6286 30.1027 5.93948 30.1625 6.16811 30.0076L5.60728 29.1797ZM6.17319 27.0806C6.17741 27.5806 6.17731 27.5806 6.17722 27.5806C6.17721 27.5806 6.17713 27.5806 6.1771 27.5806C6.17704 27.5806 6.17703 27.5806 6.17707 27.5806C6.17714 27.5806 6.1774 27.5806 6.17785 27.5806C6.17874 27.5806 6.18036 27.5806 6.1827 27.5806C6.18738 27.5806 6.19492 27.5806 6.20513 27.5806C6.22556 27.5808 6.25667 27.5812 6.29704 27.5822C6.37787 27.5841 6.49538 27.5885 6.63838 27.5982C6.92591 27.6176 7.30912 27.6578 7.70128 27.7397C8.09775 27.8226 8.47789 27.9431 8.77397 28.1108C9.07029 28.2787 9.23533 28.4659 9.29761 28.6664L10.2526 28.3697C10.0875 27.8382 9.68857 27.4797 9.2669 27.2408C8.84498 27.0017 8.35307 26.8544 7.90591 26.7609C7.45444 26.6665 7.02245 26.6218 6.70569 26.6005C6.54654 26.5897 6.41463 26.5848 6.32157 26.5825C6.275 26.5813 6.23805 26.5809 6.21216 26.5807C6.19921 26.5806 6.18902 26.5806 6.18177 26.5806C6.17814 26.5806 6.17524 26.5806 6.1731 26.5806C6.17203 26.5806 6.17115 26.5806 6.17046 26.5806C6.17012 26.5806 6.16982 26.5806 6.16957 26.5806C6.16945 26.5806 6.1693 26.5806 6.16924 26.5806C6.1691 26.5806 6.16897 26.5806 6.17319 27.0806ZM9.80285 28.0188C8.31496 27.9361 6.84105 28.3439 5.60728 29.1797L6.16811 30.0076C7.22064 29.2946 8.47804 28.9467 9.74736 29.0173L9.80285 28.0188Z" fill="#263238" mask="url(#path-119-inside-31_3973_14)"/>
<path d="M16.5732 30.0484V27.7412" stroke="#263238" stroke-width="0.5" stroke-linecap="round" stroke-linejoin="round"/>
<path opacity="0.2" d="M28.72 42.7201L29.5068 47.9553C29.5068 47.9553 30.1508 44.5393 30.5525 44.5393C30.9542 44.5393 30.5525 48.5429 30.5525 48.5429C30.5525 48.5429 37.1522 54.5184 40.0071 54.5516C40.0071 54.5516 38.4203 55.6671 36.8301 54.8371C35.24 54.0072 28.2686 48.5296 28.2686 48.5296L28.72 42.7201Z" fill="black"/>
<path opacity="0.2" d="M14.8211 13.0811L8.78582 27.741C8.78582 27.741 6.68443 27.7078 5.8877 29.5934L9.11448 29.0158L10.2 33.9954L11.3453 33.5605L9.7751 28.5045L15.3855 13.3632L14.8211 13.0811Z" fill="black"/>
</svg>
