<svg width="122" height="120" viewBox="0 0 122 120" fill="none" xmlns="http://www.w3.org/2000/svg">
<g opacity="0.1">
<path d="M49.1158 80.8339C56.7043 80.6899 64.0172 84.8003 71.399 86.0964C78.7807 87.3924 86.7605 87.5615 94.0515 85.9242C111.895 81.9202 123.629 68.5278 119.863 53.8801C116.867 42.2314 126.437 26.9857 117.221 15.6125C107.888 4.09526 96.3555 1.45622 82.4904 0.498277C69.6772 -0.387663 47.4754 -1.47083 39.7243 10.588C30.868 24.3623 52.0679 40.328 34.969 48.9745C21.3074 55.8617 6.49681 67.9643 14.4014 83.7923C22.7724 100.578 36.5937 81.0687 49.1158 80.8339Z" fill="#BA68C8"/>
<path opacity="0.9" d="M49.1158 80.8339C56.7043 80.6899 64.0172 84.8003 71.399 86.0964C78.7807 87.3924 86.7605 87.5615 94.0515 85.9242C111.895 81.9202 123.629 68.5278 119.863 53.8801C116.867 42.2314 126.437 26.9857 117.221 15.6125C107.888 4.09526 96.3555 1.45622 82.4904 0.498277C69.6772 -0.387663 47.4754 -1.47083 39.7243 10.588C30.868 24.3623 52.0679 40.328 34.969 48.9745C21.3074 55.8617 6.49681 67.9643 14.4014 83.7923C22.7724 100.578 36.5937 81.0687 49.1158 80.8339Z" fill="#405763"/>
</g>
<path d="M60.6978 120C94.2203 120 121.396 118.413 121.396 116.456C121.396 114.499 94.2203 112.912 60.6978 112.912C27.1754 112.912 0 114.499 0 116.456C0 118.413 27.1754 120 60.6978 120Z" fill="#1E1C1C"/>
<path d="M101.158 29.487C101.143 29.49 101.128 29.49 101.114 29.487C101.074 29.4753 101.04 29.4484 101.02 29.412C101 29.3756 100.996 29.3327 101.007 29.2929C103.809 19.9608 101.796 11.7619 95.6228 7.31968C89.9628 3.26565 82.2429 3.32826 76.4107 7.48247C59.9097 19.2313 47.2968 21.5072 34.2237 15.099C34.2052 15.09 34.1886 15.0774 34.175 15.062C34.1614 15.0465 34.1509 15.0286 34.1442 15.0091C34.1376 14.9896 34.1348 14.969 34.136 14.9485C34.1373 14.9279 34.1426 14.9078 34.1517 14.8893C34.1607 14.8708 34.1733 14.8543 34.1888 14.8406C34.2042 14.827 34.2222 14.8166 34.2416 14.8099C34.2611 14.8032 34.2817 14.8004 34.3023 14.8017C34.3228 14.8029 34.3429 14.8083 34.3614 14.8173C47.3156 21.1691 59.8345 18.887 76.2291 7.22577C82.1771 2.99642 90.0379 2.93381 95.8043 7.06611C102.094 11.5741 104.15 19.9013 101.308 29.3837C101.297 29.4144 101.276 29.4409 101.249 29.4595C101.222 29.478 101.19 29.4876 101.158 29.487Z" fill="#BA68C8"/>
<path d="M90.7982 77.459C87.6342 77.4442 84.518 76.6861 81.7009 75.2457C70.1179 69.4135 61.1082 69.6765 57.6365 75.947C57.6266 75.9651 57.6133 75.9811 57.5973 75.994C57.5813 76.007 57.5628 76.0167 57.543 76.0225C57.5233 76.0283 57.5025 76.0302 57.482 76.028C57.4615 76.0257 57.4417 76.0195 57.4236 76.0096C57.3876 75.9891 57.3609 75.9555 57.3493 75.9158C57.3376 75.8761 57.3418 75.8334 57.361 75.7967C60.9267 69.3603 70.0772 69.0504 81.8417 74.964C84.6544 76.4197 87.7794 77.1682 90.9463 77.1447C94.1132 77.1213 97.2268 76.3266 100.018 74.8294C106.933 71.2324 112.123 63.9789 113.241 56.3592C113.244 56.3389 113.251 56.3193 113.262 56.3017C113.272 56.284 113.286 56.2687 113.303 56.2565C113.319 56.2442 113.338 56.2354 113.358 56.2305C113.378 56.2256 113.399 56.2246 113.419 56.2277C113.46 56.2347 113.497 56.2572 113.521 56.2904C113.546 56.3237 113.556 56.3652 113.551 56.4062C112.418 64.1323 107.161 71.4734 100.162 75.1142C97.2757 76.6408 94.0629 77.4454 90.7982 77.459Z" fill="#BA68C8"/>
<path d="M110.224 59.1706H110.171C110.132 59.1564 110.1 59.1274 110.082 59.0898C110.065 59.0523 110.063 59.0092 110.077 58.9702C113.436 49.7383 108.643 46.0505 104.007 42.4817C99.624 39.1007 95.0691 35.5946 97.658 27.474C97.664 27.4542 97.674 27.4358 97.6873 27.42C97.7006 27.4042 97.7169 27.3912 97.7353 27.3819C97.7537 27.3725 97.7738 27.367 97.7945 27.3656C97.8151 27.3642 97.8357 27.367 97.8553 27.3738C97.8747 27.3798 97.8927 27.3897 97.9082 27.4027C97.9238 27.4158 97.9366 27.4318 97.9459 27.4499C97.9552 27.4679 97.9609 27.4877 97.9625 27.5079C97.9642 27.5282 97.9617 27.5486 97.9554 27.5679C95.4479 35.4819 99.6897 38.7439 104.213 42.225C108.937 45.8596 113.824 49.6193 110.387 59.0673C110.376 59.1008 110.354 59.1296 110.324 59.1485C110.294 59.1674 110.259 59.1752 110.224 59.1706Z" fill="#BA68C8"/>
<path opacity="0.1" d="M107.259 60.6763C104.97 68.4557 96.2424 74.4162 88.3472 72.5724C78.774 70.3215 73.7276 62.1633 75.4244 54.2337C77.1211 46.3041 85.9586 50.3769 93.8945 48.677C104.075 46.4825 109.535 52.8938 107.259 60.6763Z" fill="#BA68C8"/>
<path d="M61.6966 15.9723C61.7232 16.1848 61.686 16.4005 61.5898 16.5918C61.4935 16.7831 61.3426 16.9415 61.1561 17.0468C60.9696 17.1521 60.756 17.1996 60.5425 17.1833C60.3289 17.1669 60.1251 17.0874 59.9568 16.955C59.7885 16.8225 59.6635 16.6429 59.5975 16.4392C59.5315 16.2354 59.5276 16.0167 59.5862 15.8107C59.6448 15.6047 59.7634 15.4208 59.9268 15.2824C60.0902 15.1439 60.2911 15.0572 60.5039 15.0332C60.7863 15.0013 61.0698 15.082 61.2931 15.2578C61.5164 15.4336 61.6614 15.6904 61.6966 15.9723Z" fill="#263238"/>
<path d="M60.6236 17.3248C60.3856 17.3245 60.1527 17.2553 59.9531 17.1257C59.7535 16.996 59.5957 16.8114 59.4987 16.594C59.4017 16.3767 59.3696 16.1359 59.4064 15.9008C59.4432 15.6656 59.5472 15.4461 59.7059 15.2688C59.8647 15.0914 60.0713 14.9638 60.301 14.9012C60.5306 14.8387 60.7735 14.844 61.0002 14.9164C61.2269 14.9887 61.4279 15.1252 61.5788 15.3092C61.7297 15.4933 61.8242 15.7171 61.8507 15.9536C61.8827 16.2782 61.7867 16.6024 61.5832 16.8573C61.3798 17.1122 61.0849 17.2777 60.7613 17.3185C60.7156 17.3236 60.6696 17.3257 60.6236 17.3248ZM60.6236 15.1678H60.5234C60.3426 15.1881 60.1718 15.2615 60.0327 15.3788C59.8936 15.4961 59.7924 15.652 59.7418 15.8268C59.6913 16.0016 59.6937 16.1874 59.7487 16.3608C59.8037 16.5343 59.9089 16.6875 60.051 16.8012C60.1931 16.9148 60.3657 16.9838 60.547 16.9995C60.7282 17.0151 60.9101 16.9766 61.0695 16.8889C61.2289 16.8012 61.3588 16.6683 61.4427 16.5068C61.5266 16.3453 61.5607 16.1626 61.5408 15.9818C61.5108 15.7587 61.4017 15.5538 61.2334 15.4044C61.065 15.255 60.8486 15.1711 60.6236 15.1678Z" fill="#BA68C8"/>
<path d="M98.8909 27.3926C98.9176 27.6053 98.8804 27.8211 98.7841 28.0125C98.6877 28.204 98.5366 28.3624 98.35 28.4677C98.1633 28.573 97.9495 28.6204 97.7359 28.6039C97.5222 28.5873 97.3183 28.5076 97.1501 28.3748C96.9818 28.242 96.8569 28.0621 96.7913 27.8581C96.7256 27.6541 96.722 27.4352 96.7811 27.2292C96.8403 27.0232 96.9593 26.8394 97.1232 26.7013C97.287 26.5632 97.4883 26.4769 97.7013 26.4535C97.9832 26.4225 98.266 26.5036 98.4885 26.6794C98.7111 26.8551 98.8556 27.1113 98.8909 27.3926Z" fill="#263238"/>
<path d="M97.8047 28.7481C97.6059 28.7501 97.4095 28.7041 97.2323 28.6141C97.055 28.5241 96.9021 28.3926 96.7864 28.2309C96.6708 28.0692 96.5958 27.882 96.5679 27.6851C96.54 27.4883 96.56 27.2876 96.6261 27.1001C96.6923 26.9126 96.8027 26.7439 96.9479 26.6081C97.0932 26.4724 97.269 26.3737 97.4606 26.3203C97.6521 26.267 97.8537 26.2607 98.0482 26.3018C98.2427 26.3429 98.4244 26.4304 98.5779 26.5567C98.833 26.7627 98.9971 27.0606 99.035 27.3863C99.0693 27.7117 98.9749 28.0375 98.772 28.2942C98.5658 28.5401 98.2713 28.6953 97.9518 28.7262C97.9034 28.7371 97.8542 28.7444 97.8047 28.7481ZM97.8047 26.5911C97.7703 26.588 97.7357 26.588 97.7014 26.5911C97.5796 26.6024 97.4614 26.6382 97.3538 26.6963C97.2462 26.7544 97.1515 26.8336 97.0753 26.9292C96.9992 27.0239 96.9426 27.1326 96.9088 27.2492C96.8749 27.3658 96.8645 27.4879 96.878 27.6086C96.9094 27.8495 97.0329 28.0689 97.2226 28.2207C97.4124 28.3724 97.6535 28.4448 97.8955 28.4225C98.1409 28.3955 98.3658 28.2729 98.5216 28.0813C98.5973 27.9872 98.6534 27.8789 98.6868 27.7627C98.7201 27.6466 98.7299 27.525 98.7157 27.4051C98.6923 27.1793 98.5858 26.9702 98.4169 26.8186C98.2479 26.667 98.0285 26.5837 97.8015 26.5849L97.8047 26.5911Z" fill="#BA68C8"/>
<path d="M109.644 67.5447C109.67 67.7565 109.632 67.9713 109.536 68.1618C109.44 68.3522 109.289 68.5097 109.103 68.6143C108.917 68.7189 108.704 68.7659 108.491 68.7493C108.278 68.7326 108.075 68.6531 107.908 68.5209C107.74 68.3886 107.616 68.2096 107.55 68.0065C107.485 67.8034 107.481 67.5854 107.539 67.3801C107.598 67.1749 107.716 66.9917 107.879 66.8538C108.042 66.7158 108.242 66.6294 108.454 66.6055C108.736 66.5746 109.019 66.6557 109.241 66.8314C109.464 67.0071 109.609 67.2633 109.644 67.5447Z" fill="#263238"/>
<path d="M108.571 68.9065C108.333 68.9063 108.099 68.8369 107.899 68.7068C107.699 68.5767 107.54 68.3914 107.443 68.1733C107.346 67.9552 107.314 67.7137 107.351 67.4778C107.388 67.2419 107.493 67.0218 107.652 66.8441C107.812 66.6664 108.019 66.5386 108.25 66.4763C108.48 66.4139 108.724 66.4196 108.951 66.4927C109.178 66.5658 109.38 66.7032 109.531 66.8882C109.682 67.0732 109.776 67.2979 109.802 67.5353C109.82 67.6965 109.805 67.8596 109.76 68.0153C109.715 68.171 109.639 68.3163 109.538 68.4427C109.436 68.5692 109.311 68.6745 109.169 68.7524C109.027 68.8304 108.87 68.8795 108.709 68.8971C108.664 68.9034 108.617 68.9066 108.571 68.9065ZM108.571 66.7495C108.537 66.7466 108.502 66.7466 108.468 66.7495C108.288 66.7704 108.117 66.8443 107.978 66.9619C107.84 67.0795 107.739 67.2355 107.689 67.4103C107.639 67.585 107.642 67.7707 107.697 67.9439C107.752 68.1171 107.858 68.27 108 68.3834C108.142 68.4967 108.315 68.5655 108.496 68.5809C108.677 68.5963 108.859 68.5577 109.018 68.47C109.177 68.3823 109.307 68.2494 109.391 68.0881C109.474 67.9267 109.508 67.7442 109.489 67.5635C109.462 67.318 109.339 67.0931 109.147 66.9374C108.983 66.8122 108.781 66.746 108.575 66.7495H108.571Z" fill="#BA68C8"/>
<path d="M98.5993 67.3944C98.5002 67.5828 98.3474 67.7376 98.1604 67.8392C97.9733 67.9408 97.7603 67.9847 97.5483 67.9654C97.3363 67.946 97.1348 67.8643 96.9693 67.7305C96.8037 67.5966 96.6815 67.4168 96.6182 67.2135C96.5548 67.0103 96.5531 66.7928 96.6132 66.5886C96.6734 66.3844 96.7927 66.2026 96.9561 66.0662C97.1195 65.9298 97.3197 65.8449 97.5314 65.8222C97.7431 65.7995 97.9567 65.84 98.1453 65.9387C98.2714 66.0037 98.3834 66.0931 98.4746 66.2018C98.5659 66.3104 98.6346 66.4361 98.6768 66.5716C98.7191 66.707 98.734 66.8495 98.7206 66.9908C98.7073 67.132 98.6661 67.2692 98.5993 67.3944Z" fill="#263238"/>
<path d="M97.6387 68.1302C97.4393 68.1295 97.2429 68.0812 97.0658 67.9893C96.7788 67.8338 96.5639 67.5723 96.4668 67.2607C96.3697 66.949 96.3982 66.6117 96.5462 66.3207C96.701 66.0353 96.9618 65.8222 97.2724 65.7275C97.583 65.6328 97.9184 65.664 98.2061 65.8145C98.4939 65.9649 98.7109 66.2225 98.8103 66.5316C98.9097 66.8407 98.8836 67.1765 98.7375 67.4665C98.6313 67.666 98.4731 67.833 98.2797 67.9499C98.0862 68.0667 97.8647 68.129 97.6387 68.1302ZM97.6387 65.9732C97.4756 65.9732 97.3155 66.0164 97.1746 66.0986C97.0337 66.1808 96.9172 66.2989 96.837 66.4409C96.7568 66.5829 96.7157 66.7437 96.718 66.9068C96.7204 67.0699 96.766 67.2294 96.8502 67.369C96.9345 67.5087 97.0543 67.6234 97.1975 67.7016C97.3407 67.7797 97.502 67.8183 97.665 67.8136C97.8281 67.8089 97.9869 67.7609 98.1253 67.6746C98.2637 67.5883 98.3767 67.4668 98.4527 67.3225C98.564 67.1044 98.5857 66.8514 98.5132 66.6175C98.4407 66.3835 98.2797 66.1872 98.0645 66.0703C97.9316 66.0071 97.7858 65.976 97.6387 65.9795V65.9732Z" fill="#BA68C8"/>
<path d="M101.68 63.1213C101.651 63.1205 101.624 63.1094 101.602 63.09L95.2847 57.3862C95.2668 57.3643 95.2572 57.3367 95.2578 57.3083C95.2585 57.28 95.2692 57.2528 95.288 57.2317C95.3069 57.2105 95.3327 57.1968 95.3608 57.193C95.3889 57.1892 95.4174 57.1956 95.4412 57.2109L101.593 62.7645L102.441 56.062C102.443 56.0467 102.448 56.032 102.456 56.0187C102.463 56.0053 102.474 55.9937 102.486 55.9843C102.498 55.975 102.512 55.9682 102.527 55.9643C102.542 55.9605 102.557 55.9596 102.573 55.9618C102.588 55.9637 102.603 55.9687 102.616 55.9764C102.629 55.984 102.641 55.9943 102.65 56.0065C102.66 56.0188 102.666 56.0328 102.67 56.0477C102.674 56.0626 102.675 56.0781 102.673 56.0933L101.796 63.018C101.794 63.0392 101.786 63.0592 101.772 63.0759C101.759 63.0925 101.741 63.105 101.721 63.112C101.708 63.1183 101.694 63.1215 101.68 63.1213Z" fill="#263238"/>
<path d="M97.6387 67.0125C97.6228 67.0123 97.6071 67.009 97.5926 67.0025C97.578 66.996 97.565 66.9866 97.5542 66.9749C97.5326 66.9527 97.5205 66.9229 97.5205 66.8919C97.5205 66.861 97.5326 66.8312 97.5542 66.809L101.589 62.9177C101.612 62.8961 101.641 62.884 101.672 62.884C101.703 62.884 101.733 62.8961 101.755 62.9177C101.766 62.9285 101.775 62.9414 101.781 62.9557C101.787 62.9699 101.79 62.9852 101.79 63.0007C101.79 63.0162 101.787 63.0315 101.781 63.0457C101.775 63.06 101.766 63.0729 101.755 63.0837L97.7201 66.9749C97.7099 66.9864 97.6973 66.9957 97.6833 67.0021C97.6693 67.0086 97.6541 67.0121 97.6387 67.0125Z" fill="#263238"/>
<path d="M96.1956 57.7337C96.1116 57.9003 95.9798 58.0381 95.8171 58.1295C95.6544 58.2209 95.4682 58.2617 95.2822 58.2468C95.0962 58.232 94.9188 58.162 94.7727 58.0459C94.6266 57.9297 94.5185 57.7727 94.462 57.5949C94.4055 57.417 94.4033 57.2264 94.4557 57.0473C94.508 56.8681 94.6125 56.7087 94.7559 56.5892C94.8992 56.4697 95.0749 56.3957 95.2606 56.3765C95.4462 56.3573 95.6333 56.3939 95.7981 56.4815C96.0149 56.5968 96.1779 56.7924 96.2523 57.0265C96.3266 57.2605 96.3063 57.5144 96.1956 57.7337Z" fill="#BA68C8"/>
<path d="M103.146 56.3843C103.085 56.5007 102.991 56.5965 102.876 56.6595C102.761 56.7226 102.63 56.7501 102.499 56.7386C102.368 56.7271 102.244 56.6771 102.142 56.5948C102.039 56.5126 101.964 56.4019 101.924 56.2767C101.885 56.1515 101.883 56.0174 101.92 55.8914C101.957 55.7654 102.03 55.6532 102.131 55.5689C102.231 55.4845 102.355 55.4319 102.485 55.4177C102.616 55.4035 102.748 55.4283 102.864 55.489C102.941 55.5293 103.01 55.5844 103.066 55.6512C103.122 55.718 103.164 55.7951 103.19 55.8783C103.216 55.9614 103.226 56.0489 103.218 56.1357C103.211 56.2225 103.186 56.307 103.146 56.3843Z" fill="#263238"/>
<path d="M65.1908 43.1078C65.1958 42.8949 65.2638 42.6883 65.3863 42.514C65.5087 42.3398 65.6801 42.2058 65.8787 42.1289C66.0773 42.052 66.2942 42.0357 66.5021 42.0822C66.7099 42.1286 66.8993 42.2356 67.0464 42.3896C67.1934 42.5437 67.2915 42.7378 67.3282 42.9476C67.3649 43.1574 67.3386 43.3734 67.2525 43.5682C67.1665 43.763 67.0247 43.9279 66.8449 44.0421C66.6652 44.1563 66.4556 44.2147 66.2427 44.2098C66.1011 44.207 65.9615 44.1761 65.8319 44.1191C65.7023 44.0621 65.5852 43.9801 65.4875 43.8777C65.3897 43.7752 65.3132 43.6545 65.2623 43.5224C65.2113 43.3903 65.1871 43.2494 65.1908 43.1078Z" fill="#263238"/>
<path d="M66.2678 44.3789H66.2365C65.9113 44.3715 65.6022 44.2356 65.377 44.0009C65.1517 43.7663 65.0285 43.4519 65.0344 43.1267C65.0418 42.8012 65.1776 42.4918 65.4121 42.266C65.6467 42.0402 65.9611 41.9164 66.2866 41.9214C66.6035 41.9409 66.9008 42.0815 67.1169 42.3142C67.333 42.5469 67.4512 42.8538 67.4472 43.1713C67.4432 43.4888 67.3172 43.7926 67.0953 44.0198C66.8734 44.2469 66.5726 44.38 66.2553 44.3914L66.2678 44.3789ZM66.2678 42.2219C66.0275 42.2219 65.7966 42.3158 65.6246 42.4837C65.4526 42.6516 65.3532 42.8801 65.3474 43.1204C65.3424 43.364 65.4341 43.5996 65.6026 43.7757C65.771 43.9517 66.0023 44.0538 66.2459 44.0596C66.367 44.0643 66.4877 44.0443 66.6008 44.0007C66.7138 43.9571 66.8168 43.8908 66.9033 43.806C67.0361 43.6797 67.1282 43.5166 67.1677 43.3376C67.2072 43.1586 67.1924 42.9719 67.1251 42.8014C67.0579 42.6309 66.9412 42.4844 66.7902 42.3806C66.6391 42.2768 66.4605 42.2205 66.2772 42.2188L66.2678 42.2219Z" fill="#BA68C8"/>
<path d="M62.2889 43.1267C62.2599 43.1269 62.2318 43.1165 62.2099 43.0975C62.188 43.0785 62.1738 43.0521 62.17 43.0233L61.81 39.7676C61.8068 39.7521 61.8068 39.7361 61.81 39.7206L63.0622 35.3692C63.0727 35.3422 63.0931 35.3201 63.1192 35.3073C63.1453 35.2945 63.1752 35.2921 63.203 35.3003C63.2333 35.3091 63.2589 35.3295 63.2742 35.3571C63.2894 35.3846 63.2931 35.4172 63.2844 35.4475L62.051 39.777L62.411 43.0077C62.4138 43.0386 62.4046 43.0695 62.3854 43.0939C62.3662 43.1183 62.3384 43.1345 62.3077 43.1392L62.2889 43.1267Z" fill="#263238"/>
<path d="M66.2678 43.2518C66.2417 43.2512 66.2166 43.2424 66.1958 43.2268L61.8537 39.8427C61.8294 39.823 61.8138 39.7946 61.8103 39.7636C61.8068 39.7325 61.8157 39.7013 61.8349 39.6768C61.8444 39.6648 61.8561 39.6549 61.8694 39.6475C61.8827 39.6401 61.8973 39.6354 61.9124 39.6336C61.9276 39.6319 61.9429 39.6331 61.9575 39.6373C61.9721 39.6415 61.9858 39.6485 61.9977 39.658L66.3335 43.0421C66.3574 43.0612 66.373 43.0888 66.3771 43.1191C66.3812 43.1494 66.3734 43.1801 66.3554 43.2049C66.3451 43.2186 66.3319 43.2298 66.3167 43.2379C66.3016 43.2461 66.2849 43.2508 66.2678 43.2518Z" fill="#263238"/>
<path d="M62.2258 35.3754C62.2302 35.1897 62.2896 35.0095 62.3964 34.8575C62.5031 34.7056 62.6526 34.5887 62.8258 34.5217C62.999 34.4546 63.1882 34.4405 63.3695 34.481C63.5507 34.5214 63.7159 34.6148 63.8441 34.7491C63.9724 34.8835 64.0579 35.0528 64.0899 35.2358C64.1219 35.4187 64.0989 35.6071 64.0238 35.777C63.9488 35.9469 63.8251 36.0907 63.6683 36.1903C63.5115 36.2899 63.3288 36.3407 63.1431 36.3364C63.0197 36.3336 62.8982 36.3065 62.7853 36.2566C62.6725 36.2068 62.5705 36.1352 62.4853 36.0459C62.4002 35.9567 62.3334 35.8515 62.2889 35.7365C62.2444 35.6214 62.2229 35.4987 62.2258 35.3754Z" fill="#BA68C8"/>
<path d="M61.6378 42.9889C61.6404 42.8568 61.6821 42.7284 61.7577 42.62C61.8333 42.5117 61.9394 42.4282 62.0625 42.3803C62.1857 42.3323 62.3203 42.3221 62.4492 42.3507C62.5782 42.3794 62.6958 42.4458 62.787 42.5414C62.8782 42.637 62.9389 42.7575 62.9615 42.8877C62.9841 43.0179 62.9675 43.1519 62.9138 43.2726C62.8601 43.3933 62.7717 43.4954 62.6599 43.5658C62.5481 43.6363 62.4179 43.6719 62.2858 43.6682C62.1101 43.6633 61.9434 43.5891 61.822 43.4619C61.7006 43.3347 61.6344 43.1647 61.6378 42.9889Z" fill="#263238"/>
<path d="M93.1526 38.7689L95.5068 44.0908C95.5383 44.1629 95.5552 44.2405 95.5564 44.3192C95.5577 44.3978 95.5434 44.476 95.5143 44.549C95.4852 44.6221 95.4418 44.6887 95.3868 44.7449C95.3318 44.8011 95.2662 44.8459 95.1937 44.8766C95.0479 44.9385 94.8836 44.9403 94.7365 44.8817C94.5893 44.823 94.4713 44.7087 94.408 44.5635L92.0507 39.2416C91.9888 39.0958 91.987 38.9315 92.0456 38.7844C92.1042 38.6372 92.2186 38.5192 92.3637 38.4559C92.5099 38.393 92.675 38.3907 92.8229 38.4494C92.9708 38.508 93.0893 38.623 93.1526 38.7689Z" fill="#BA68C8"/>
<path d="M77.7753 69.4731L85.8177 68.9096C85.9135 68.9036 86.0078 68.9358 86.08 68.9992C86.1522 69.0626 86.1963 69.1519 86.2027 69.2478C86.2088 69.3431 86.177 69.437 86.1143 69.509C86.0516 69.5811 85.963 69.6256 85.8678 69.6328L77.8254 70.1963C77.7779 70.1997 77.7301 70.1936 77.685 70.1784C77.6398 70.1632 77.5981 70.1392 77.5622 70.1077C77.5264 70.0763 77.4972 70.038 77.4763 69.9952C77.4554 69.9524 77.4432 69.9058 77.4404 69.8582C77.437 69.8109 77.443 69.7634 77.458 69.7184C77.473 69.6734 77.4967 69.6318 77.5278 69.5961C77.559 69.5603 77.5969 69.531 77.6393 69.5099C77.6818 69.4888 77.728 69.4763 77.7753 69.4731Z" fill="#263238"/>
<path d="M63.8604 25.3421L71.621 27.5335C71.6668 27.5464 71.7095 27.5683 71.7467 27.5979C71.784 27.6275 71.815 27.6641 71.838 27.7058C71.861 27.7474 71.8755 27.7932 71.8807 27.8404C71.8859 27.8877 71.8817 27.9355 71.8683 27.9811C71.8421 28.073 71.7807 28.1507 71.6975 28.1976C71.6143 28.2445 71.516 28.2567 71.4238 28.2316L63.6632 26.0402C63.6175 26.0272 63.5747 26.0053 63.5375 25.9758C63.5003 25.9462 63.4693 25.9096 63.4463 25.8679C63.4233 25.8263 63.4087 25.7805 63.4035 25.7333C63.3983 25.686 63.4025 25.6382 63.4159 25.5925C63.4422 25.5007 63.5036 25.423 63.5868 25.3761C63.67 25.3292 63.7683 25.317 63.8604 25.3421Z" fill="#263238"/>
<path d="M58.0717 20.8999L54.002 23.4982C53.8918 23.5677 53.7587 23.5908 53.6315 23.5627C53.5043 23.5346 53.3933 23.4574 53.3227 23.3479C53.2523 23.2375 53.2285 23.1036 53.2567 22.9756C53.2849 22.8477 53.3626 22.7361 53.473 22.6655L57.5427 20.0671C57.6537 19.9978 57.7876 19.975 57.9154 20.0038C58.0431 20.0325 58.1544 20.1104 58.2251 20.2205C58.2598 20.2752 58.2833 20.3361 58.2943 20.3999C58.3054 20.4636 58.3037 20.5289 58.2895 20.5921C58.2752 20.6552 58.2487 20.7149 58.2113 20.7677C58.1739 20.8205 58.1265 20.8654 58.0717 20.8999Z" fill="#BA68C8"/>
<path d="M79.1466 39.7268C79.1212 39.7265 79.0967 39.7182 79.0764 39.703C79.0561 39.6878 79.0412 39.6665 79.0339 39.6422C79.0262 39.6119 79.0308 39.5799 79.0466 39.5529C79.0625 39.526 79.0882 39.5063 79.1184 39.4982L84.5029 38.0488C84.5322 38.0436 84.5623 38.0495 84.5874 38.0653C84.6125 38.0812 84.6308 38.1058 84.6386 38.1345C84.6465 38.1631 84.6433 38.1936 84.6298 38.2201C84.6163 38.2465 84.5933 38.2669 84.5655 38.2773L79.1685 39.7236L79.1466 39.7268Z" fill="#263238"/>
<path d="M84.1778 38.3588C84.1394 38.2903 84.1221 38.2121 84.1281 38.1338C84.1341 38.0556 84.1631 37.9809 84.2115 37.9191C84.2599 37.8573 84.3255 37.8113 84.4 37.7867C84.4745 37.7621 84.5546 37.7601 84.6303 37.781C84.7059 37.8018 84.7737 37.8446 84.825 37.9039C84.8764 37.9632 84.9091 38.0364 84.919 38.1143C84.9288 38.1921 84.9154 38.2711 84.8805 38.3414C84.8455 38.4116 84.7905 38.47 84.7225 38.509C84.677 38.5356 84.6267 38.5528 84.5745 38.5597C84.5223 38.5665 84.4692 38.5628 84.4184 38.5488C84.3677 38.5348 84.3202 38.5108 84.2789 38.4781C84.2376 38.4455 84.2032 38.4049 84.1778 38.3588Z" fill="#BA68C8"/>
<path d="M78.7989 39.8083C78.7472 39.7157 78.7343 39.6064 78.7631 39.5042C78.7918 39.4021 78.8599 39.3156 78.9523 39.2636C78.9977 39.2375 79.0477 39.2207 79.0996 39.2141C79.1515 39.2076 79.2042 39.2114 79.2546 39.2254C79.305 39.2393 79.3521 39.2632 79.3932 39.2956C79.4343 39.3279 79.4685 39.3681 79.4939 39.4139C79.5247 39.4596 79.5457 39.5113 79.5556 39.5656C79.5655 39.6199 79.5641 39.6756 79.5515 39.7293C79.5388 39.783 79.5152 39.8336 79.4821 39.8777C79.449 39.9219 79.4072 39.9587 79.3592 39.986C79.3112 40.0132 79.2581 40.0302 79.2032 40.036C79.1484 40.0418 79.0929 40.0361 79.0403 40.0194C78.9877 40.0028 78.9391 39.9754 78.8976 39.9391C78.856 39.9027 78.8225 39.8582 78.7989 39.8083Z" fill="#BA68C8"/>
<path d="M88.0555 52.3242C88.1064 52.1988 88.1172 52.0607 88.0863 51.929C88.0555 51.7972 87.9846 51.6783 87.8833 51.5885L78.4228 44.0157C78.3798 43.9776 78.328 43.9507 78.2721 43.9375C78.2161 43.9242 78.1578 43.9251 78.1022 43.94C78.0467 43.9549 77.9957 43.9834 77.9539 44.0228C77.912 44.0622 77.8806 44.1114 77.8625 44.166L74.8478 51.0532L68.8372 55.5705C68.7875 55.6002 68.746 55.6419 68.7165 55.6917C68.687 55.7415 68.6704 55.7979 68.6682 55.8557C68.666 55.9136 68.6783 55.971 68.704 56.0229C68.7297 56.0748 68.7679 56.1194 68.8152 56.1528L78.2757 63.7256C78.3854 63.8036 78.5167 63.8456 78.6514 63.8456C78.786 63.8456 78.9173 63.8036 79.027 63.7256L85.0533 59.1988L88.0555 52.3242Z" fill="#BA68C8"/>
<path d="M84.7496 58.9672L74.5566 50.809L77.5745 43.9218C77.5922 43.8673 77.6232 43.8181 77.6647 43.7786C77.7063 43.7391 77.757 43.7106 77.8124 43.6957C77.8677 43.6807 77.9259 43.6799 77.9817 43.6931C78.0374 43.7064 78.089 43.7333 78.1317 43.7716L87.5953 51.3443C87.696 51.4345 87.7663 51.5536 87.7966 51.6853C87.8269 51.8171 87.8156 51.9549 87.7643 52.08L84.7496 58.9672Z" fill="#BA68C8"/>
<path d="M84.5151 58.0687C84.4976 58.0686 84.4808 58.0619 84.4681 58.0499L75.3207 50.7308C75.2911 50.7003 75.2707 50.6621 75.2618 50.6206C75.2529 50.579 75.256 50.5358 75.2706 50.496L77.9159 44.4384C77.921 44.4273 77.9284 44.4174 77.9376 44.4093C77.9467 44.4012 77.9575 44.3951 77.9691 44.3914C77.9811 44.3891 77.9933 44.3893 78.0052 44.392C78.0171 44.3947 78.0282 44.3998 78.038 44.4071L87.1823 51.7263C87.2129 51.7561 87.234 51.7943 87.2429 51.8361C87.2519 51.8779 87.2482 51.9214 87.2324 51.9611L84.5745 58.0218C84.5698 58.0328 84.5625 58.0425 84.5533 58.0501C84.544 58.0578 84.5331 58.0631 84.5213 58.0656L84.5151 58.0687ZM75.4365 50.6118L84.49 57.8652L87.104 51.8922C87.1085 51.8747 87.1085 51.8564 87.104 51.839L78.0411 44.5887L75.4115 50.5586C75.4055 50.5758 75.4055 50.5946 75.4115 50.6118H75.4365Z" fill="#263238"/>
<path d="M84.7496 58.9671L74.5566 50.809L68.5241 55.3357C68.475 55.3659 68.4342 55.4078 68.4052 55.4575C68.3761 55.5073 68.3598 55.5634 68.3577 55.621C68.3555 55.6786 68.3676 55.7358 68.3928 55.7876C68.418 55.8394 68.4555 55.8842 68.5021 55.918L77.9657 63.4907C78.0753 63.5692 78.2066 63.6115 78.3414 63.6115C78.4762 63.6115 78.6075 63.5692 78.7171 63.4907L84.7496 58.9671Z" fill="#BA68C8"/>
<path opacity="0.3" d="M71.6546 54.0836L74.0996 52.2491C74.2175 52.1638 74.3594 52.1179 74.505 52.1179C74.6506 52.1179 74.7924 52.1638 74.9104 52.2491L82.8932 58.6354C82.9429 58.6721 82.9829 58.7205 83.0096 58.7762C83.0363 58.8319 83.049 58.8933 83.0465 58.955C83.044 59.0168 83.0265 59.077 82.9954 59.1304C82.9643 59.1838 82.9207 59.2288 82.8682 59.2615L80.4264 61.096C80.3076 61.1806 80.1653 61.2261 80.0194 61.2261C79.8735 61.2261 79.7313 61.1806 79.6125 61.096L71.6327 54.7097C71.5842 54.6723 71.5452 54.6239 71.5191 54.5685C71.493 54.5131 71.4805 54.4522 71.4827 54.391C71.4848 54.3298 71.5015 54.2699 71.5314 54.2165C71.5614 54.163 71.6036 54.1174 71.6546 54.0836Z" fill="#263238"/>
<path opacity="0.3" d="M72.0927 57.7495L73.3262 56.8103C73.3795 56.7719 73.4436 56.7512 73.5093 56.7512C73.5751 56.7512 73.6391 56.7719 73.6925 56.8103L76.9764 59.4494C76.9996 59.4651 77.0186 59.4864 77.0318 59.5112C77.0449 59.536 77.0518 59.5637 77.0518 59.5918C77.0518 59.6199 77.0449 59.6476 77.0318 59.6724C77.0186 59.6972 76.9996 59.7185 76.9764 59.7342L75.7242 60.6577C75.6708 60.6962 75.6068 60.7169 75.541 60.7169C75.4753 60.7169 75.4112 60.6962 75.3579 60.6577L72.0802 58.0344C72.0576 58.0176 72.0395 57.9955 72.0274 57.9701C72.0153 57.9447 72.0097 57.9167 72.0109 57.8886C72.0121 57.8605 72.0202 57.8331 72.0345 57.8089C72.0488 57.7846 72.0688 57.7642 72.0927 57.7495Z" fill="#263238"/>
<path opacity="0.4" d="M94.8217 22.1115C95.2798 20.4819 95.3176 18.7627 94.9313 17.1146C94.5451 15.4664 93.7475 13.943 92.613 12.6866C91.4786 11.4302 90.0442 10.4818 88.4439 9.92988C86.8436 9.37798 85.1296 9.24061 83.4618 9.53059C81.794 9.82057 80.2269 10.5285 78.9068 11.5881C77.5867 12.6478 76.5567 14.0248 75.9129 15.5904C75.2691 17.1559 75.0326 18.8592 75.2253 20.5409C75.4181 22.2227 76.0339 23.8282 77.0152 25.2076C77.3674 25.6892 77.608 26.2431 77.7196 26.8292C77.8475 27.5414 78.1725 28.2035 78.6578 28.7403C79.1432 29.2771 79.7693 29.667 80.4651 29.8658L83.6551 30.7705C84.3516 30.969 85.0898 30.9677 85.7856 30.7668C86.4814 30.5659 87.1067 30.1734 87.5901 29.6341C87.9872 29.1959 88.4785 28.8533 89.0271 28.6324C90.4221 28.0527 91.668 27.165 92.6714 26.0358C93.6749 24.9066 94.41 23.565 94.8217 22.1115Z" fill="#BA68C8"/>
<path d="M84.0687 33.253L78.8281 31.7629C78.6385 31.7082 78.4781 31.5808 78.3819 31.4084C78.2857 31.236 78.2616 31.0326 78.3147 30.8425C78.342 30.7467 78.3881 30.6573 78.4503 30.5795C78.5125 30.5017 78.5895 30.437 78.6769 30.3893C78.7643 30.3415 78.8603 30.3116 78.9593 30.3012C79.0584 30.2909 79.1585 30.3004 79.2539 30.3291L84.4913 31.8192C84.681 31.8739 84.8414 32.0013 84.9375 32.1737C85.0337 32.3461 85.0578 32.5495 85.0047 32.7396C84.9777 32.8353 84.932 32.9246 84.8701 33.0024C84.8082 33.0802 84.7315 33.1448 84.6444 33.1926C84.5572 33.2404 84.4614 33.2704 84.3626 33.2807C84.2637 33.2911 84.1638 33.2817 84.0687 33.253Z" fill="#BA68C8"/>
<path d="M82.9662 35.1908L78.7462 33.9918C78.5563 33.9365 78.3958 33.8085 78.2997 33.6356C78.2036 33.4627 78.1796 33.2588 78.2328 33.0683C78.2875 32.8786 78.4149 32.7182 78.5872 32.6221C78.7596 32.5259 78.9631 32.5018 79.1532 32.5549L83.3731 33.757C83.5628 33.8117 83.7232 33.9391 83.8194 34.1115C83.9155 34.2839 83.9397 34.4873 83.8865 34.6774C83.8319 34.8671 83.7045 35.0275 83.5321 35.1237C83.3597 35.2198 83.1563 35.244 82.9662 35.1908Z" fill="#BA68C8"/>
<path d="M83.667 30.9176H83.6388C83.598 30.91 83.5618 30.8867 83.5379 30.8528C83.5139 30.8189 83.5041 30.777 83.5105 30.736C83.5606 30.423 84.3776 25.6145 85.9304 21.9862C85.4984 21.9048 85.0319 21.7952 84.531 21.6544C84.0302 21.5135 83.5731 21.3601 83.163 21.2004C82.5776 25.1011 80.7368 29.6247 80.621 29.9158C80.6052 29.9544 80.5748 29.9852 80.5363 30.0013C80.4979 30.0175 80.4546 30.0177 80.416 30.0019C80.3773 29.9861 80.3466 29.9557 80.3304 29.9172C80.3143 29.8788 80.3141 29.8355 80.3299 29.7969C80.358 29.7249 82.2739 25.0134 82.8625 21.0783C79.8227 19.8261 79.3719 18.1857 79.3312 17.4751C79.2975 17.0828 79.3862 16.6896 79.5853 16.3499C79.7843 16.0101 80.0838 15.7404 80.4426 15.578C81.1563 15.2837 81.9484 15.5216 82.5619 16.2041C83.3884 17.1433 83.4729 18.9089 83.21 20.8811C83.6263 21.047 84.0959 21.1942 84.6156 21.3538C85.1352 21.5135 85.6173 21.6105 86.0619 21.6919C86.8758 19.8762 87.8807 18.4111 89.0734 18.0542C89.9594 17.7882 90.7577 18.0042 91.2085 18.6271C91.4257 18.9538 91.5368 19.3396 91.5267 19.7317C91.5166 20.1239 91.3858 20.5034 91.1521 20.8185C90.742 21.4039 89.5023 22.5497 86.2497 22.0269C84.6844 25.6833 83.8329 30.6953 83.8204 30.7736C83.818 30.8126 83.8008 30.8493 83.7723 30.876C83.7438 30.9028 83.7061 30.9177 83.667 30.9176ZM86.3812 21.7451C89.4961 22.2147 90.6043 21.0689 90.8954 20.6557C91.0953 20.3925 91.2085 20.0736 91.2191 19.7433C91.2298 19.4129 91.1374 19.0874 90.9549 18.8118C90.5855 18.2984 89.9156 18.1262 89.1611 18.3548C88.0811 18.6866 87.1482 20.0453 86.3687 21.7545L86.3812 21.7451ZM81.0468 15.769C80.8771 15.7688 80.7091 15.8018 80.5521 15.866C80.252 16.0045 80.0022 16.2329 79.8374 16.5194C79.6725 16.8059 79.6007 17.1366 79.6318 17.4657C79.6631 17.9728 80.0012 19.5287 82.9 20.7653C83.1442 18.9089 83.066 17.2654 82.3178 16.4201C82.1641 16.2277 81.9714 16.0702 81.7522 15.9579C81.5331 15.8457 81.2927 15.7812 81.0468 15.769Z" fill="#263238"/>
<path opacity="0.3" d="M56.9663 68.8256C65.4161 64.6292 65.5837 47.7717 57.3405 31.1732C49.0973 14.5747 35.565 4.52082 27.1152 8.71718C18.6654 12.9135 18.4978 29.7711 26.741 46.3696C34.9842 62.9681 48.5165 73.022 56.9663 68.8256Z" fill="#BA68C8"/>
<path d="M34.6895 113.742L37.3396 113.699L37.9484 107.554L35.2983 107.593L34.6895 113.742Z" fill="white"/>
<path d="M16.8828 108.904L19.4076 109.706L22.2547 104.173L19.7299 103.371L16.8828 108.904Z" fill="white"/>
<path opacity="0.2" d="M37.9487 107.554L37.6335 110.723L34.9834 110.766L35.2986 107.597L37.9487 107.554Z" fill="black"/>
<path opacity="0.2" d="M19.7261 103.371L22.2545 104.173L20.7862 107.024L18.2578 106.225L19.7261 103.371Z" fill="black"/>
<path d="M38.6182 110.097L34.1309 110.165C34.1309 110.165 35.9215 92.7349 36.4837 84.498C36.6314 81.212 36.5931 77.9204 36.3691 74.6388C36.1005 69.8327 35.9286 67.9096 35.5669 61.8358C35.3091 57.5025 34.9939 54.6984 34.9939 54.6984L44.2801 55.4612C44.2801 55.4612 44.6383 76.4867 43.5925 84.5051C42.4967 92.8423 38.6182 110.097 38.6182 110.097Z" fill="#BA68C8"/>
<path opacity="0.2" d="M37.5475 60.5213C38.7114 64.8475 37.5833 74.5276 36.491 77.1598C36.4588 76.3361 36.4158 75.4945 36.3693 74.6529C36.1007 69.8469 35.9252 67.9238 35.5635 61.85C35.5635 61.7282 35.5635 61.61 35.5635 61.4918C36.1641 61.0566 36.8352 60.7283 37.5475 60.5213Z" fill="black"/>
<path d="M39.2688 55.0491C39.2688 55.0491 34.9713 76.6513 32.8226 84.111C30.4732 92.2834 22.1397 106.813 22.1397 106.813L17.5127 105.348C17.5127 105.348 22.8416 93.0462 24.8077 84.9956C27.0496 75.8204 30.1509 54.3007 30.1509 54.3007L39.2688 55.0491Z" fill="#BA68C8"/>
<path d="M19.9456 109.531L17.0232 108.156C16.9754 108.133 16.9213 108.128 16.8698 108.14C16.8184 108.153 16.7727 108.182 16.7403 108.224L15.2684 110.133C15.2324 110.179 15.2075 110.234 15.1956 110.292C15.1836 110.349 15.1849 110.409 15.1994 110.466C15.2139 110.524 15.2412 110.577 15.2792 110.622C15.3172 110.667 15.3649 110.703 15.4188 110.727C16.3679 111.15 17.077 111.418 18.2624 111.973C18.9786 112.332 20.6833 113.184 21.6896 113.657C22.696 114.129 23.2797 113.22 22.9252 112.912C21.3458 111.544 20.6081 110.67 20.2679 109.86C20.205 109.715 20.0901 109.597 19.9456 109.531Z" fill="#263238"/>
<path d="M37.3178 113.391L34.4241 113.438C34.3713 113.439 34.3204 113.458 34.28 113.492C34.2395 113.525 34.212 113.572 34.2021 113.624L33.7151 115.984C33.7025 116.041 33.7031 116.1 33.7169 116.157C33.7306 116.214 33.7572 116.267 33.7945 116.312C33.8318 116.357 33.8789 116.392 33.9322 116.416C33.9854 116.44 34.0435 116.452 34.1018 116.45C35.1476 116.418 36.6517 116.332 37.966 116.31C39.4988 116.289 39.6743 116.35 41.4721 116.31C42.5464 116.31 42.8437 115.189 42.3889 115.096C40.3081 114.677 39.7674 114.656 37.9588 113.578C37.7659 113.459 37.5444 113.395 37.3178 113.391Z" fill="#263238"/>
<path d="M32.5473 30.9333C35.8763 30.6895 39.2218 30.8095 42.5247 31.2914C43.5079 31.4478 44.4087 31.934 45.079 32.67C45.7493 33.4061 46.1494 34.3483 46.2134 35.3418C46.439 38.8335 46.3602 45.6952 44.7164 58.5662C42.6751 59.4615 33.765 58.5984 29.3887 57.2232C29.625 55.7514 31.011 43.8759 29.9939 33.9451C29.9591 33.5788 29.9979 33.2092 30.1082 32.8581C30.2184 32.507 30.3978 32.1816 30.6357 31.9009C30.8737 31.6202 31.1654 31.39 31.4937 31.2238C31.822 31.0576 32.1803 30.9588 32.5473 30.9333Z" fill="#263238"/>
<path d="M33.2827 35.6889L32.7383 36.8027C32.5593 37.1847 32.3838 37.5715 32.2119 37.963C31.8538 38.7402 31.5493 39.5245 31.2449 40.3123C30.9405 41.1002 30.6791 41.8953 30.4392 42.6867C30.2118 43.4691 30.0253 44.2629 29.8805 45.0647L29.5224 43.8435C29.8283 44.2446 30.2383 44.5542 30.7078 44.7388C31.3096 44.9784 31.9428 45.1304 32.5879 45.19C33.3015 45.2658 34.0199 45.2862 34.7367 45.2509C35.4774 45.2225 36.2161 45.1556 36.9499 45.0503H37.0036C37.2178 45.0208 37.4355 45.0701 37.616 45.1891C37.7966 45.3081 37.9278 45.4886 37.9852 45.6971C38.0425 45.9056 38.0222 46.1278 37.9279 46.3224C37.8337 46.5171 37.6719 46.6708 37.4727 46.755C37.0537 46.9341 36.6777 47.0666 36.273 47.1955C35.8683 47.3244 35.4708 47.439 35.059 47.5321C34.22 47.7327 33.3638 47.8526 32.502 47.8903C31.5675 47.9365 30.6316 47.8326 29.7301 47.5823C28.6829 47.2961 27.7405 46.7142 27.0155 45.9063C26.8814 45.7522 26.7804 45.5723 26.7188 45.3776C26.6572 45.1829 26.6363 44.9777 26.6573 44.7746V44.685C26.7493 43.7211 26.9036 42.7641 27.1193 41.82C27.3378 40.8997 27.5921 39.9936 27.8929 39.1126C28.1937 38.2316 28.5268 37.3614 28.8956 36.5126C29.0819 36.0865 29.2717 35.6675 29.4722 35.2484C29.6728 34.8294 29.8733 34.4248 30.1204 33.9807C30.3511 33.5837 30.7253 33.2906 31.166 33.1617C31.6066 33.0328 32.0799 33.0781 32.488 33.2881C32.8962 33.4982 33.2082 33.857 33.3594 34.2905C33.5106 34.7239 33.4895 35.1989 33.3006 35.6173L33.2827 35.6889Z" fill="white"/>
<path d="M36.0742 45.2294L37.5067 43.6214L39.8524 45.7702C39.8524 45.7702 38.2588 47.5393 36.5684 46.6117L36.0742 45.2294Z" fill="white"/>
<path d="M39.8457 43.0019L40.7876 43.9867C40.8645 44.0677 40.9233 44.1641 40.9599 44.2696C40.9965 44.3751 41.0102 44.4872 41.0001 44.5984C40.9899 44.7096 40.9561 44.8174 40.9009 44.9145C40.8457 45.0116 40.7705 45.0957 40.6801 45.1614L39.8457 45.7666L37.5 43.6179L38.9039 42.8515C39.0557 42.7701 39.23 42.7408 39.4001 42.768C39.5702 42.7951 39.7268 42.8773 39.8457 43.0019Z" fill="white"/>
<path d="M31.2731 31.3488C29.1243 32.6667 26.9756 39.6608 26.9756 39.6608L32.634 41.738C33.6818 40.0774 34.4681 38.2656 34.9654 36.3661C35.8213 33.1251 33.6475 29.8983 31.2731 31.3488Z" fill="#263238"/>
<path d="M43.4528 31.4561C43.4062 31.4561 43.5172 31.4561 43.5709 31.4561L43.7894 31.474C43.947 31.474 44.1045 31.4955 44.2729 31.4955C44.6059 31.4955 44.9533 31.4955 45.3007 31.4955C46.0169 31.474 46.7332 31.3952 47.4494 31.3092C47.8076 31.2627 48.1657 31.209 48.5238 31.1409C48.8819 31.0729 49.2401 31.0084 49.6197 30.9404L50.7227 30.6968C50.6958 30.5089 50.6668 30.3132 50.6332 30.0773C50.5653 29.6316 50.4862 28.6314 50.4219 27.95C50.3073 27.2338 50.1581 26.5032 49.9742 25.7583C49.7987 25.042 49.5767 24.2757 49.3726 23.5845L49.3511 23.52C49.2817 23.2773 49.3 23.0179 49.4028 22.7873C49.5055 22.5568 49.6862 22.3697 49.9131 22.2591C50.14 22.1484 50.3986 22.1212 50.6435 22.1821C50.8885 22.2431 51.1042 22.3884 51.2527 22.5925C51.7406 23.2912 52.1763 24.025 52.5563 24.7878C52.9397 25.5505 53.2723 26.3377 53.5519 27.1442C53.8424 27.9767 54.0628 28.8321 54.2108 29.7013C54.3703 30.6257 54.4172 31.5661 54.3505 32.5018C54.3228 32.8501 54.1953 33.183 53.9831 33.4606C53.7709 33.7382 53.4832 33.9487 53.1544 34.0668L53.0254 34.1134L51.8293 34.5431C51.4246 34.6756 51.0199 34.801 50.6081 34.9012C49.7836 35.1437 48.9468 35.3422 48.1012 35.4957C47.2327 35.6567 46.3546 35.7608 45.4726 35.8073C45.0213 35.8073 44.5701 35.8395 44.101 35.8073C43.8682 35.8073 43.6282 35.7822 43.3847 35.7571L43.0051 35.7106C42.8619 35.6891 42.7723 35.6784 42.5288 35.6246C41.9897 35.4871 41.5249 35.1459 41.2323 34.6727C40.9397 34.1994 40.842 33.6312 40.9599 33.0874C41.0777 32.5437 41.4019 32.0669 41.8642 31.7572C42.3264 31.4476 42.8908 31.3294 43.4384 31.4274L43.4528 31.4561Z" fill="white"/>
<path d="M49.0177 23.52L47.9756 21.7724L51.0197 20.8735C51.0197 20.8735 51.6428 22.2773 51.3778 23.2407C51.3227 23.4252 51.2146 23.5895 51.0669 23.7131C50.9191 23.8366 50.7383 23.914 50.5469 23.9354L50.0026 24.0035C49.8092 24.0268 49.6133 23.9936 49.4385 23.9078C49.2637 23.822 49.1175 23.6873 49.0177 23.52Z" fill="white"/>
<path d="M48.7209 18.986L49.5625 18.8893C49.8159 18.8635 50.0702 18.9285 50.2801 19.0728C50.49 19.2171 50.6418 19.4313 50.7085 19.6772L51.02 20.8733L47.976 21.7722L47.7862 20.1643C47.7568 19.8846 47.8382 19.6046 48.013 19.3843C48.1877 19.164 48.4419 19.021 48.7209 18.986Z" fill="white"/>
<path d="M40.1928 30.8148C42.6997 31.0333 48.1504 30.4066 48.1504 30.4066L48.4655 37.2539C46.6116 37.8582 44.6236 37.9203 42.7355 37.433C39.4694 36.6021 37.4245 30.5749 40.1928 30.8148Z" fill="#263238"/>
<path d="M36.007 24.1073C36.3006 26.0627 36.5191 29.626 35.1045 30.858C36.1108 31.9502 37.5684 33.3648 39.8676 33.5546C41.3251 32.9136 41.694 31.9932 41.1246 31.1301C38.9758 30.5177 39.1155 28.9169 39.5596 27.4307L36.007 24.1073Z" fill="white"/>
<path opacity="0.2" d="M37.4584 25.4645L39.5606 27.427C39.4512 27.7777 39.3721 28.1371 39.3243 28.5014C38.5077 28.3474 37.4154 27.3876 37.3653 26.5209C37.3288 26.1661 37.3604 25.8075 37.4584 25.4645Z" fill="black"/>
<path d="M40.233 17.5284C42.9118 19.319 40.6198 22.184 40.6198 22.184C40.6198 22.184 39.2911 19.8347 40.233 17.5284Z" fill="#263238"/>
<path d="M34.592 22.0194C35.2294 24.5692 35.473 26.0949 37.0201 27.1764C39.3514 28.8059 42.3167 27.0331 42.4564 24.3436C42.5782 21.9227 41.5145 18.1552 38.7999 17.5965C38.201 17.4688 37.5793 17.4968 36.9943 17.6778C36.4093 17.8588 35.8805 18.1868 35.4584 18.6305C35.0363 19.0742 34.735 19.6187 34.5833 20.212C34.4316 20.8053 34.4346 21.4276 34.592 22.0194Z" fill="white"/>
<path opacity="0.2" d="M38.8224 21.9082C38.6286 21.894 38.4338 21.9184 38.2494 21.9798C38.065 22.0413 37.8946 22.1387 37.748 22.2664C38.1262 22.2187 38.4913 22.097 38.8224 21.9082Z" fill="black"/>
<path opacity="0.2" d="M38.8901 22.1841C38.7159 22.2082 38.549 22.27 38.4011 22.3652C38.2533 22.4605 38.128 22.5869 38.0342 22.7357C38.3558 22.6154 38.6477 22.4273 38.8901 22.1841Z" fill="black"/>
<path opacity="0.2" d="M38.9613 23.8314C38.9032 23.8067 38.8401 23.7955 38.777 23.7987C38.7139 23.8018 38.6523 23.8192 38.5968 23.8495C38.5414 23.8798 38.4935 23.9223 38.4568 23.9737C38.42 24.0252 38.3954 24.0842 38.3848 24.1466C38.5466 23.9936 38.7452 23.885 38.9613 23.8314Z" fill="black"/>
<path opacity="0.2" d="M40.4802 19.1829C39.5535 19.2783 38.6375 19.4593 37.7441 19.7236C39.2805 19.4694 40.4802 19.1829 40.4802 19.1829Z" fill="black"/>
<path opacity="0.2" d="M40.9376 19.3585C40.9376 19.3585 38.8533 19.7883 37.9365 20.2968C38.9544 20.0431 39.9565 19.7298 40.9376 19.3585Z" fill="black"/>
<path d="M35.3153 23.7991C36.3897 23.6917 35.9098 22.0479 35.4944 21.6754C36.3288 21.3173 37.0308 19.917 36.447 19.1686C39.5376 19.4085 41.3032 19.079 41.5396 16.3036C40.655 16.4826 39.7239 15.5873 38.5349 16.4217C38.6214 16.2497 38.6715 16.0616 38.682 15.8692C38.6925 15.6769 38.6633 15.4845 38.5961 15.304C38.5288 15.1235 38.4251 14.9588 38.2913 14.8202C38.1576 14.6817 37.9966 14.5722 37.8186 14.4986C37.8186 14.4986 37.6252 16.2892 36.268 16.5578C34.9107 16.8264 33.4746 17.779 33.385 18.7818C33.0627 17.9545 32.7297 17.9008 32.7297 17.9008C32.8823 18.2105 32.9616 18.5511 32.9616 18.8964C32.9616 19.2416 32.8823 19.5823 32.7297 19.892C32.2211 21.0344 33.0878 21.4104 33.0878 21.4104C33.0878 21.4104 31.9776 21.4104 32.676 22.9074C33.1917 23.9531 35.0754 25.2961 35.3153 23.7991Z" fill="#263238"/>
<path d="M33.897 24.4152C34.2346 24.9377 34.7649 25.3058 35.3725 25.4394C36.1783 25.6077 36.5256 24.8736 36.257 24.1394C36.0135 23.4805 35.3044 22.5995 34.5166 22.7607C34.3451 22.7985 34.1858 22.8786 34.0532 22.9937C33.9206 23.1087 33.8189 23.2552 33.7573 23.4196C33.6957 23.584 33.6762 23.7613 33.7006 23.9352C33.725 24.109 33.7925 24.2741 33.897 24.4152Z" fill="white"/>
<path d="M22.6678 107.088L17.2207 105.362L17.7364 103.736L23.8568 105.101L22.6678 107.088Z" fill="#BA68C8"/>
<path opacity="0.3" d="M22.6678 107.088L17.2207 105.362L17.7364 103.736L23.8568 105.101L22.6678 107.088Z" fill="black"/>
<path d="M39.1841 110.19L33.8372 110.276L33.8086 108.546L39.5279 108.364L39.1841 110.19Z" fill="#BA68C8"/>
<path opacity="0.3" d="M39.1841 110.19L33.8372 110.276L33.8086 108.546L39.5279 108.364L39.1841 110.19Z" fill="black"/>
<path d="M39.04 21.937C39.0722 22.1483 39.2083 22.2951 39.348 22.2951C39.4876 22.2951 39.5736 22.0874 39.5413 21.8761C39.5091 21.6648 39.373 21.518 39.2334 21.518C39.0937 21.518 39.0077 21.7257 39.04 21.937Z" fill="#263238"/>
<path d="M41.4296 21.5823C41.4618 21.7936 41.5979 21.9405 41.7376 21.9405C41.8773 21.9405 41.9632 21.7327 41.931 21.5215C41.8988 21.3102 41.7627 21.1633 41.623 21.1633C41.4833 21.1633 41.3974 21.371 41.4296 21.5823Z" fill="#263238"/>
<path d="M40.6875 21.7974C41.0343 22.407 41.4646 22.9651 41.966 23.4555C41.8371 23.5802 41.6825 23.6753 41.513 23.7341C41.3435 23.7928 41.1632 23.8139 40.9847 23.7957L40.6875 21.7974Z" fill="#B0A3A3"/>
<path d="M40.209 24.6085C39.9714 24.6451 39.7289 24.6321 39.4965 24.5705C39.2642 24.5089 39.0471 24.3999 38.8589 24.2504C38.8528 24.245 38.8478 24.2384 38.8442 24.2311C38.8406 24.2237 38.8385 24.2158 38.838 24.2076C38.8375 24.1995 38.8386 24.1913 38.8413 24.1836C38.8439 24.1759 38.8481 24.1687 38.8535 24.1626C38.8589 24.1565 38.8655 24.1515 38.8728 24.148C38.8801 24.1444 38.8881 24.1423 38.8962 24.1418C38.9044 24.1413 38.9126 24.1424 38.9203 24.145C38.928 24.1477 38.9351 24.1519 38.9412 24.1573C39.1546 24.3157 39.4023 24.4217 39.6643 24.4665C39.9262 24.5113 40.1951 24.4937 40.4489 24.4151C40.4567 24.4129 40.4648 24.4123 40.4728 24.4133C40.4808 24.4143 40.4885 24.4169 40.4955 24.4209C40.5025 24.4249 40.5086 24.4302 40.5136 24.4366C40.5185 24.443 40.5221 24.4503 40.5241 24.4581C40.5269 24.4661 40.5279 24.4745 40.5272 24.4829C40.5265 24.4914 40.524 24.4995 40.52 24.5069C40.5159 24.5143 40.5104 24.5208 40.5037 24.526C40.497 24.5311 40.4894 24.5348 40.4812 24.5369C40.3923 24.5673 40.3013 24.5912 40.209 24.6085Z" fill="#263238"/>
<path d="M37.7653 21.3818C37.7454 21.3871 37.7244 21.3871 37.7045 21.3818C37.6893 21.3749 37.6756 21.365 37.6644 21.3527C37.6532 21.3403 37.6447 21.3258 37.6393 21.31C37.6339 21.2942 37.6319 21.2775 37.6332 21.2609C37.6346 21.2443 37.6393 21.2281 37.6472 21.2134C37.7325 21.0336 37.8596 20.8767 38.0178 20.7558C38.176 20.635 38.3608 20.5537 38.5568 20.5187C38.5899 20.5156 38.6229 20.5254 38.6489 20.5461C38.675 20.5668 38.692 20.5968 38.6965 20.6297C38.6995 20.6628 38.6897 20.6958 38.669 20.7218C38.6483 20.7479 38.6184 20.7649 38.5855 20.7694C38.4298 20.7976 38.2833 20.8632 38.1585 20.9605C38.0337 21.0578 37.9345 21.1839 37.8692 21.328C37.857 21.3442 37.8413 21.3573 37.8233 21.3666C37.8054 21.3759 37.7856 21.3811 37.7653 21.3818Z" fill="#263238"/>
<path d="M41.8878 20.5653C41.8672 20.5664 41.8466 20.5625 41.8278 20.5537C41.8091 20.545 41.7928 20.5317 41.7804 20.5152C41.6908 20.3854 41.5717 20.2788 41.4329 20.2041C41.294 20.1294 41.1394 20.0887 40.9818 20.0854C40.9485 20.0854 40.9167 20.0722 40.8932 20.0487C40.8696 20.0252 40.8564 19.9933 40.8564 19.9601C40.8564 19.9268 40.8696 19.8949 40.8932 19.8714C40.9167 19.8479 40.9485 19.8347 40.9818 19.8347C41.1808 19.8357 41.3766 19.8844 41.5529 19.9766C41.7292 20.0688 41.8809 20.2019 41.9953 20.3647C42.0052 20.3779 42.0123 20.3929 42.0164 20.4088C42.0205 20.4248 42.0214 20.4414 42.0191 20.4577C42.0168 20.474 42.0112 20.4896 42.0029 20.5038C41.9945 20.518 41.9834 20.5303 41.9702 20.5402C41.9463 20.5575 41.9173 20.5663 41.8878 20.5653Z" fill="#263238"/>
<path d="M20.5432 110.322C20.3335 110.217 20.1365 110.089 19.9559 109.939C19.9459 109.932 19.9384 109.922 19.9346 109.91C19.9307 109.899 19.9307 109.886 19.9344 109.875C19.9378 109.862 19.9447 109.852 19.9543 109.843C19.9638 109.835 19.9756 109.83 19.9881 109.828C20.0992 109.828 21.0983 109.703 21.2989 109.964C21.3216 109.993 21.3356 110.028 21.3394 110.065C21.3432 110.102 21.3366 110.139 21.3204 110.172C21.3005 110.23 21.2666 110.283 21.2216 110.326C21.1767 110.368 21.1221 110.399 21.0625 110.415C20.8839 110.444 20.701 110.411 20.5432 110.322ZM20.1565 109.925C20.3912 110.152 20.7039 110.28 21.0303 110.283C21.0708 110.271 21.1077 110.25 21.1377 110.221C21.1678 110.191 21.1899 110.155 21.2022 110.115C21.2022 110.068 21.2022 110.047 21.2022 110.032C21.0947 109.925 20.5576 109.903 20.1565 109.925Z" fill="#BA68C8"/>
<path d="M19.9668 109.95C19.9567 109.944 19.9481 109.935 19.9417 109.925C19.9364 109.915 19.9336 109.904 19.9336 109.893C19.9336 109.881 19.9364 109.87 19.9417 109.86C19.9417 109.832 20.3392 109.169 20.726 109.069C20.7724 109.056 20.821 109.053 20.8685 109.061C20.9161 109.068 20.9615 109.085 21.0018 109.112C21.0434 109.133 21.0768 109.167 21.0969 109.209C21.117 109.252 21.1226 109.299 21.1128 109.345C21.0376 109.635 20.3106 109.936 19.999 109.954L19.9668 109.95ZM20.9086 109.205C20.8589 109.187 20.8044 109.187 20.7547 109.205C20.5075 109.27 20.2425 109.635 20.1208 109.825C20.4538 109.753 20.9445 109.499 20.991 109.327C20.991 109.327 20.991 109.277 20.9337 109.23L20.9086 109.205Z" fill="#BA68C8"/>
<path d="M37.5825 113.753C37.5719 113.75 37.5624 113.744 37.5549 113.735C37.5474 113.727 37.5421 113.717 37.5395 113.706C37.538 113.693 37.5403 113.68 37.546 113.668C37.5516 113.656 37.5606 113.646 37.5717 113.638C37.6899 113.578 38.75 113.019 39.0723 113.194C39.1033 113.21 39.1296 113.233 39.1485 113.262C39.1674 113.291 39.1782 113.325 39.1797 113.359C39.1866 113.416 39.1798 113.473 39.1598 113.527C39.1399 113.581 39.1074 113.629 39.0651 113.667C38.7786 113.929 38.0194 113.835 37.5896 113.757L37.5825 113.753ZM38.9899 113.295C38.7894 113.227 38.2164 113.456 37.7974 113.653C38.3847 113.742 38.8216 113.71 38.9828 113.563C39.0098 113.537 39.0304 113.505 39.0429 113.47C39.0553 113.434 39.0593 113.396 39.0544 113.359C39.0549 113.346 39.0515 113.332 39.0444 113.321C39.0374 113.309 39.0272 113.3 39.015 113.295H38.9899Z" fill="#BA68C8"/>
<path d="M37.5818 113.753H37.5639C37.5547 113.747 37.5473 113.738 37.5429 113.728C37.5384 113.718 37.537 113.707 37.5389 113.696C37.5389 113.667 37.5997 112.951 37.9328 112.672C37.9812 112.629 38.0381 112.596 38.0998 112.577C38.1614 112.557 38.2265 112.55 38.2909 112.557C38.4628 112.557 38.5165 112.657 38.5273 112.729C38.581 113.03 37.9579 113.61 37.6391 113.76C37.6299 113.765 37.6196 113.766 37.6094 113.765C37.5993 113.764 37.5897 113.76 37.5818 113.753ZM38.3339 112.679H38.2694C38.2237 112.674 38.1775 112.679 38.1338 112.694C38.0901 112.708 38.0497 112.731 38.0152 112.761C37.8205 112.994 37.7029 113.282 37.6785 113.585C38.0008 113.384 38.4234 112.926 38.3948 112.747C38.3912 112.732 38.3876 112.704 38.3339 112.686V112.679Z" fill="#BA68C8"/>
<path d="M14.609 25.1422C14.1848 21.3434 14.3795 17.501 15.1856 13.7645L15.5437 13.8469C14.7472 17.5459 14.5549 21.3495 14.9743 25.1099L14.609 25.1422ZM16.3996 10.9532L16.0666 10.8315C16.3969 9.93381 16.7894 9.06026 17.2412 8.21716L17.5599 8.38548C17.1126 9.21375 16.7225 10.0717 16.3924 10.9532H16.3996Z" fill="#BA68C8"/>
<path d="M27.236 1.91411C39.1544 -0.467424 55.2449 13.2094 63.181 32.4586C71.1171 51.7079 67.8904 69.2453 55.9791 71.6232C44.0679 74.0012 27.9844 60.3279 20.0341 41.0787C12.0837 21.8295 15.3247 4.27774 27.236 1.91411ZM26.2977 39.8288C33.3098 56.8434 46.7108 69.0984 56.1868 67.2004C65.6628 65.3023 67.6898 49.9745 60.6777 32.96C53.6656 15.9455 40.2646 3.68683 30.785 5.58489C21.3054 7.48296 19.282 22.8107 26.2977 39.8288ZM16.7393 30.5641C17.4842 29.257 21.8927 27.5165 22.8668 28.487L16.7393 30.5641ZM61.1862 64.3246C62.3072 64.1885 63.4102 66.8888 62.6617 67.888L61.1862 64.3246ZM44.5656 10.3909C45.3177 10.1868 45.9767 9.15182 46.0662 8.54659L44.5656 10.3909Z" fill="#263238"/>
<path d="M53.2154 72.0709C41.6229 72.0709 27.2191 58.9743 19.8704 41.1468C14.7563 28.7485 14.1081 16.3251 18.1728 8.72569C20.2034 4.92956 23.3263 2.51222 27.2012 1.73866C39.1769 -0.653612 55.3928 13.0948 63.3468 32.3906C68.4572 44.7925 69.109 57.2159 65.0407 64.8117C64.4346 65.9606 63.6836 67.027 62.806 67.9847C61.0116 69.9454 58.6353 71.2785 56.0267 71.788C55.1013 71.9753 54.1596 72.0701 53.2154 72.0709ZM16.9409 30.5821C17.7111 34.1493 18.8019 37.6397 20.1998 41.0107C28.0786 60.1525 44.1262 73.8078 55.9443 71.4513C58.4776 70.9554 60.7855 69.6615 62.5303 67.7591C62.8884 67.2111 62.6771 66.0795 62.2402 65.3274C61.9393 64.8045 61.5776 64.5037 61.2553 64.5037C59.9338 65.9798 58.1675 66.9855 56.2237 67.3687C46.6653 69.2847 33.1676 56.9509 26.1411 39.8898C24.6223 36.2419 23.4741 32.4506 22.7139 28.573C22.4847 28.3868 22.0227 28.333 21.3996 28.4154C19.7486 28.6303 17.5139 29.7333 16.9409 30.5821ZM26.4635 39.7608C33.4362 56.6715 46.7548 68.9051 56.1556 67.0249C58.9204 66.4734 61.0763 64.783 62.5661 62.0112C66.0112 55.5649 65.2234 44.463 60.5104 33.0424C53.5377 16.1281 40.2226 3.89816 30.8218 5.77474C28.0535 6.32625 25.894 8.02018 24.4042 10.7885C20.9626 17.2276 21.7505 28.3259 26.4635 39.7608ZM61.5311 64.185C61.9782 64.3679 62.3418 64.7097 62.5517 65.1448C62.9065 65.7452 63.0898 66.4314 63.0818 67.1288C63.7138 66.3576 64.2669 65.525 64.7327 64.6434C68.7509 57.1407 68.0955 44.8319 63.0245 32.5267C58.9884 22.7356 52.8179 14.3805 46.1926 8.86894C45.9624 9.52652 45.5137 10.0852 44.9212 10.4519C51.0416 15.3761 56.9507 23.4017 60.865 32.892C65.6173 44.42 66.398 55.6365 62.9063 62.1652C62.5171 62.8831 62.0564 63.5598 61.5311 64.185ZM27.2692 2.08963C23.5018 2.84169 20.4649 5.19457 18.4844 8.89401C15.666 14.162 15.1467 21.7865 16.8442 30.1273C17.718 29.1961 19.8704 28.2614 21.3387 28.0645C21.764 27.9856 22.2019 28.0077 22.6172 28.1289C21.3494 21.1097 21.8114 14.8783 24.0855 10.6166C25.6075 7.77308 27.9103 5.96096 30.7466 5.40587C34.8973 4.5786 39.7929 6.43369 44.5774 10.1976C45.1791 9.98629 45.7342 9.15544 45.8667 8.61825C39.6102 3.52213 32.9527 0.954369 27.2692 2.08963Z" fill="#BA68C8"/>
<path d="M43.4128 22.2737L54.5756 21.1205L54.3105 19.0935L43.2266 20.8412L43.4128 22.2737Z" fill="#BA68C8"/>
<path opacity="0.2" d="M49.6729 19.8241L49.9056 21.6004L54.572 21.1205L54.307 19.0935L49.6729 19.8241Z" fill="black"/>
<path d="M50.5071 21.4966C50.5216 21.5806 50.5656 21.6568 50.6313 21.7113C50.6969 21.7658 50.7799 21.795 50.8652 21.7938L63.8114 20.5977C64.3271 20.5296 63.8866 17.1597 63.3745 17.2277L50.55 19.3765C50.4641 19.3945 50.3878 19.4435 50.3356 19.5142C50.2835 19.5848 50.2591 19.6722 50.2671 19.7596L50.5071 21.4966Z" fill="#BA68C8"/>
<path d="M43.4536 22.5672C43.512 22.5601 43.5652 22.53 43.6014 22.4837C43.6377 22.4374 43.6541 22.3785 43.647 22.3201L43.4393 20.7372C43.4312 20.6785 43.4004 20.6253 43.3535 20.5892C43.3066 20.553 43.2474 20.5367 43.1886 20.5438C43.1305 20.5527 43.0783 20.5838 43.0428 20.6306C43.0074 20.6775 42.9916 20.7362 42.9988 20.7945L43.2065 22.3774C43.21 22.4062 43.2192 22.434 43.2336 22.4592C43.248 22.4844 43.2673 22.5065 43.2903 22.5241C43.3133 22.5418 43.3395 22.5547 43.3676 22.5621C43.3956 22.5695 43.4249 22.5712 43.4536 22.5672Z" fill="#BA68C8"/>
<path d="M80.298 81.6979C80.3183 81.6169 80.37 81.5473 80.4416 81.5045C80.5132 81.4616 80.599 81.449 80.6799 81.4693C80.7609 81.4897 80.8304 81.5413 80.8733 81.613C80.9161 81.6846 80.9288 81.7703 80.9084 81.8513C80.9566 82.8296 80.7403 83.8028 80.2823 84.6687C79.2931 86.3686 77.2363 86.9728 77.2363 86.9728L80.298 81.6979Z" fill="#BA68C8"/>
<path d="M77.7622 90.6513C76.0216 90.6759 74.3216 90.1257 72.9255 89.086C71.7887 88.134 70.8786 86.9405 70.2614 85.5924C70.2349 85.5599 70.215 85.5225 70.203 85.4823C70.1909 85.4422 70.1869 85.4001 70.1911 85.3583C70.1953 85.3166 70.2077 85.2762 70.2275 85.2392C70.2474 85.2023 70.2743 85.1696 70.3068 85.1431C70.3393 85.1166 70.3767 85.0967 70.4168 85.0847C70.457 85.0726 70.4991 85.0686 70.5408 85.0728C70.5825 85.077 70.623 85.0894 70.6599 85.1093C70.6969 85.1291 70.7295 85.156 70.756 85.1885L77.7622 90.6513Z" fill="#BA68C8"/>
<path d="M83.6792 94.5927C81.8666 97.2599 78.4199 98.0081 78.4199 98.0081L84.4493 89.1456C84.4784 89.0735 84.5332 89.0148 84.6032 88.9809C84.6731 88.947 84.7532 88.9404 84.8278 88.9622C84.9023 88.9841 84.9661 89.0329 85.0067 89.0992C85.0473 89.1655 85.0617 89.2445 85.0473 89.3209C85.0692 90.5512 84.9095 92.7801 83.6792 94.5927Z" fill="#BA68C8"/>
<path d="M78.3449 108.921H78.3261C78.3076 108.919 78.2898 108.913 78.2737 108.903C78.2576 108.894 78.2436 108.882 78.2325 108.867C78.2214 108.852 78.2134 108.835 78.209 108.817C78.2047 108.799 78.204 108.78 78.2071 108.761C79.1463 102.112 77.4276 84.3746 75.4116 80.0044C75.4037 79.9875 75.3993 79.9693 75.3986 79.9508C75.3978 79.9322 75.4007 79.9137 75.4071 79.8962C75.4135 79.8788 75.4233 79.8628 75.4358 79.8491C75.4484 79.8354 75.4636 79.8244 75.4804 79.8166C75.4973 79.8088 75.5155 79.8044 75.5341 79.8036C75.5526 79.8028 75.5712 79.8057 75.5886 79.8121C75.606 79.8185 75.6221 79.8283 75.6357 79.8409C75.6494 79.8534 75.6604 79.8686 75.6683 79.8855C77.7 84.2682 79.4249 102.112 78.4857 108.802C78.4805 108.836 78.4633 108.866 78.4375 108.888C78.4116 108.91 78.3787 108.922 78.3449 108.921Z" fill="#263238"/>
<path d="M74.416 101.042H82.2736C82.3718 101.041 82.4689 101.061 82.5589 101.101C82.6488 101.14 82.7296 101.197 82.7962 101.269C82.8627 101.341 82.9135 101.427 82.9454 101.519C82.9772 101.612 82.9894 101.711 82.9811 101.809L81.8698 115.849C81.8556 116.027 81.7748 116.192 81.6437 116.313C81.5125 116.434 81.3406 116.501 81.1623 116.5H75.5273C75.3491 116.501 75.1771 116.434 75.046 116.313C74.9148 116.192 74.834 116.027 74.8198 115.849L73.7054 101.809C73.6976 101.711 73.7102 101.612 73.7424 101.519C73.7746 101.426 73.8257 101.341 73.8925 101.269C73.9593 101.197 74.0403 101.14 74.1304 101.101C74.2205 101.061 74.3177 101.041 74.416 101.042Z" fill="#BA68C8"/>
<path d="M74.3721 80.7276C74.5275 80.959 74.748 81.1391 75.0058 81.2451C75.2636 81.3511 75.5471 81.3782 75.8203 81.3231C76.0935 81.2679 76.3442 81.133 76.5407 80.9353C76.7372 80.7376 76.8706 80.486 76.9241 80.2125C76.9776 79.9389 76.9487 79.6557 76.8412 79.3985C76.7336 79.1414 76.5522 78.9219 76.3198 78.768C76.0875 78.614 75.8147 78.5324 75.536 78.5335C75.2572 78.5346 74.9851 78.6183 74.754 78.7741C74.4446 78.9828 74.2306 79.3056 74.159 79.6719C74.0874 80.0381 74.164 80.4178 74.3721 80.7276Z" fill="#263238"/>
<path d="M75.5428 81.5384C75.1601 81.539 74.7898 81.4022 74.4995 81.1528C74.2092 80.9034 74.0182 80.5581 73.9612 80.1796C73.9042 79.8012 73.985 79.4148 74.1889 79.091C74.3929 78.7671 74.7064 78.5273 75.0723 78.4152C75.4382 78.3031 75.8322 78.3262 76.1826 78.4803C76.5329 78.6343 76.8163 78.9091 76.981 79.2545C77.1458 79.6 77.1809 79.9931 77.0801 80.3623C76.9793 80.7315 76.7493 81.0522 76.4318 81.266C76.1691 81.443 75.8596 81.5378 75.5428 81.5384ZM75.5428 78.7209C75.2713 78.7217 75.0079 78.8132 74.7943 78.9808C74.5808 79.1485 74.4294 79.3826 74.3642 79.6462C74.299 79.9097 74.3238 80.1875 74.4345 80.4353C74.5452 80.6832 74.7356 80.887 74.9754 81.0143C75.2152 81.1415 75.4906 81.1851 75.7579 81.1379C76.0253 81.0907 76.2692 80.9556 76.451 80.7539C76.6327 80.5523 76.7419 80.2957 76.7611 80.0249C76.7803 79.7541 76.7085 79.4846 76.5571 79.2593C76.444 79.0932 76.2917 78.9574 76.1137 78.864C75.9357 78.7707 75.7375 78.7226 75.5365 78.724L75.5428 78.7209Z" fill="#BA68C8"/>
<path d="M75.6397 84.7251C75.6513 84.8421 75.6974 84.953 75.772 85.0438C75.8466 85.1346 75.9465 85.2012 76.059 85.2353C76.1714 85.2694 76.2915 85.2694 76.404 85.2353C76.5165 85.2013 76.6163 85.1346 76.691 85.0438C76.7656 84.953 76.8117 84.8422 76.8234 84.7252C76.8351 84.6083 76.8118 84.4905 76.7566 84.3867C76.7014 84.2829 76.6167 84.1979 76.5132 84.1422C76.4097 84.0866 76.292 84.0628 76.175 84.074C76.097 84.0814 76.0213 84.1042 75.9521 84.141C75.883 84.1778 75.8218 84.2279 75.7721 84.2884C75.7223 84.3489 75.685 84.4186 75.6623 84.4935C75.6396 84.5685 75.6319 84.6472 75.6397 84.7251Z" fill="#263238"/>
<path d="M77.1738 96.806C77.1738 96.9236 77.2087 97.0386 77.2741 97.1364C77.3394 97.2342 77.4323 97.3105 77.541 97.3555C77.6497 97.4005 77.7693 97.4123 77.8847 97.3894C78 97.3664 78.106 97.3098 78.1892 97.2266C78.2724 97.1434 78.329 97.0374 78.352 96.922C78.375 96.8066 78.3632 96.687 78.3182 96.5784C78.2731 96.4697 78.1969 96.3768 78.0991 96.3114C78.0013 96.2461 77.8863 96.2112 77.7686 96.2112C77.6109 96.2112 77.4596 96.2738 77.348 96.3854C77.2365 96.4969 77.1738 96.6482 77.1738 96.806Z" fill="#263238"/>
<path d="M78.9234 92.9491C79.0959 92.9239 79.2571 92.8482 79.3867 92.7315C79.5163 92.6148 79.6084 92.4624 79.6514 92.2934C79.6944 92.1244 79.6865 91.9464 79.6285 91.782C79.5705 91.6175 79.4651 91.4739 79.3256 91.3693C79.1861 91.2647 79.0187 91.2037 78.8446 91.1941C78.6705 91.1845 78.4974 91.2266 78.3473 91.3153C78.1971 91.4039 78.0765 91.535 78.0007 91.692C77.925 91.8491 77.8974 92.0251 77.9216 92.1978C77.9549 92.4302 78.0792 92.6399 78.267 92.7808C78.4548 92.9216 78.6909 92.9822 78.9234 92.9491Z" fill="#263238"/>
</svg>
