<svg width="219" height="200" viewBox="0 0 219 200" fill="none" xmlns="http://www.w3.org/2000/svg">
<g clip-path="url(#clip0_6695_750)">
<path d="M163.194 46.6703L164.213 46.041L164.216 46.191C164.223 46.5442 164.21 46.8046 164.411 47.1116C164.084 47.4233 163.753 47.3635 163.316 47.3504C162.866 47.3368 162.407 47.2341 161.966 47.1504C162.589 47.0729 162.708 47.0585 163.194 46.6703Z" fill="#F3F2E7"/>
<path d="M20.3929 64.2423C20.8892 64.3766 21.081 64.451 21.3739 64.8762C21.3783 65.4403 21.3195 65.4847 20.9834 65.9471L20.603 65.8636C20.2119 65.7445 20.1244 65.6195 19.9229 65.2759C19.939 64.8038 20.1059 64.6059 20.3929 64.2423Z" fill="#202D3B"/>
<path d="M74.1378 67.5037C74.3389 67.5014 74.5815 67.4855 74.7756 67.5378C75.0962 67.6246 75.2267 67.8269 75.3686 68.1001C75.3576 68.6141 75.3047 68.7042 75.0554 69.1294L74.5188 69.0652C74.1771 68.9735 74.0739 68.8449 73.8965 68.5545C73.8788 68.1024 73.9389 67.9104 74.1378 67.5037Z" fill="#7280C1"/>
<path d="M137.155 76.9779C137.344 77.0162 137.568 77.0506 137.741 77.1371C138.04 77.2873 138.147 77.4929 138.249 77.792C138.134 78.2726 138.048 78.3376 137.716 78.6806L136.971 78.5538C136.67 78.2855 136.563 78.2295 136.578 77.792C136.59 77.4293 136.906 77.1954 137.155 76.9779Z" fill="#7280C1"/>
<path d="M202.202 148.984C202.427 149.039 202.681 149.097 202.876 149.23C203.128 149.401 203.273 149.64 203.329 149.936C203.21 150.437 202.932 150.625 202.547 150.945C202.393 150.898 202.341 150.887 202.183 150.804C201.73 150.563 201.61 150.41 201.453 149.936C201.631 149.416 201.793 149.332 202.202 148.984Z" fill="#7280C1"/>
<path d="M178.638 124.599C178.957 124.625 179.22 124.68 179.525 124.776C179.73 125.009 179.942 125.344 179.929 125.674C179.912 126.096 179.678 126.217 179.397 126.483C179.103 126.468 178.83 126.438 178.54 126.38C178.308 126.158 178.071 126.024 178.053 125.674C178.028 125.206 178.362 124.922 178.638 124.599Z" fill="#C8D4E2"/>
<path d="M194.723 58.6144C195.003 58.685 195.256 58.7887 195.523 58.8945C195.807 59.2439 195.834 59.3101 195.902 59.7561C195.686 60.2344 195.497 60.3263 195.083 60.6342C194.877 60.5841 194.617 60.5055 194.435 60.3979C194.09 60.1938 194.079 59.9261 194.006 59.5635C194.203 59.0608 194.307 58.9656 194.723 58.6144Z" fill="#7280C1"/>
<path d="M164.556 72.7866C164.905 72.8618 165.192 72.9119 165.441 73.1987C165.706 73.5024 165.594 73.7658 165.557 74.1335C165.18 74.5402 165 74.5609 164.482 74.7232C164.266 74.667 164.042 74.6036 163.864 74.4585C163.611 74.2523 163.582 73.9856 163.557 73.6842C163.81 73.2074 164.096 73.0508 164.556 72.7866Z" fill="#539FFB"/>
<path d="M168.525 145.802L168.393 145.884C167.749 146.248 166.948 146.322 166.239 146.118C165.548 145.919 165.202 145.557 164.873 144.929C164.701 144.602 164.783 143.969 164.915 143.632C165.181 142.955 166.254 142.58 166.884 142.3C166.902 142.615 166.842 142.898 167.056 143.135C167.361 143.473 167.437 143.63 167.457 144.09L168.561 145.122L168.525 145.802Z" fill="#2574F0"/>
<path d="M119.857 103.142C120.152 103.112 120.153 103.111 120.4 103.273L120.415 105.406L116.527 105.547L116.11 105.552C115.759 105.128 115.92 103.81 115.919 103.216L119.857 103.142Z" fill="#202D3B"/>
<path d="M164.69 114.771C165.056 114.755 165.44 114.731 165.801 114.811C166.351 114.933 166.73 115.278 167.01 115.751L167.068 115.853L167.201 115.567L167.396 115.789C167.422 116.092 167.464 116.449 167.417 116.752C167.298 117.534 166.722 118.051 166.153 118.544C165.815 118.692 165.422 118.818 165.049 118.751C164.505 118.653 163.96 118.37 163.643 117.908C163.355 117.49 163.222 117.018 163.34 116.518C163.526 115.728 164.029 115.199 164.69 114.771Z" fill="#E67D0D"/>
<path d="M146.422 141.603C146.756 142.097 147.11 142.606 147.33 143.162C147.679 144.044 148.085 146.163 148.973 146.628C149.284 146.455 149.527 146.512 149.865 146.552L150.01 146.571C149.205 147.443 148.372 148.049 147.418 148.741C146.718 148.073 145.938 147.075 145.635 146.151C145.107 144.541 145.715 143.035 146.422 141.603Z" fill="#F4C28E"/>
<path d="M130.082 93.1836L144.64 93.179C145.847 93.3212 147.102 93.2549 148.317 93.2534C150.307 93.2508 152.297 93.2467 154.286 93.2434C155.518 93.2416 156.742 93.1926 157.959 93.381C158.517 93.4675 159.249 93.2103 159.756 93.39C159.487 93.5695 159.367 93.5967 159.05 93.5497C158.887 93.5256 158.753 93.5178 158.589 93.534C158.255 93.5666 157.803 93.4134 157.574 93.6521C157.212 93.6814 156.882 93.7083 156.533 93.8205L144.982 93.8208C144.611 93.724 144.544 93.7417 144.172 93.8472L130.236 93.8455L130.082 93.1836Z" fill="#2574F0"/>
<path d="M187.589 146.93C187.967 146.452 188.083 145.953 188.266 145.382C188.68 144.086 188.682 142.691 189.024 141.378L189.244 141.273L189.462 141.463L189.483 143.085L190.521 141.642C190.977 141.555 191.609 141.341 192.047 141.528C192.369 142.615 192.174 143.739 191.665 144.737C191.402 145.252 191.036 145.652 190.629 146.055C190.686 146.78 190.764 147.504 190.691 148.23L187.589 146.93Z" fill="#F4C28E"/>
<path d="M161.152 93.0026L155.225 88.3826C155.327 88.1158 155.483 87.914 155.648 87.6837L163.016 92.9089C161.493 93.9376 159.927 94.9073 158.423 95.9638C157.784 96.4126 156.344 97.7387 155.648 97.7356L155.344 97.3682C155.481 96.7956 156.021 96.5017 156.479 96.1569C157.552 95.3489 158.666 94.609 159.765 93.8378L156.533 93.8208C156.881 93.7084 157.211 93.6817 157.573 93.6524C157.803 93.4136 158.255 93.5669 158.589 93.5343C158.753 93.5181 158.886 93.5258 159.05 93.55C159.367 93.5969 159.487 93.5697 159.756 93.3903C159.248 93.2105 158.517 93.4678 157.959 93.3813C156.742 93.1928 155.517 93.2419 154.286 93.2437C152.296 93.247 150.306 93.2511 148.316 93.2537C147.101 93.2552 145.847 93.3215 144.64 93.1792L161.152 93.0026Z" fill="#539FFB"/>
<path d="M54.1532 93.35L81.592 93.3372C81.8477 93.5343 82.0518 93.6796 82.2292 93.9546L77.9103 94.0296C77.3863 94.0119 76.7779 94.0532 76.2839 93.8704L76.1876 94.0322L75.9509 93.9438C75.7671 93.893 75.5938 93.961 75.4277 94.0298L54.1455 94.0663L54.1532 93.35Z" fill="#2574F0"/>
<path d="M88.5809 48.1627C88.8238 48.3109 88.698 48.2744 88.9796 48.2878C89.4087 48.308 89.9275 48.3355 90.3262 48.5006C91.1044 48.8231 91.7609 49.7735 91.9845 50.5571C92.1832 51.2552 92.0862 52.0336 91.7437 52.6657C91.2374 53.6002 90.5198 54.003 89.5301 54.307C89.0949 54.3232 88.6269 54.3679 88.2076 54.2267C87.2495 53.9047 86.5868 53.3337 86.1504 52.421C85.8569 51.8076 85.9514 50.6985 86.2043 50.087C86.6354 49.0459 87.6125 48.5881 88.5809 48.1627Z" fill="#DC4EB9"/>
<path d="M167.123 140.628C167.165 140.174 167.151 140.1 167.448 139.73C167.036 139.44 166.394 139.083 166.257 138.558C166.199 138.335 166.165 137.773 166.308 137.585C166.57 137.241 166.804 136.994 167.25 136.942L167.622 136.914C167.793 136.9 167.873 136.873 168.013 136.778C168.16 136.077 168.2 135.342 168.87 134.926C169.466 134.557 170.55 134.81 171.181 134.999C171.842 135.197 172.736 135.88 173.371 135.88C173.682 135.652 173.724 135.649 174.111 135.629C174.502 135.806 174.74 135.98 174.907 136.393L175.062 136.992L175.21 137.085C176.082 137.644 176.771 138.569 176.977 139.606C177.133 140.391 177.029 141.408 176.563 142.078C176.262 142.51 175.795 142.889 175.408 143.245C175.119 144.309 174.84 144.968 173.969 145.704L173.811 145.495C173.594 145.166 173.572 144.901 173.567 144.513C173.549 143.251 175.094 143.286 175.392 142.041C175.225 141.745 175.072 141.665 174.775 141.509C174.254 141.62 173.801 141.914 173.337 142.167C173.448 141.542 173.557 140.946 173.545 140.308C173.355 140.027 173.194 139.788 173.146 139.444L173.117 139.203C172.415 139.054 171.274 139.232 170.589 139.441L170.157 139.911L170.228 139.474C169.824 139.191 168.635 139.345 168.122 139.474L167.843 139.615L168.609 139.864L168.668 140.116L168.367 140.51L167.843 140.203C167.524 140.289 167.372 140.421 167.123 140.628Z" fill="#202D3B"/>
<path d="M116.341 55.3083C117.187 55.6049 118.133 55.7915 118.927 56.2008C119.574 56.5343 120.202 57.0942 120.94 57.1566C121.223 58.2008 121.42 59.2662 121.714 60.3063C122.181 61.9558 122.796 63.6806 122.963 65.39C123.406 69.9137 122.773 74.5741 123.441 79.0562C123.554 79.8159 123.661 80.6051 123.399 81.3417C123.201 79.5078 123.016 77.6734 122.822 75.8398C122.734 75.01 122.724 74.0511 122.523 73.2452C122.227 72.0616 121.689 70.8786 121.322 69.7048C120.338 66.551 119.448 63.3173 118.3 60.22C117.687 58.5661 116.883 56.9849 116.341 55.3083Z" fill="#3B219B"/>
<path d="M170.589 139.441C171.274 139.232 172.414 139.053 173.117 139.202L173.146 139.444C173.194 139.788 173.355 140.027 173.545 140.308C173.557 140.946 173.448 141.542 173.337 142.167C173.801 141.913 174.254 141.62 174.775 141.509C175.072 141.665 175.225 141.745 175.392 142.041C175.094 143.286 173.548 143.25 173.567 144.513C173.572 144.901 173.594 145.165 173.811 145.494L173.969 145.703C173.717 146.202 173.698 146.959 173.553 147.516C173.077 148.317 171.988 149.884 171.091 150.12C170.982 150.054 170.913 150.019 170.82 149.94C170.237 149.439 170.05 148.557 169.961 147.835L169.945 147.69L169.472 147.56C169.668 147.546 169.805 147.497 169.99 147.433L170.029 147.112C169.92 146.984 169.851 146.902 169.689 146.841C169.45 146.75 169.124 146.683 168.915 146.534C168.644 146.341 168.59 146.11 168.525 145.802L168.56 145.122L167.457 144.09C167.437 143.63 167.361 143.474 167.055 143.136C166.841 142.898 166.901 142.615 166.884 142.301L167.017 142.188C167.009 141.656 167.108 141.157 167.123 140.628C167.372 140.421 167.524 140.29 167.843 140.203L168.367 140.51L168.668 140.116L168.609 139.864L167.843 139.615L168.122 139.474C168.635 139.345 169.824 139.191 170.228 139.474L170.157 139.911L170.589 139.441Z" fill="#F4C28E"/>
<path d="M170.638 139.784C171.043 139.606 171.281 139.657 171.695 139.736C171.979 140.001 171.97 140.026 172.037 140.413C171.475 140.466 171.219 140.454 170.725 140.181L170.638 139.784Z" fill="#202D3B"/>
<path d="M167.526 143.385L167.779 143.13C168.077 143.397 168.408 143.616 168.736 143.843C169.124 143.883 169.172 143.9 169.512 143.718L169.472 143.389C169.63 143.05 169.639 143.027 169.962 142.844L170.122 142.94L170.026 143.447L170.154 143.535L171.949 143.165L171.837 143.61L171.68 143.824C170.767 144.605 169.357 144.541 168.245 144.556L167.526 143.385Z" fill="white"/>
<path d="M103.004 56.1661C104.212 55.763 105.358 55.2025 106.604 54.9286C107.19 58.3525 107.317 61.8862 107.517 65.3502C107.735 69.1129 108.052 72.8757 107.978 76.6495C107.27 75.4513 106.844 73.8241 106.313 72.517C105.394 70.2585 104.453 68.0159 103.561 65.7458C103.247 64.9473 102.78 64.0621 102.657 63.2136C102.342 61.0295 102.771 58.352 103.004 56.1661Z" fill="#3B219B"/>
<path d="M43.054 196.214C43.2796 195.578 43.7962 194.41 44.3536 194.037C44.9924 194.877 46.216 195.668 47.2065 196.001L47.3929 195.921L48.284 196.424C48.6085 196.222 49.0537 196.26 49.4291 196.236C50.3657 196.176 51.3166 196.145 52.246 196.014C53.006 195.907 53.7148 195.709 54.4345 195.447L54.5274 194.702C54.551 195.146 54.5746 195.547 54.4871 195.984C55.5099 196.485 56.5816 196.75 57.712 196.869C58.7269 197.058 59.7772 197.205 60.712 197.659L60.9243 197.76L61.0594 197.827L60.9859 198.78C61.2999 199.019 61.7993 198.921 62.1908 198.923C63.3307 198.928 64.4712 198.932 65.6111 198.937C70.9677 198.959 76.3613 198.82 81.7135 198.971L82.4758 199.165L63.4098 199.26L49.9805 199.287L49.8506 199.397C49.5829 199.63 49.3787 199.823 49.0283 199.927C48.4714 200.09 47.8304 199.583 47.3518 199.311C40.942 199.466 34.4933 199.366 28.0804 199.359C26.9936 199.358 25.9066 199.356 24.8196 199.353C24.5556 199.352 23.902 199.427 23.6835 199.349C23.5975 199.319 23.5487 199.227 23.4814 199.165C23.5487 199.101 23.5947 199 23.6835 198.973C23.8704 198.916 24.3382 198.973 24.5495 198.973C25.3338 198.973 26.1182 198.973 26.9028 198.973C30.4843 198.972 34.0655 198.955 37.6468 198.936C38.1315 198.509 39.8542 198.97 40.5646 198.716C40.636 198.346 40.7022 197.962 40.8786 197.625C41.0925 197.216 41.3659 196.936 41.3562 196.45L41.5911 196.49C42.1952 196.554 42.5836 196.616 43.054 196.214Z" fill="#202D3B"/>
<path d="M43.0544 196.214L46.9129 198.876L37.6475 198.936C38.1322 198.51 39.8549 198.97 40.5653 198.716C40.6367 198.347 40.7029 197.962 40.8793 197.625C41.0932 197.216 41.3666 196.937 41.3568 196.45L41.5918 196.49C42.1956 196.554 42.584 196.616 43.0544 196.214Z" fill="#F3F2E7"/>
<path d="M54.5276 194.702C54.5512 195.146 54.5748 195.547 54.4873 195.984C54.183 196.717 54.4033 198.041 54.4336 198.85L49.8031 198.866C49.3774 198.002 48.8983 197.171 48.2842 196.424C48.6087 196.223 49.0539 196.261 49.4292 196.236C50.3658 196.176 51.3168 196.145 52.2462 196.014C53.0061 195.908 53.715 195.709 54.4346 195.447L54.5276 194.702Z" fill="#95B0F9"/>
<path d="M157.504 37.6755C159.141 37.3232 160.163 37.9661 161.54 38.6785C162.046 38.6195 162.449 38.6701 162.948 38.7599L163.06 38.7823C164.104 39.3663 165.158 39.8275 166.113 40.5607L165.156 41.5055L165.715 42.8975C165.389 43.2529 164.803 43.6888 164.791 44.1687C164.907 44.3841 165.03 44.5956 165.123 44.8218C164.938 45.4642 164.764 45.688 164.213 46.0413L163.194 46.6706C162.708 47.0588 162.589 47.0731 161.966 47.1507L161.49 47.1014C161.06 47.6344 160.847 48.5314 160.567 49.1751L155.304 47.0737L153.544 46.3109C154.474 44.1702 154.432 41.9435 155.123 39.7938C155.308 39.219 155.704 38.9776 156.215 38.7214C156.579 38.3137 157.096 38.0495 157.504 37.6755Z" fill="#F4C28E"/>
<path d="M160.275 40.3989C160.759 40.5771 160.979 40.7432 161.286 41.1576L161.168 41.6646L160.668 41.8939L160.226 41.8467L159.993 41.6829C159.891 41.212 160.104 40.8287 160.275 40.3989Z" fill="#C8D4E2"/>
<path d="M161.31 40.8285L161.512 40.9825C162.07 41.3753 163.249 41.4839 163.929 41.5276C163.736 41.7528 163.512 41.8105 163.222 41.8436L161.536 41.8498C161.199 41.8175 161.16 41.8608 160.859 42.0277L160.669 41.894L161.169 41.6647L161.287 41.1576L161.31 40.8285Z" fill="#CE775F"/>
<path d="M159.447 42.6041L159.82 42.5269C160.127 42.7774 160.115 42.9728 160.323 43.1964C160.38 43.2578 160.811 43.3656 160.923 43.4062C160.564 43.7266 160.158 43.9448 160.164 44.4801C160.166 44.6503 160.193 44.7548 160.225 44.9153L160.413 45.0257L159.943 45.1939C159.552 44.3726 159.44 43.5079 159.447 42.6041Z" fill="#C8D4E2"/>
<path d="M158.695 38.1312C159.154 38.4606 159.305 38.7564 159.539 39.2637L159.419 39.5441C159.041 40.0365 158.717 40.417 158.205 40.7813L157.06 41.198C156.67 41.284 156.379 41.2267 156.033 41.0303L156.078 40.8858L156.611 40.7161C157.187 40.5369 157.699 40.2478 158.216 39.9392C158.624 39.6958 158.808 39.4999 158.928 39.0244C158.841 38.8021 158.775 38.5957 158.734 38.3613L158.695 38.1312Z" fill="#CE775F"/>
<path d="M162.802 196.132C162.923 196.958 162.663 197.83 162.717 198.669L162.652 198.948L176.267 198.931L206.203 198.93L206.446 199.102L206.354 199.323L101.48 199.321L63.4102 199.26L82.4761 199.166L81.7139 198.972L81.8967 198.445C82.7129 198.284 83.5894 198.335 84.4171 198.329C85.7221 198.32 87.0268 198.312 88.3318 198.305C93.0618 198.279 97.7994 198.207 102.529 198.277L102.657 198.781C103.376 198.944 104.211 198.867 104.946 198.873C106.636 198.888 108.349 198.838 110.036 198.928C111.533 198.928 113.227 199.077 114.698 198.862L114.899 198.374C119.593 198.218 124.315 198.408 129.011 198.441C130.494 198.451 131.978 198.449 133.461 198.453C134.209 198.456 135.208 198.335 135.904 198.608L136.016 198.909L140.099 198.925L151.726 198.934L154.557 198.833L154.756 198.619C154.751 198.446 154.78 198.25 154.849 198.09C155.208 197.258 156.1 196.789 156.891 196.465C158.163 196.291 159.297 196.131 160.584 196.25C161.246 196.288 162.229 196.493 162.802 196.132Z" fill="#3B219B"/>
<path d="M154.757 198.619C156.402 198.495 158.08 198.563 159.729 198.569C160.686 198.573 161.784 198.473 162.718 198.669L162.652 198.948L151.726 198.934L154.557 198.833L154.757 198.619Z" fill="#7280C1"/>
<path d="M162.802 196.132C162.923 196.958 162.663 197.83 162.717 198.669C161.783 198.473 160.686 198.573 159.729 198.569C158.079 198.564 156.401 198.495 154.756 198.619C154.751 198.446 154.78 198.25 154.849 198.09C155.208 197.258 156.1 196.789 156.891 196.465C158.163 196.291 159.297 196.131 160.584 196.25C161.246 196.288 162.229 196.493 162.802 196.132Z" fill="#202D3B"/>
<path d="M197.561 125.649C197.855 125.657 197.928 125.648 198.174 125.802L198.438 126.963L200.297 126.954C200.539 126.58 200.8 126.057 201.283 125.975C201.996 125.853 202.629 126.439 203.144 126.844L202.239 128.03C202.592 128.609 202.982 129.089 203.43 129.595L205.018 129.351C205.277 129.775 205.614 130.307 205.638 130.809C205.237 131.408 204.855 131.544 204.201 131.795L203.906 133.951C204.445 133.988 204.959 134.114 205.485 134.232C205.242 134.728 204.79 135.959 204.3 136.15C203.988 136.042 203.734 135.947 203.478 135.731C203.32 135.598 203.22 135.517 203.016 135.453C202.659 135.803 201.639 136.627 201.556 137.1C201.714 137.387 201.91 137.685 201.956 138.015C201.989 138.249 201.942 138.311 201.779 138.491C201.453 138.849 200.98 138.92 200.526 138.969L200.025 138.497C199.927 138.095 199.84 137.868 199.572 137.549C198.931 137.355 198.352 137.445 197.698 137.508L196.886 138.841C196.291 138.581 195.809 138.193 195.298 137.801L195.944 136.465L194.36 134.846C193.914 135.174 193.64 135.374 193.068 135.297C192.758 135.054 192.549 134.85 192.331 134.521C192.275 134.136 192.315 133.934 192.419 133.569C192.826 133.127 193.369 133.16 193.95 133.058L193.947 130.953L192.785 130.484C192.866 129.871 192.99 129.384 193.244 128.82C194.152 128.212 194.026 128.919 194.801 128.967C195.41 128.534 196.089 128.161 196.293 127.408C196.15 127.054 196.038 126.77 196.024 126.381C196.485 126.053 197.04 125.865 197.561 125.649Z" fill="#C8D4E2"/>
<path d="M198.076 129.292C198.703 129.2 199.759 129.119 200.332 129.459C200.947 129.825 201.782 130.742 201.934 131.434L201.962 131.579C202.07 132.118 202.051 132.511 201.882 133.038C201.539 134.105 200.867 134.632 199.901 135.121C199.174 135.262 198.603 135.333 197.876 135.105C197.032 134.838 196.577 134.32 196.192 133.534C195.922 132.981 195.91 131.851 196.114 131.27C196.449 130.314 197.217 129.743 198.076 129.292Z" fill="white"/>
<path d="M117.504 31.0179L118.046 31.5627C119.465 33.1093 121.097 35.1835 120.952 37.4113C120.851 38.9609 119.941 40.1088 118.8 41.0672C116.106 42.4482 113.619 42.4423 110.698 41.8518L109.368 47.6161C108.658 46.9443 108.158 45.9997 107.124 45.8508C106.816 46.0226 106.679 46.0647 106.538 46.4056C106.35 46.857 106.567 47.371 106.799 47.7553C107.148 48.3337 107.6 48.7876 108.078 49.2575L107.834 50.4978C105.978 49.1227 104.524 47.526 103.762 45.3088C103.374 44.1825 103.295 42.8059 103.867 41.7227C104.472 40.5789 105.502 39.9799 106.71 39.6362C106.937 38.6906 107.029 37.6755 107.572 36.8421C109.727 33.5278 113.401 36.0598 116.339 35.3006C116.947 35.1435 117.712 34.8144 118.008 34.2161C118.545 33.1332 117.921 32.0128 117.504 31.0179Z" fill="#202D3B"/>
<path d="M114.329 59.2427L114.891 59.311C115.131 59.4889 115.321 59.6152 115.458 59.8884C115.626 60.2268 115.597 60.655 115.465 61.0037C115.293 61.4612 115.159 61.6974 115.234 62.1936C115.639 64.8424 116.28 67.4594 116.807 70.0899C117.754 74.809 118.697 79.5302 119.684 84.2406C120.008 85.7836 120.332 87.3274 120.689 88.8632C120.953 89.998 121.284 91.1461 121.382 92.3094L119.508 95.8578L119.127 96.2627C118.648 96.0966 118.244 95.6016 117.877 95.2612C117.029 94.4735 116.196 93.6691 115.309 92.9254C115.083 91.9097 115.056 90.8037 114.964 89.7664C114.796 87.8676 114.649 85.9713 114.527 84.0686C114.238 79.5354 113.889 75.0178 113.692 70.4784C113.623 68.9153 113.559 67.3518 113.47 65.7895C113.423 64.9626 113.435 64.0514 113.272 63.2409C113.096 62.3603 112.696 61.6904 112.224 60.9459L112.674 59.3318L114.329 59.2427Z" fill="#F8B13D"/>
<path d="M110.699 41.8519C113.619 42.4424 116.106 42.4483 118.8 41.0673L119.138 42.296C119.306 42.7892 119.379 43.2978 119.389 43.8177L119.704 46.1276C120.028 47.4526 120.194 49.1219 119.967 50.4678C119.831 51.943 119.562 53.1692 118.333 54.1628C117.485 54.8483 116.665 54.83 115.638 54.7856C115.486 55.4272 115.343 57.0336 114.831 57.4454C114.288 57.8822 113.456 57.9284 112.785 57.8899C110.386 57.752 108.432 56.0932 106.936 54.3872C107.493 53.1119 107.69 51.8709 107.835 50.4978L108.079 49.2575C107.601 48.7877 107.148 48.3338 106.799 47.7553C106.568 47.371 106.35 46.857 106.538 46.4056C106.68 46.0647 106.816 46.0226 107.124 45.8508C108.158 45.9997 108.658 46.9443 109.368 47.6162L110.699 41.8519Z" fill="#F4C28E"/>
<path d="M109.607 49.6115C109.641 49.0462 109.737 48.7073 110.142 48.2814L111.168 48.9669C111.862 49.5148 112.835 49.7689 113.714 49.6688C114.286 49.6038 114.84 49.294 115.391 49.1307C116.524 48.7956 118.129 48.9812 119.104 49.6454C119.429 49.8667 119.703 50.1805 119.967 50.4678C119.832 51.943 119.563 53.1692 118.333 54.1628C117.485 54.8482 116.665 54.83 115.638 54.7856C115.031 54.6662 114.44 54.5479 113.864 54.3078C112.409 53.7004 111.013 52.781 110.273 51.3445C110.01 50.8321 109.891 50.2829 109.672 49.7561L109.607 49.6115Z" fill="#202D3B"/>
<path d="M115.825 50.2341C116.329 50.2049 116.965 50.1307 117.416 50.4056C117.713 50.5871 117.754 50.6329 117.843 50.9628C117.73 51.4783 117.402 51.7142 117.024 52.0593L116.418 51.8395C115.947 51.6131 115.162 50.8865 114.979 50.3851L115.825 50.2341Z" fill="#F3F2E7"/>
<path d="M84.3892 185.604L93.174 185.578C92.8626 186.593 92.251 187.672 92.0351 188.68C92.6118 189.171 93.02 189.832 93.4611 190.444C94.1414 191.388 94.8367 192.33 95.5635 193.238C97.6467 193.834 100.014 194.243 101.82 195.458C102.072 195.774 102.324 196.078 102.525 196.429C102.552 197.039 102.619 197.67 102.529 198.276C97.7992 198.206 93.0616 198.279 88.3317 198.305C87.0267 198.312 85.7219 198.319 84.4169 198.328C83.5889 198.334 82.7124 198.284 81.8965 198.444C82.1576 196.471 82.5109 194.492 82.87 192.534C83.0377 191.619 83.1044 190.631 83.4418 189.76L84.3892 185.604Z" fill="#202D3B"/>
<path d="M84.389 185.604L93.1739 185.578C92.8625 186.593 92.2509 187.672 92.035 188.68L90.5261 189.139C89.7041 190.061 88.7295 191.691 87.3721 191.745C86.2879 191.788 85.7325 190.775 84.939 190.24C84.4938 189.94 83.9646 189.834 83.4414 189.761L84.389 185.604Z" fill="#F4C28E"/>
<path d="M116.542 186.178L124.999 186.118C124.983 186.828 124.848 187.84 125.04 188.508C126.983 189.538 127.818 192.328 129.824 193.397C130.795 193.915 132.239 194.132 133.321 194.361C134.056 194.516 134.729 194.558 135.253 195.147C135.499 195.422 135.66 195.738 135.767 196.089C136.007 196.875 135.973 197.794 135.904 198.608C135.208 198.335 134.209 198.456 133.461 198.453C131.978 198.449 130.495 198.451 129.011 198.441C124.315 198.408 119.593 198.218 114.899 198.374L115.979 190.587C116.19 190.007 116.08 189.451 116.404 188.866L116.542 186.178Z" fill="#202D3B"/>
<path d="M116.542 186.178L124.999 186.118C124.984 186.828 124.848 187.84 125.04 188.508C124.785 188.525 124.001 188.489 123.813 188.591C123.536 188.74 123.131 189.185 122.914 189.42C122.221 190.172 121.806 191.088 120.667 191.221C119.829 191.319 119.226 190.729 118.654 190.204C117.975 189.579 117.221 189.275 116.404 188.866L116.542 186.178Z" fill="#F4C28E"/>
<path d="M84.8588 8.66678L87.2952 8.65857L87.276 10.2278C88.0175 10.4565 88.6899 10.6547 89.4734 10.6452C89.8922 10.3787 90.1651 9.84984 90.4385 9.44265C91.3096 9.87962 92.0642 10.4224 92.7918 11.0665L92.0341 12.4473L93.173 14.4421L95.2698 13.9143L96.0834 16.1703C95.4454 16.4824 94.7556 16.6899 94.085 16.9215L94.097 19.255L96.0478 19.9294C95.7926 20.7744 95.4311 21.5274 95.011 22.2986L92.8806 21.6629C92.4031 22.2378 91.9594 22.8427 91.3368 23.2665L92.4567 25.1081L90.4542 26.3641L89.3648 24.8165C88.8151 24.9687 88.0015 25.0457 87.5517 25.391C87.1874 25.6704 87.249 26.4827 87.2051 26.9279C86.6734 27.2742 85.2742 26.9358 84.648 26.8537L84.4655 25.674C84.1448 25.1656 83.4703 24.9376 82.9453 24.6763L81.6259 26.2249L79.5425 24.8244L80.7127 23.1343L79.3605 21.5464C78.7982 21.9179 78.3381 22.0496 77.6634 22.057C77.0752 21.6999 76.8475 20.5032 76.6144 19.8424L78.6377 19.2735L78.4996 17.4475L76.4775 16.5192L77.0524 14.1862L79.1451 14.732L80.1279 13.0054L79.1389 11.78C79.7615 11.0262 80.4403 10.4239 81.2059 9.81929L82.5237 10.9749L84.3782 10.3166C84.3669 9.84137 84.266 9.1836 84.4703 8.751L84.8588 8.66678Z" fill="#539FFB"/>
<path d="M85.3663 13.3723C86.0977 13.3271 86.9334 13.2914 87.6302 13.5335L87.8051 13.599L88.1396 13.724C89.3506 14.2359 90.2305 15.4136 90.6554 16.6329C90.9488 17.4745 90.717 18.4729 90.3427 19.2555C89.6793 20.6416 88.6482 21.2924 87.2405 21.7864C86.1992 21.9227 85.2395 21.8968 84.2911 21.3956C83.0911 20.7618 82.1779 19.7756 81.8361 18.4416C81.5953 17.5024 81.6947 16.4229 82.1974 15.5905C82.9938 14.2714 83.9332 13.7533 85.3663 13.3723Z" fill="white"/>
<path d="M9.61523 174.845C11.358 175.403 12.9993 176.117 14.6964 176.788C19.2353 178.584 23.6173 180.596 28.0265 182.679C33.7947 185.404 39.567 188.252 45.0545 191.512L44.6407 193.231C44.56 193.52 44.4923 193.769 44.3539 194.037C43.7965 194.409 43.2799 195.578 43.0543 196.214C42.5839 196.616 42.1955 196.554 41.5916 196.49L41.3567 196.45C38.4201 196.152 35.2304 196.365 32.3598 195.719C32.8186 194.94 33.1333 194.163 33.2278 193.26C33.1133 193.017 33.0329 192.814 32.8088 192.648C32.026 192.066 30.4501 193.027 29.5282 193.102C26.8435 193.32 24.8684 191.673 22.9313 190.059C21.5143 189.034 20.1775 187.638 18.9398 186.399C16.9534 184.834 15.4491 183.003 13.882 181.04C12.3297 179.096 10.7765 177.056 9.61523 174.845Z" fill="#F69AF3"/>
<path d="M18.9395 186.4L19.0848 186.424C20.0522 186.571 21.0986 186.417 22.0332 186.146C22.6755 185.96 23.2578 185.681 23.9405 185.754C24.1859 186.084 24.2971 186.348 24.247 186.768C24.1179 187.849 23.4178 189.09 22.931 190.06C21.514 189.035 20.1772 187.639 18.9395 186.4Z" fill="#F3F2E7"/>
<path d="M150.01 146.571C152.125 148.691 155.369 152.398 158.596 152.391C160.716 152.386 162.314 150.793 163.749 149.429C164.466 148.748 165.222 148.006 166.19 147.706C167.095 147.425 168.523 147.472 169.472 147.56L169.945 147.69L169.961 147.835C170.05 148.558 170.236 149.439 170.82 149.94C170.912 150.02 170.982 150.054 171.091 150.12C171.988 149.884 173.077 148.317 173.553 147.516C174.767 147.868 176.228 147.453 177.42 147.913C178.179 148.206 178.89 148.927 179.504 149.451C181.026 150.752 182.469 152.185 184.252 153.133L184.434 153.228C186.033 151.425 186.711 149.119 187.589 146.93L190.691 148.23L190.614 148.435C189.671 150.991 188.935 155.998 186.264 157.245C185.241 157.724 184.025 157.863 182.96 157.45C181.69 156.957 180.568 156.021 179.529 155.165C179.314 154.988 178.593 154.251 178.369 154.185C178.27 154.155 178.164 154.219 178.061 154.236C177.741 154.835 177.74 155.33 177.95 155.987L178.652 157.849C178.954 158.686 178.837 159.779 178.828 160.666C178.81 162.335 178.884 164.009 178.538 165.651C177.838 165.504 176.698 165.949 175.916 166.025C174.951 166.118 173.989 166.127 173.021 166.127C171.521 166.127 169.984 166.089 168.495 165.901C167.811 165.815 167.072 165.544 166.393 165.533L166.141 165.807C165.869 165.438 165.907 164.249 165.87 163.742C165.695 161.385 165.327 158.652 165.673 156.315L166.246 153.408C164.666 154.533 163.098 155.982 161.18 156.465L160.975 156.515C160.042 156.755 159.022 156.815 158.06 156.72C153.502 156.271 150.099 152.071 147.418 148.742C148.371 148.049 149.205 147.443 150.01 146.571Z" fill="#2574F0"/>
<path d="M178.538 165.651C179.151 165.508 179.678 165.017 180.176 164.648C181.244 163.859 182.277 163.023 183.404 162.319C184.127 163.808 184.532 165.541 184.928 167.149C185.275 168.556 185.67 169.975 185.859 171.413C187.013 170.424 188.162 169.464 189.453 168.653C192.792 166.553 197.047 165.115 200.933 164.497C200.676 167.761 200.102 170.94 199.234 174.096C198.82 175.599 198.438 177.032 197.744 178.436C196.938 179.175 195.896 179.633 194.951 180.172C193.606 180.941 192.263 181.764 191.039 182.716C190.163 183.398 189.337 184.132 188.56 184.924C188.041 185.452 187.35 186.494 186.737 186.85C184.538 187.975 182.438 188.951 180.582 190.624C179.9 191.239 179.271 191.933 178.656 192.614C178.307 193 177.959 193.5 177.501 193.756C178.19 186.999 178.266 180.087 178.425 173.298C178.462 171.743 178.445 170.187 178.438 168.632C178.433 167.647 178.363 166.622 178.538 165.651Z" fill="#6027CD"/>
<path d="M166.141 165.806L166.393 165.533C167.072 165.543 167.811 165.814 168.495 165.901C169.984 166.089 171.522 166.127 173.021 166.127C173.989 166.127 174.952 166.118 175.917 166.024C176.698 165.949 177.838 165.503 178.538 165.651C178.364 166.622 178.434 167.647 178.438 168.631C178.445 170.187 178.462 171.742 178.426 173.298C178.267 180.086 178.19 186.998 177.502 193.755L177.448 193.802C177.623 194.545 177.495 195.461 177.46 196.225L175.022 196.248C173.544 196.099 171.32 196.316 170.154 197.321C169.795 197.63 169.58 197.96 169.407 198.395L169.449 198.579C170.041 198.776 170.746 198.713 171.367 198.717C172.969 198.727 174.831 198.456 176.394 198.695L176.267 198.931L162.652 198.948L162.718 198.669C162.664 197.829 162.923 196.958 162.803 196.131C162.23 196.492 161.246 196.288 160.585 196.25L160.797 193.31L161.636 184.975C162.059 181.409 162.618 177.971 163.608 174.511C164.085 172.843 164.552 171.165 165.078 169.512C165.456 168.328 166.031 167.048 166.141 165.806Z" fill="#202D3B"/>
<path d="M177.447 193.802C177.623 194.545 177.494 195.461 177.46 196.225L175.022 196.248L174.449 194.073C175.444 194.048 176.481 194.058 177.447 193.802Z" fill="#F3F2E7"/>
<path d="M160.797 193.31L163.783 193.789C163.497 194.458 162.891 195.437 162.803 196.132C162.23 196.492 161.246 196.288 160.585 196.25L160.797 193.31Z" fill="white"/>
<path d="M167.086 185.02C167.68 183.724 168.032 182.222 168.463 180.857C169.42 177.826 170.348 174.721 171.42 171.733L172.965 184.975L167.086 185.02Z" fill="white"/>
<path d="M172.964 184.975C173.278 187.268 173.564 189.567 173.912 191.855C174.009 192.493 174.038 193.602 174.449 194.073L175.022 196.249C173.544 196.099 171.32 196.316 170.154 197.321C169.795 197.631 169.58 197.961 169.407 198.396L169.449 198.579C170.041 198.776 170.746 198.713 171.367 198.718C172.969 198.728 174.831 198.456 176.394 198.696L176.267 198.931L162.652 198.948L162.718 198.669C162.663 197.83 162.923 196.958 162.803 196.132C162.891 195.437 163.497 194.458 163.783 193.789L167.086 185.021L172.964 184.975Z" fill="url(#paint0_linear_6695_750)"/>
<path d="M197.744 178.436C198.302 178.389 199.045 177.753 199.546 177.483C200.74 176.839 201.984 176.157 203.245 175.651C207.34 174.01 211.814 173.136 216.218 173.625C216.816 173.692 217.624 173.678 218.169 173.936C218.421 174.055 218.339 173.977 218.43 174.249L218.25 174.462C218.147 174.787 218.069 175.066 217.833 175.32C217.553 175.621 217.468 175.994 217.296 176.359C217.022 176.938 216.653 177.497 216.335 178.054C215.171 180.092 213.69 182.311 212.056 183.992C211.559 184.332 211.171 185.044 210.747 185.495C209.812 186.487 208.81 187.429 207.794 188.338C205.566 190.332 203.269 192.334 200.771 193.985C197.943 195.853 194.754 197.385 191.673 198.794C195.122 198.982 198.607 198.839 202.06 198.837C203.379 198.836 204.926 198.681 206.204 198.93L176.268 198.931L176.394 198.695C174.831 198.456 172.97 198.727 171.367 198.717C170.747 198.713 170.042 198.776 169.45 198.579L169.407 198.395C169.581 197.96 169.795 197.63 170.154 197.321C171.321 196.316 173.544 196.099 175.023 196.248L177.461 196.225C177.495 195.461 177.623 194.544 177.448 193.802L177.502 193.755C177.96 193.5 178.308 192.999 178.657 192.614C179.272 191.933 179.901 191.239 180.583 190.624C182.439 188.951 184.539 187.974 186.738 186.849C187.351 186.494 188.042 185.451 188.56 184.923C189.338 184.132 190.164 183.398 191.04 182.716C192.264 181.764 193.607 180.941 194.952 180.172C195.896 179.632 196.938 179.174 197.744 178.436Z" fill="#C8D4E2"/>
<path d="M185.209 192.335C187.719 191.065 190.09 189.505 192.573 188.178C195.283 186.729 197.998 185.299 200.699 183.832C201.886 183.186 203.29 182.593 204.342 181.749L204.408 181.451C204.672 180.712 204.55 179.623 204.555 178.819L204.685 178.82C204.698 179.703 204.54 180.745 204.645 181.579C205.312 181.443 206.05 180.929 206.662 180.605C208.314 179.728 209.944 178.808 211.591 177.92C212.911 177.209 214.294 176.597 215.597 175.858C216.307 175.455 217.668 174.29 218.43 174.25L218.25 174.463L204.863 181.896L204.878 182.018C206.344 182.84 211.062 183.039 211.987 183.967L204.417 182.146L194.942 187.232C197.359 187.948 199.745 188.756 202.151 189.505C202.635 189.656 204.156 189.959 204.428 190.348C203.913 190.606 199.775 189.009 198.964 188.738L194.812 187.392L185.212 192.662C187.128 192.915 188.898 193.549 190.692 194.256C191.164 194.442 191.921 194.653 192.288 194.994L192.169 195.08C191.003 194.604 189.818 194.214 188.628 193.805C187.688 193.481 186.733 193.107 185.751 192.942L184.921 192.801L177.345 196.674C177.308 197.273 177.412 198.192 177.026 198.643L176.393 198.695C174.83 198.456 172.969 198.727 171.366 198.717C170.746 198.713 170.041 198.776 169.449 198.579L169.406 198.395C169.58 197.96 169.794 197.63 170.153 197.321C171.32 196.316 173.543 196.099 175.022 196.248L177.46 196.225C178.762 195.891 179.958 195.095 181.132 194.456C182.371 193.783 183.639 193.157 184.89 192.506L186.062 188.546C186.077 188.738 186.082 188.873 186.027 189.061C185.714 190.141 185.384 191.225 185.209 192.335Z" fill="#202D3B"/>
<path d="M197.744 178.436C198.302 178.389 199.045 177.753 199.546 177.483C200.74 176.839 201.984 176.157 203.245 175.651C207.34 174.01 211.814 173.136 216.218 173.625C216.816 173.692 217.624 173.678 218.169 173.936C218.421 174.055 218.339 173.977 218.43 174.249C217.669 174.29 216.307 175.455 215.597 175.857C214.295 176.597 212.911 177.208 211.591 177.92C209.944 178.808 208.314 179.728 206.662 180.604C206.051 180.929 205.312 181.442 204.645 181.579C204.541 180.744 204.698 179.703 204.686 178.819L204.555 178.819C204.55 179.623 204.672 180.711 204.408 181.451L204.343 181.749C203.29 182.593 201.887 183.186 200.699 183.832C197.998 185.299 195.283 186.729 192.573 188.177C190.09 189.504 187.719 191.064 185.209 192.334C185.384 191.225 185.714 190.14 186.027 189.061C186.082 188.873 186.078 188.738 186.062 188.546L184.89 192.506C183.64 193.157 182.371 193.783 181.132 194.456C179.958 195.095 178.763 195.891 177.46 196.225C177.494 195.461 177.623 194.544 177.447 193.802L177.501 193.755C177.959 193.5 178.307 192.999 178.656 192.614C179.271 191.933 179.9 191.239 180.583 190.624C182.438 188.951 184.538 187.974 186.737 186.849C187.35 186.494 188.041 185.451 188.56 184.923C189.337 184.132 190.163 183.398 191.039 182.716C192.264 181.764 193.606 180.941 194.951 180.172C195.896 179.632 196.938 179.174 197.744 178.436Z" fill="#C8D4E2"/>
<path d="M151.687 45.7579C152.349 45.8876 152.919 46.0581 153.544 46.311L155.303 47.0737L160.566 49.1751L161.328 49.4866C161.005 51.0804 160.229 52.7554 159.657 54.2825C158.396 57.6475 157.089 60.9985 155.777 64.3438C155.202 65.8093 154.759 67.6103 153.983 68.9669C153.72 69.4262 153.222 69.943 152.783 70.2301C152.199 70.6108 151.659 70.8075 150.975 70.9084C148.599 71.2588 145.983 71.1903 143.573 71.3022C141.106 71.417 138.64 71.6165 136.173 71.7343C133.347 71.8694 130.512 71.9235 127.691 72.1572L130.082 93.1834L130.236 93.8457L133.151 118.341C132.178 118.412 127.374 118.505 126.946 118.87L126.903 119.222L126.867 119.062C126.343 117.359 126.552 115.239 126.476 113.448C126.363 110.771 126.089 108.093 125.888 105.421C125.84 104.774 125.908 103.251 125.537 102.787C125.707 102.433 125.585 101.991 125.543 101.614C125.41 100.438 125.245 99.265 125.112 98.0884C124.746 94.8432 124.46 91.5918 124.086 88.3469C123.827 86.0986 123.333 83.5857 123.399 81.3415C123.662 80.6049 123.555 79.8157 123.441 79.056C122.773 74.5739 123.406 69.9135 122.963 65.3898C122.796 63.6804 122.181 61.9556 121.715 60.3061C121.421 59.266 121.223 58.2006 120.94 57.1564C121.844 57.1117 122.786 57.3718 123.683 57.4735C126 57.7359 128.307 57.9993 130.618 58.3187C135.703 59.0211 140.802 59.5443 145.851 60.4963L151.687 45.7579Z" fill="#6027CD"/>
<path d="M126.93 156.66C128.945 156.602 130.96 156.566 132.976 156.532C133.764 156.518 134.747 156.381 135.517 156.538C135.829 156.601 136.158 156.769 136.393 156.978C136.663 157.218 136.872 157.548 137.002 157.88C137.156 158.754 137.102 159.668 137.104 160.553C137.107 161.981 137.109 163.408 137.109 164.836C137.112 169.058 137.219 173.318 137.07 177.537L144.173 177.499L144.2 177.17L144.737 177.024C145.085 176.653 144.933 174.732 144.951 174.134C145.01 175.18 145.074 176.229 145.024 177.275L145.018 177.641L151.642 177.771C151.627 179.068 151.422 180.683 151.823 181.919L151.877 182.094C152.191 183.036 152.991 183.939 153.877 184.389C155.108 185.015 156.353 184.95 157.699 184.959C159.011 184.968 160.324 184.972 161.636 184.975L160.798 193.31L160.586 196.251C159.298 196.131 158.164 196.291 156.892 196.466C156.101 196.789 155.209 197.258 154.85 198.09C154.78 198.25 154.752 198.447 154.758 198.619L154.558 198.833L151.726 198.934L140.1 198.924L136.017 198.909L135.904 198.607C135.973 197.793 136.008 196.875 135.768 196.089C135.66 195.737 135.5 195.421 135.254 195.146C134.73 194.558 134.057 194.516 133.322 194.361C132.24 194.132 130.796 193.914 129.825 193.397C127.819 192.328 126.984 189.537 125.04 188.508C124.848 187.84 124.984 186.828 125 186.118C125.518 186.063 126.057 186.091 126.579 186.09L126.93 156.66Z" fill="#2574F0"/>
<path d="M137.002 157.88C137.155 158.754 137.101 159.668 137.103 160.554C137.107 161.981 137.108 163.408 137.108 164.836C137.111 169.058 137.218 173.318 137.069 177.537L144.172 177.499L144.199 177.17L144.736 177.024C145.084 176.653 144.932 174.732 144.95 174.134C145.01 175.18 145.074 176.229 145.023 177.275L145.017 177.641L145.252 198.716H154.364C154.502 198.487 154.57 198.478 154.525 198.203L154.591 198.101L154.783 197.747C155.076 197.203 155.559 196.967 155.969 196.535L156.161 196.534L156.386 196.438C156.494 196.408 156.795 196.457 156.891 196.465C156.1 196.789 155.209 197.258 154.849 198.09C154.78 198.25 154.751 198.446 154.757 198.619L154.557 198.833L151.726 198.934L140.099 198.925L136.856 198.862L136.875 197.251C136.799 195.892 136.888 194.489 136.9 193.125C136.924 190.559 136.945 187.994 136.96 185.427C136.97 183.712 136.98 181.996 136.993 180.281C136.998 179.554 136.894 178.654 137.054 177.96L137.096 177.793C137.022 177.664 136.997 177.639 136.963 177.472C136.869 177.006 136.98 176.341 136.989 175.848C137.009 174.741 137.005 173.634 137.01 172.528C137.027 167.649 136.905 162.755 137.002 157.88Z" fill="#539FFB"/>
<path d="M144.951 174.134C145.01 175.18 145.074 176.229 145.024 177.275L145.018 177.641L145.253 198.716H154.365C154.502 198.487 154.571 198.478 154.526 198.203L154.592 198.101L154.784 197.747C155.077 197.203 155.56 196.967 155.97 196.535L156.162 196.534L156.387 196.438C156.495 196.408 156.796 196.457 156.892 196.465C156.101 196.789 155.209 197.258 154.85 198.09C154.78 198.25 154.752 198.447 154.758 198.619L154.558 198.833L151.727 198.934L140.1 198.925L136.856 198.862L136.876 197.251C137.211 196.214 137.041 194.745 137.05 193.646C137.231 195.311 137.111 197.042 137.099 198.718C137.548 198.723 138.014 198.649 138.447 198.654C138.857 198.659 139.361 198.628 139.763 198.668C140.203 198.71 140.641 198.612 141.079 198.684C141.858 198.811 143.328 198.818 144.095 198.654L144.097 198.268L144.128 197.305L144.173 177.499L144.2 177.171L144.737 177.024C145.085 176.652 144.933 174.732 144.951 174.134Z" fill="#95B0F9"/>
<path d="M145.018 177.641L151.641 177.771C151.626 179.068 151.421 180.683 151.822 181.919L151.877 182.094C152.19 183.036 152.991 183.939 153.876 184.389C155.107 185.015 156.353 184.95 157.698 184.959C159.01 184.968 160.323 184.972 161.636 184.975L160.797 193.31L160.585 196.25C159.297 196.131 158.163 196.291 156.891 196.466C156.795 196.458 156.494 196.408 156.386 196.438L156.162 196.534L155.97 196.535C155.559 196.967 155.076 197.203 154.784 197.748L154.591 198.101L154.526 198.203C154.57 198.478 154.502 198.487 154.364 198.716H145.252L145.018 177.641Z" fill="#539FFB"/>
<path d="M81.5918 93.3371C79.8994 91.7068 77.9898 90.103 77.1197 87.8614C76.5893 86.4943 76.6766 84.3815 77.3246 83.0486C77.97 81.7215 79.0943 80.4367 79.9256 79.1954C82.1009 75.9495 84.3543 72.7736 86.6884 69.6403C89.4244 65.9661 92.294 62.0881 96.0188 59.3566C98.0665 57.855 100.637 57.0111 103.004 56.1661C102.771 58.352 102.342 61.0296 102.657 63.2136C102.78 64.0622 103.247 64.9474 103.561 65.7459C104.453 68.0159 105.394 70.2586 106.312 72.5171C106.844 73.8242 107.27 75.4514 107.978 76.6496L108.107 103.593L104.388 99.5815C103.253 100.084 102.479 101.02 101.65 101.914C100.726 102.909 99.797 103.9 98.8642 104.887C98.3977 105.38 97.8234 106.145 97.1728 106.377L96.0357 106.991C95.1882 106.222 94.4085 105.371 93.6031 104.558C93.1867 104.138 92.7531 103.635 92.1759 103.449L82.2291 93.9548C82.0517 93.6796 81.8475 93.534 81.5918 93.3371Z" fill="url(#paint1_linear_6695_750)"/>
<path d="M96.0361 106.991L96.1003 106.885C96.6184 106.123 97.4487 105.39 98.0962 104.721C99.2931 103.485 100.489 102.248 101.657 100.985C102.058 100.551 103.2 98.9898 103.708 98.8796L104.388 99.5816C103.253 100.084 102.479 101.02 101.649 101.914C100.725 102.909 99.7969 103.9 98.8641 104.887C98.3976 105.38 97.8233 106.145 97.1727 106.377L96.0361 106.991Z" fill="#F3F2E7"/>
<path d="M94.2216 81.7407L94.3805 81.8999L93.8085 87.734L93.0185 86.8206L91.5312 85.3115C92.2912 84.0172 93.2506 82.8781 94.2216 81.7407Z" fill="white"/>
<path d="M100.968 67.1084L101.154 67.33C100.797 68.7225 99.9863 70.0943 99.3942 71.4029C98.2967 73.8288 97.177 76.2093 95.9832 78.5893C95.4492 79.6547 95.0009 80.7651 94.3429 81.7631L94.127 81.5179C95.4961 78.4119 96.9742 75.3603 98.3994 72.2807C98.8946 71.2103 99.3762 70.1343 99.8682 69.0627C100.18 68.3821 100.449 67.6596 100.968 67.1084Z" fill="#3B219B"/>
<path d="M144.172 93.8478C144.544 93.7423 144.611 93.7246 144.982 93.8214C144.967 103.909 144.91 113.996 144.93 124.084C144.934 125.967 144.941 127.851 144.944 129.735C144.945 130.388 144.81 131.495 145.065 132.063L145.695 132.125L145.667 132.309L144.981 132.395C144.82 133.822 144.932 135.376 144.932 136.818C144.933 139.644 144.935 142.471 144.935 145.297C144.931 154.909 144.944 164.521 144.951 174.133C144.933 174.732 145.085 176.652 144.737 177.023L144.2 177.17L144.173 177.498L137.07 177.537C137.219 173.318 137.112 169.058 137.109 164.835C137.109 163.408 137.107 161.98 137.104 160.553C137.102 159.668 137.156 158.754 137.003 157.88C136.872 157.547 136.663 157.218 136.393 156.978C136.158 156.768 135.829 156.601 135.517 156.537C134.747 156.381 133.764 156.518 132.976 156.531C130.96 156.565 128.945 156.602 126.93 156.66C126.688 151.861 126.871 146.957 126.873 142.148C126.874 140.487 126.874 138.826 126.882 137.166C126.887 136.284 126.812 135.331 126.977 134.467L127.402 134.283L127.558 134.228L127.086 134.162C126.708 133.611 126.941 131.13 126.943 130.339C126.951 126.646 127.077 122.91 126.903 119.223L126.946 118.87C127.373 118.506 132.178 118.413 133.151 118.342L130.236 93.8463L144.172 93.8478Z" fill="#F3F2E7"/>
<path d="M144.172 93.8478C144.544 93.7423 144.611 93.7246 144.982 93.8214C144.967 103.909 144.91 113.996 144.93 124.084C144.934 125.967 144.941 127.851 144.944 129.735C144.945 130.388 144.81 131.495 145.065 132.063L145.694 132.125L145.667 132.309L144.981 132.395C144.82 133.822 144.932 135.376 144.932 136.818C144.932 139.644 144.935 142.471 144.934 145.297C144.931 154.909 144.943 164.521 144.951 174.133C144.933 174.732 145.085 176.652 144.737 177.023L144.2 177.17C144.077 175.834 144.156 174.434 144.155 173.091C144.154 170.711 144.155 168.332 144.157 165.952C144.16 157.997 144.185 150.041 144.184 142.086C144.183 139.789 144.179 137.492 144.177 135.195C144.177 134.345 144.303 133.319 144.2 132.492C144.049 131.291 144.172 129.942 144.175 128.725C144.181 126.171 144.188 123.616 144.193 121.062C144.214 111.996 144.308 102.913 144.172 93.8478Z" fill="#539FFB"/>
<path d="M157.504 37.6755C152.33 36.0552 148.028 32.8604 145.458 28.0147C143.664 24.6324 142.83 20.6306 143.352 16.8165C143.999 12.083 146.462 7.29889 150.289 4.37386C154.61 1.07039 160.005 -0.521136 165.433 0.206463C170.733 0.916604 175.215 3.45036 178.437 7.73535C180.459 10.4255 181.626 13.3269 182.076 16.6534C182.769 21.7728 181.297 27.0362 178.164 31.1197C175.042 35.1885 170.14 38.0611 165.019 38.6319L163.06 38.7821L162.948 38.7597C162.449 38.6699 162.045 38.6193 161.539 38.6783C160.163 37.9662 159.141 37.3233 157.504 37.6755Z" fill="#A57BF0"/>
<path d="M163.59 5.62183C164.785 6.29833 165.908 7.26778 167.009 8.09422C169.026 9.60745 171.036 11.1214 173.031 12.6634C174.7 13.9535 176.503 15.0295 177.977 16.5528L170.612 16.5083L170.598 29.02L164.312 28.9173L156.761 29.0149L156.732 16.572L149.8 16.4765C150.934 15.2755 152.401 14.3101 153.717 13.3099C155.841 11.6963 157.957 10.0814 160.064 8.44493C161.254 7.5199 162.478 6.64288 163.59 5.62183Z" fill="white"/>
<path d="M13.0674 94.3143L13.0995 93.3248C13.4268 87.2075 15.7318 81.9099 20.3526 77.8083C24.4556 74.1659 29.9685 72.4912 35.4063 72.8422C40.5662 73.1754 45.7054 75.5451 49.1239 79.4604C52.2027 82.9864 54.4951 88.6465 54.1534 93.35L54.1457 94.0663L54.1044 94.2447C53.7893 95.6861 53.8232 97.2103 53.4756 98.6758C52.2587 103.805 48.568 108.107 44.2759 110.969C40.0638 113.779 34.2515 114.593 29.3411 113.581C23.9647 112.473 19.2081 109.095 16.2027 104.526C14.2766 101.598 13.1031 97.8178 13.0674 94.3143Z" fill="#F8B13D"/>
<path d="M22.3213 102.325C27.3862 102.249 32.4669 102.318 37.5336 102.32C39.131 102.32 40.7285 102.322 42.3259 102.329C43.2694 102.332 44.2561 102.274 45.1862 102.439C45.3952 102.749 45.302 103.101 45.2913 103.469C39.9382 103.778 34.5049 103.542 29.14 103.54C27.9678 103.539 23.1529 103.843 22.3801 103.338L22.3213 102.325Z" fill="white"/>
<path d="M32.2846 82.1903C33.7066 82.0352 35.1613 82.0789 36.4119 82.8568C38.0106 83.8511 38.31 85.569 38.6763 87.2683C39.0571 87.399 39.2612 87.5228 39.5695 87.7821C39.8381 88.2796 39.8656 88.99 39.7218 89.5341L39.6833 89.6666C39.4735 90.4209 38.8042 91.0689 38.3141 91.6655C38.2016 93.4504 38.2304 95.3826 37.6332 97.0838C37.0961 98.6139 36.1279 99.6137 34.7095 100.325C34.3611 100.429 34.0484 100.486 33.6835 100.502C32.53 100.552 31.4555 100.202 30.6209 99.3882C28.5616 97.3787 28.8093 93.7672 28.7084 91.1238L27.3867 89.7877C27.3095 89.2855 27.2137 88.7608 27.2717 88.2527C27.3672 87.4139 27.9 87.0999 28.5251 86.6334L29.4391 84.2745C30.0766 83.064 31.0453 82.5821 32.2846 82.1903Z" fill="white"/>
<path d="M34.9179 57.3689C34.2794 56.5928 33.5007 55.9381 32.8799 55.1347C30.892 52.5632 29.3914 48.9976 28.729 45.8279C27.815 41.4554 28.6758 36.4182 30.675 32.4621C32.4394 28.9707 35.1023 26.1869 38.3713 24.088C39.4088 23.4218 40.5267 22.7448 41.7053 22.3581C47.8992 20.3273 54.1177 20.6215 59.9731 23.5843C65.1351 26.1961 69.2863 31.4356 71.0496 36.9178C71.446 38.1504 71.3544 39.5471 71.7736 40.7291L71.8625 40.9655C71.7331 41.362 71.8304 41.9386 71.836 42.3589C71.8468 43.1391 71.8206 43.9198 71.7801 44.6991C71.5413 49.306 69.6386 53.5021 66.6178 56.9504C65.3356 58.2726 63.9641 59.66 62.2889 60.4757L61.1908 61.1912C57.3439 63.9697 51.6964 64.4582 47.1634 63.7286C45.3713 63.4403 43.5626 62.9129 41.9069 62.1702C39.5182 61.1632 37.5102 59.7075 35.6119 57.962C35.3341 57.7881 35.1444 57.6017 34.9179 57.3689Z" fill="#C8D4E2"/>
<path d="M43.1202 44.9769L43.0291 40.5086C43.1379 36.8973 43.2899 31.58 46.2019 28.9874C47.8969 27.4786 49.9911 26.8611 52.2406 27.1037C53.6799 27.2588 55.12 28.2601 56.016 29.3592C58.1277 31.9507 57.424 36.1214 57.3143 39.2044C57.2589 40.7633 57.3495 42.3471 57.1803 43.8981C57.3225 44.1048 57.4006 44.1923 57.6309 44.2955C58.2671 44.5828 58.9451 44.8827 59.4507 45.3769C60.6178 46.5181 61.5246 48.3209 62.4039 49.7125C63.4209 51.3222 64.4622 52.9107 65.4021 54.5677C65.8168 55.2981 66.2953 56.0511 66.5829 56.8408L66.6188 56.9505C65.3367 58.2727 63.9652 59.6601 62.2899 60.4758L61.1919 61.1913C57.3449 63.9697 51.6974 64.4583 47.1644 63.7286C45.3723 63.4403 43.5636 62.913 41.9079 62.1702C39.5192 61.1633 37.5112 59.7076 35.6129 57.962C35.3351 57.7879 35.1454 57.6016 34.9189 57.3687C35.713 55.3571 36.7218 53.3556 37.6863 51.418C38.453 49.8778 39.1808 48.2709 40.1741 46.8614C41.0858 45.5677 41.5587 45.2413 43.1202 44.9769Z" fill="#202D3B"/>
<path d="M59.5186 54.5964C60.0462 55.0948 60.277 55.8439 60.5545 56.5012C61.1078 57.8118 61.6074 59.228 62.2893 60.4758L61.1912 61.1913C60.8356 58.9977 59.6793 56.8072 59.5186 54.5964Z" fill="#8CC7D0"/>
<path d="M43.7803 44.7661L47.3587 43.4622C48.0599 43.8963 48.7112 44.5808 49.2283 45.2236L49.1115 45.4447L49.0519 45.7048L48.864 45.856C48.6991 45.9905 48.5774 46.1153 48.4552 46.2914C47.9472 46.5841 47.4442 46.8234 46.9004 47.0432L43.7803 44.7661Z" fill="#6027CD"/>
<path d="M49.2217 41.2067C49.4022 41.7035 49.384 41.8893 49.8718 42.1273C50.6309 42.4973 51.9257 42.5317 52.7552 42.4544C53.0345 42.1995 53.0908 42.0313 53.2045 41.6837C53.6967 42.3918 54.1341 42.848 54.9326 43.1895C55.7116 43.2747 56.347 43.7363 57.0101 44.1271C57.1257 44.7017 57.146 44.8824 56.7906 45.3866C55.9634 46.5594 54.6954 47.456 53.7824 48.5859C53.4304 49.0216 52.946 49.4046 52.6502 49.8732C52.3798 50.3011 51.891 50.6924 51.5293 51.0531C50.8153 50.5733 50.2445 49.972 49.5932 49.4223C48.7819 48.7376 48.1567 47.8216 47.291 47.1622C47.5924 47.0028 48.3128 46.726 48.4304 46.3954L48.4558 46.2914C48.5781 46.1153 48.6997 45.9905 48.8646 45.856L49.0525 45.7047L49.1121 45.4447L49.2289 45.2236C48.7118 44.5807 48.0605 43.8963 47.3593 43.4621C47.661 43.3433 47.9955 43.2372 48.2659 43.056C48.9026 42.629 49.0707 41.9037 49.2217 41.2067Z" fill="#3B219B"/>
<path d="M49.2218 41.2067C49.4022 41.7035 49.384 41.8893 49.8718 42.1273C50.631 42.4973 51.9257 42.5317 52.7553 42.4544C53.0346 42.1995 53.0908 42.0313 53.2046 41.6837C53.6967 42.3918 54.1342 42.848 54.9327 43.1895C54.3168 43.7258 53.9291 44.3984 53.4662 45.0606C52.7591 46.0716 52.0919 47.0631 51.4536 48.1194L49.229 45.2236C48.7119 44.5807 48.0605 43.8963 47.3594 43.4621C47.661 43.3433 47.9956 43.2372 48.2659 43.056C48.9026 42.629 49.0708 41.9037 49.2218 41.2067Z" fill="#F4C28E"/>
<path d="M51.6734 30.6873C52.7584 31.8254 53.8544 32.078 55.1497 32.8051C55.4983 33.001 55.7263 33.3933 55.8244 33.7712C56.2511 35.4138 56.0667 37.9504 55.1764 39.4043L54.5263 40.2621C54.1258 40.5905 53.7448 40.9499 53.2644 41.1543L53.2046 41.6837C53.0909 42.0313 53.0346 42.1994 52.7553 42.4544C51.9258 42.5317 50.6311 42.4973 49.8719 42.1273C49.3841 41.8893 49.4023 41.7034 49.2218 41.2066L49.1982 40.8054C48.8973 40.4313 48.4947 40.1106 48.1412 39.7843C47.5268 39.2174 47.3676 38.7473 47.1381 37.9704L47.0316 37.9412L46.8552 37.8901C46.3101 37.7401 45.847 37.5943 45.5101 37.1006C45.2036 36.6513 45.2231 36.2046 45.3479 35.7024C45.6554 35.4364 45.6796 35.3699 46.078 35.3419C46.5895 35.7291 46.6893 36.1694 46.943 36.7458C47.6729 36.0708 48.4519 35.4847 49.2513 34.8962C49.6806 34.5802 50.2321 34.2503 50.5561 33.8254C51.2611 32.9016 51.4673 31.7995 51.6734 30.6873Z" fill="#F4C28E"/>
<path d="M52.2072 40.2645L51.4124 40.0316C51.0594 39.8606 50.9605 39.6311 50.8496 39.2812C50.9505 38.9477 50.9582 38.9027 51.2221 38.6806C51.9117 38.6429 52.6732 38.5428 53.3143 38.8478C53.8296 39.093 54.2357 39.1954 54.8106 39.2008C55.0116 39.2029 55.0293 39.2763 55.1764 39.4044L54.5264 40.2622C53.8445 40.18 52.8879 40.1435 52.2072 40.2645Z" fill="white"/>
<path d="M52.2072 40.2645C52.8878 40.1436 53.8445 40.18 54.5264 40.2622C54.1258 40.5905 53.7448 40.95 53.2645 41.1543L53.2047 41.6837C53.0909 42.0314 53.0347 42.1995 52.7554 42.4545C51.9258 42.5317 50.6311 42.4973 49.8719 42.1274C49.3841 41.8894 49.4023 41.7035 49.2219 41.2067L49.1982 40.8054L49.4855 40.8047C50.0809 40.2899 51.3561 40.3826 52.1184 40.399L52.2072 40.2645Z" fill="#CE775F"/>
<path d="M52.207 40.2645C52.8877 40.1436 53.8443 40.18 54.5262 40.2622C54.1257 40.5905 53.7447 40.95 53.2643 41.1543C51.8812 41.2624 50.8076 41.3007 49.4854 40.8047C50.0807 40.2899 51.356 40.3826 52.1182 40.399L52.207 40.2645Z" fill="#F3F2E7"/>
<path d="M172.334 106.853C170.685 105.033 169.266 102.889 168.471 100.557C166.147 93.7387 166.722 87.236 169.9 80.8213C172.882 74.8041 178.468 69.8755 184.861 67.7482C189.945 66.056 196.034 65.6804 201.176 67.3233C202.834 67.8529 204.42 68.637 205.972 69.4165C207.467 70.1667 208.657 71.132 209.891 72.2439C212.884 74.942 215.439 78.3813 216.674 82.2678C218.396 87.6876 218.275 93.9574 216.304 99.2937C215.818 100.611 215.139 101.871 214.502 103.119C213.078 105.975 211.144 108.266 208.731 110.332L205.008 112.898C203.986 113.696 202.862 114.153 201.668 114.632C199.228 115.614 196.164 116.426 193.513 116.296L193.154 116.346C189.581 116.26 185.356 115.617 182.161 113.921L178.592 112.021L178.497 111.974L178.342 111.891C176.253 110.803 173.72 108.756 172.334 106.853Z" fill="#F4C28E"/>
<path d="M189.601 75.9585C190.41 75.4165 190.822 75.4077 191.759 75.5223L191.91 75.7382L191.72 75.9795L190.567 76.0671L190.373 76.1359C190.125 76.2599 190.088 76.3723 189.795 76.3947L189.601 75.9585Z" fill="#202D3B"/>
<path d="M192.961 78.6552L194.429 78.9437L195.442 79.0485C195.624 79.3792 195.727 79.6364 195.614 80.0249C195.552 80.2382 195.396 80.4562 195.276 80.6421C195.031 80.7229 194.965 80.7276 194.72 80.7073C194.356 80.84 194.168 81.0259 193.902 81.2929L193.336 81.9984C192.562 81.972 192.415 82.0112 191.803 81.4816L191.551 81.1296C191.737 80.7124 192.098 80.4457 192.49 80.2061C192.846 79.9881 193.091 80.0308 193.475 80.135L193.581 80.1655L193.772 79.9743C193.62 79.745 193.647 79.8421 193.613 79.582L193.596 79.4051C193.341 79.192 193.159 78.9204 192.961 78.6552Z" fill="#F3F2E7"/>
<path d="M189.54 70.4108L191.957 69.6411C193.266 69.3741 196.281 69.5428 197.391 70.3251C198.109 70.8311 198.367 71.5276 198.846 72.208C199.25 72.7818 200.026 72.9071 200.144 73.7248C200.294 74.7643 199.624 75.7872 199.025 76.5731C198.635 76.9777 198.21 77.9631 198.213 78.5379L198.243 78.7762L197.896 79.2683C197.216 78.8763 197.313 76.6442 196.957 75.8655C196.798 75.5174 196.663 75.5035 196.33 75.3602C194.151 74.9574 191.985 74.9564 189.988 73.8989L189.368 75.6221C189.323 76.0177 189.257 76.3728 189.156 76.7579L188.884 77.5946L188.733 77.5995L188.466 77.2293C188.569 76.7597 188.4 76.2919 188.284 75.836C188.01 74.7551 187.586 73.76 187.557 72.6272C187.533 71.6742 187.675 70.9582 188.339 70.2501C188.834 70.1248 189.059 70.2604 189.54 70.4108Z" fill="#202D3B"/>
<path d="M195.71 86.3784C197.005 86.3216 197.888 87.1851 198.83 87.9846L199.618 88.2595L203.455 88.9075C204.915 89.2274 208.258 89.6064 209.106 90.9027C209.819 91.992 210.266 93.4133 210.791 94.6084C212.037 97.4428 213.289 100.27 214.502 103.119C213.078 105.975 211.144 108.266 208.731 110.332L205.008 112.898C203.986 113.696 202.862 114.153 201.669 114.633C199.228 115.614 196.165 116.426 193.513 116.296L193.154 116.346C189.581 116.261 185.357 115.617 182.161 113.921L178.592 112.022L178.498 111.974L178.342 111.891C176.253 110.803 173.72 108.755 172.334 106.853C172.785 104.794 173.412 102.781 173.94 100.743C174.772 97.5263 175.474 93.9327 176.823 90.8988C178.632 90.041 180.67 89.7771 182.548 89.1091L186.761 88.1848L187.933 87.8413C188.281 87.5879 188.8 87.4654 189.205 87.3145C189.89 87.0585 190.544 86.7596 191.253 86.5715L191.74 86.7327C192.871 86.9481 194.125 86.8978 195.229 86.5656L195.71 86.3784Z" fill="#202D3B"/>
<path d="M182.547 89.1096L186.76 88.1853C186.837 89.0033 187.035 89.8433 186.447 90.515C186.258 90.7314 185.382 90.6176 185.07 90.6141L184.872 90.5368L184.339 90.401C183.566 90.2017 183.017 89.7442 182.547 89.1096Z" fill="#A57BF0"/>
<path d="M199.618 88.2598L203.455 88.9078C203.081 89.5055 202.554 90.4924 201.953 90.8703L200 90.5989C199.624 90.4983 199.447 90.1758 199.277 89.8587C199.296 89.2762 199.429 88.8089 199.618 88.2598Z" fill="#A57BF0"/>
<path d="M181.376 105.609L181.574 107.891L182.162 113.921L178.593 112.022C179.018 110.53 179.852 109.107 180.505 107.701L181.376 105.609Z" fill="#F4C28E"/>
<path d="M205.008 112.898L205.426 104.015C206.282 106.183 207.617 108.277 208.731 110.332L205.008 112.898Z" fill="#F4C28E"/>
<path d="M195.71 86.3784C197.006 86.3216 197.888 87.1851 198.831 87.9846L194.693 99.7614L193.436 104.125C192.958 102.883 192.289 101.482 192.106 100.164C191.124 97.2048 190.136 94.2318 189.116 91.286C188.718 90.1376 188.438 88.9491 187.934 87.8418C188.281 87.5884 188.801 87.4659 189.205 87.315C189.89 87.059 190.544 86.7602 191.253 86.572L191.74 86.7332C192.871 86.9486 194.125 86.8983 195.229 86.5661L195.71 86.3784Z" fill="white"/>
<path d="M191.739 86.7335C192.87 86.9489 194.124 86.8986 195.228 86.5664C194.624 87.2979 194.177 87.4922 193.26 87.6979C193.072 87.6378 193.017 87.597 192.87 87.4635C192.524 87.1513 192.078 87.0583 191.739 86.7335Z" fill="#F3F2E7"/>
<path d="M191.934 91.0039C192.44 90.4811 192.918 89.9823 193.329 89.3779C193.78 89.9281 194.243 90.3823 194.782 90.8449L194.132 91.96C194.23 93.6362 194.366 95.3083 194.47 96.9833C194.529 97.9145 194.505 98.8434 194.693 99.7615L193.435 104.126C192.957 102.883 192.289 101.482 192.105 100.164C192.158 100 192.208 99.8514 192.224 99.6788C192.302 98.8259 192.669 92.0447 192.505 91.7199C192.388 91.4868 192.102 91.2149 191.934 91.0039Z" fill="#DC4EB9"/>
<path d="M104.388 99.5815L108.107 103.593L108.451 103.616L115.207 103.241L115.279 106.039C115.939 106.396 117.009 106.203 117.751 106.159L117.853 110.607C117.824 112.097 117.831 113.586 117.829 115.075C117.825 117.345 118.037 119.414 116.283 121.166C115.355 122.093 113.781 122.509 112.5 122.537C112.267 122.542 111.316 122.482 111.168 122.579C111.101 122.623 111.087 122.717 111.046 122.786L111.148 123.012C111.995 123.103 113.259 123.033 114.09 122.844C115.273 122.539 116.246 122.112 117.028 121.141C117.561 120.481 117.953 119.713 118.118 118.878C118.454 117.18 118.22 115.047 118.215 113.302C118.207 110.969 118.368 108.481 118.11 106.167L121.171 105.96C121.185 105.013 121.254 104.029 121.029 103.102L125.537 102.787C125.908 103.251 125.84 104.775 125.888 105.421C126.089 108.093 126.362 110.771 126.476 113.448C126.552 115.239 126.342 117.359 126.867 119.063L126.903 119.223C127.077 122.91 126.951 126.646 126.943 130.339C126.941 131.13 126.708 133.611 127.086 134.162L127.558 134.229L127.402 134.283L126.977 134.468C126.812 135.331 126.887 136.285 126.882 137.166C126.874 138.827 126.874 140.488 126.873 142.148C126.87 146.958 126.688 151.862 126.93 156.661L126.579 186.09C126.057 186.091 125.518 186.063 125 186.118L116.543 186.178L116.405 188.866C116.08 189.451 116.191 190.007 115.98 190.586L114.9 198.374L114.699 198.862C113.228 199.076 111.534 198.928 110.037 198.927C108.35 198.838 106.637 198.887 104.948 198.873C104.212 198.867 103.377 198.944 102.659 198.781L102.53 198.277C102.621 197.671 102.553 197.04 102.527 196.429C102.325 196.078 102.073 195.774 101.821 195.459C100.015 194.243 97.648 193.834 95.5648 193.238C94.838 192.33 94.1427 191.388 93.4624 190.444C93.0213 189.832 92.6131 189.172 92.0364 188.68C92.2523 187.672 92.8639 186.593 93.1753 185.578L84.3905 185.604C84.002 185.604 83.7376 185.697 83.4385 185.43L89.4097 150.988L94.8277 118.622L94.6737 118.385L90.2033 117.954L92.1771 103.449C92.7543 103.635 93.1876 104.138 93.6043 104.558C94.4097 105.371 95.1894 106.222 96.0369 106.991L97.174 106.377C97.8246 106.145 98.3989 105.38 98.8654 104.887C99.7982 103.9 100.727 102.909 101.651 101.914C102.48 101.021 103.253 100.084 104.388 99.5815Z" fill="#202D3B"/>
<path d="M104.388 99.5815L108.106 103.593L108.45 103.616L108.352 103.851L110.882 106.813C111.313 107.297 111.775 107.653 111.704 108.36C111.66 108.792 111.454 109.24 111.103 109.499C110.638 109.486 110.363 109.444 109.948 109.227L109.908 109.371L110.021 109.564C110.22 109.916 110.324 110.321 110.192 110.72C110.099 111.004 109.841 111.317 109.583 111.465C109.294 111.632 108.937 111.621 108.624 111.534C108.278 111.439 107.888 110.949 107.638 110.686L107.57 110.783C107.833 111.104 108.379 111.574 108.347 111.982C108.319 112.336 108.174 112.625 108.022 112.94C107.633 113.169 107.185 113.089 106.739 113.087L106.173 112.755C106.121 112.627 106.03 112.579 105.924 112.494C105.879 112.675 105.879 112.722 105.774 112.901C105.548 113.287 105.092 113.479 104.685 113.588C104.34 113.543 104.017 113.47 103.716 113.286C102.86 112.761 102.081 111.814 101.403 111.077C99.975 109.524 98.6212 107.912 97.1719 106.377C97.8225 106.145 98.3968 105.38 98.8633 104.887C99.796 103.9 100.725 102.909 101.649 101.914C102.479 101.021 103.252 100.084 104.388 99.5815Z" fill="#F4C28E"/>
<path d="M92.1754 103.448C92.7526 103.635 93.186 104.138 93.6027 104.558C94.4081 105.371 95.1878 106.222 96.0353 106.991L97.1724 106.377C98.6219 107.912 99.9755 109.524 101.403 111.077C102.081 111.814 102.86 112.761 103.717 113.286C104.018 113.47 104.34 113.543 104.685 113.588C105.093 113.479 105.548 113.287 105.775 112.901C105.88 112.722 105.88 112.675 105.925 112.494C106.031 112.579 106.122 112.627 106.174 112.755C106.765 113.359 106.805 113.444 106.8 114.29C106.789 116.077 106.604 118.131 106.246 119.879C103.437 119.532 100.628 119.188 97.8176 118.862C96.8923 118.755 95.8496 118.482 94.9292 118.507L94.8265 118.622L94.6725 118.385L90.2021 117.953L92.1754 103.448Z" fill="#6027CD"/>
<path d="M103.037 158.536C104.326 154.074 105.779 149.665 107.11 145.216C107.681 143.307 108.288 141.404 108.836 139.488C109.13 138.461 109.428 137.437 109.732 136.412C109.917 135.79 110.059 135.162 110.412 134.611L113.245 161.934L103.104 165.112L103.037 158.536Z" fill="#F3F2E7"/>
<path d="M101.905 162.158L103.037 158.536L103.104 165.112L113.245 161.934L115.725 186.118C116.002 186.151 116.263 186.183 116.542 186.178L116.404 188.866C116.08 189.451 116.191 190.007 115.98 190.586L114.9 198.374L114.699 198.862C113.228 199.076 111.533 198.928 110.036 198.927C108.35 198.838 106.637 198.887 104.947 198.873C104.212 198.867 103.377 198.944 102.658 198.781L102.53 198.277C102.62 197.671 102.553 197.04 102.527 196.429C102.325 196.078 102.073 195.774 101.821 195.459C100.015 194.243 97.6477 193.834 95.5645 193.238C94.8377 192.33 94.1424 191.388 93.4621 190.444C93.021 189.832 92.6128 189.172 92.0361 188.68C92.2521 187.672 92.8636 186.593 93.175 185.578C93.7432 185.488 94.4176 185.594 94.9961 185.623L101.905 162.158Z" fill="#539FFB"/>
<path d="M102.659 195.554L103.21 196.15L103.466 196.174C104.025 196.283 105.289 196.581 105.81 196.396L105.997 196.323C106.352 196.203 106.492 196.161 106.829 196.328C107.425 196.07 107.875 196.005 108.495 195.886C108.688 195.849 108.861 195.814 109.06 195.814L109.248 195.819H109.633C110.617 195.858 112.013 195.625 112.965 195.33C113.696 195.103 114.526 195.394 115.115 194.93L115.147 194.673C115.419 193.577 115.454 192.337 115.661 191.207C115.719 190.886 115.795 190.617 115.821 190.276L115.979 190.586L114.899 198.374L114.698 198.862C113.227 199.076 111.533 198.928 110.036 198.927C108.349 198.838 106.636 198.887 104.947 198.873C104.211 198.867 103.376 198.944 102.658 198.78L102.529 198.277C102.62 197.671 102.553 197.04 102.526 196.429C102.324 196.078 102.072 195.774 101.82 195.459C101.931 195.378 102.319 195.156 102.373 195.058C102.415 194.983 102.366 194.42 102.365 194.312C102.357 193.365 102.131 191.829 102.608 191.005L102.659 195.554Z" fill="#95B0F9"/>
<path d="M101.905 162.158L101.94 162.357C101.998 162.639 101.96 162.533 102.12 162.773C102.12 164.269 102.102 165.769 102.131 167.264C102.136 167.499 102.25 167.627 102.255 167.848C102.36 172.253 102.258 176.682 102.299 181.09C102.317 183.128 102.331 185.165 102.356 187.203C102.37 188.401 102.293 189.845 102.608 191.005C102.132 191.829 102.357 193.364 102.366 194.312C102.367 194.419 102.416 194.982 102.374 195.058C102.32 195.156 101.931 195.378 101.821 195.458C100.015 194.243 97.6477 193.834 95.5645 193.238C94.8377 192.33 94.1424 191.388 93.4621 190.444C93.021 189.832 92.6128 189.171 92.0361 188.68C92.2521 187.672 92.8636 186.593 93.175 185.578C93.7432 185.488 94.4176 185.594 94.9961 185.623L101.905 162.158Z" fill="#95B0F9"/>
<path d="M75.4277 94.0298C75.5938 93.961 75.7671 93.893 75.9509 93.9438L76.1877 94.0321L76.2839 93.8704C76.7779 94.0532 77.3864 94.0118 77.9104 94.0295L82.2293 93.9546L92.1761 103.448L90.2023 117.953L94.6726 118.385L94.8267 118.622L89.4087 150.987L83.4377 185.43C83.7368 185.697 84.0013 185.604 84.3897 185.604L83.4421 189.761C83.105 190.632 83.0382 191.619 82.8703 192.535C82.5114 194.492 82.1579 196.471 81.8968 198.445L81.714 198.971C76.3617 198.82 70.9681 198.959 65.6115 198.938C64.4716 198.933 63.3312 198.928 62.1912 198.923C61.7997 198.921 61.3004 199.019 60.9864 198.78L61.0598 197.827L60.9248 197.76L60.7124 197.659C59.7776 197.205 58.7273 197.059 57.7124 196.869C56.582 196.75 55.5104 196.485 54.4875 195.984C54.5751 195.547 54.5515 195.146 54.5278 194.702L54.4349 195.447C53.7153 195.709 53.0064 195.908 52.2464 196.014C51.3171 196.145 50.3661 196.176 49.4295 196.236C49.0542 196.261 48.609 196.222 48.2844 196.424L47.3933 195.922L47.2069 196.002C46.2164 195.668 44.9928 194.877 44.354 194.037C44.4924 193.769 44.5602 193.52 44.6408 193.232L45.0547 191.512C39.5671 188.252 33.7948 185.405 28.0267 182.68C23.6174 180.597 19.2354 178.585 14.6965 176.788C12.9995 176.117 11.3581 175.404 9.61538 174.845L9.36866 174.482C11.2267 174.086 13.2531 174.197 15.143 174.218L18.2921 174.223C16.2603 172.087 14.2316 169.889 12.4701 167.52C11.1063 165.686 9.93092 163.709 8.79716 161.728C6.05466 156.936 3.74247 151.625 2.28804 146.29C1.31217 142.711 0.764035 138.929 0.42976 135.238C-0.480124 125.195 1.89882 114.978 6.2426 105.959C8.0046 102.3 10.1969 98.5915 12.8244 95.4819C13.059 95.2044 13.0298 94.6827 13.0667 94.3145C13.1024 97.818 14.276 101.598 16.202 104.526C19.2074 109.095 23.964 112.473 29.3404 113.582C34.2508 114.594 40.0631 113.779 44.2752 110.97C48.5674 108.107 52.258 103.806 53.4749 98.676C53.8226 97.2105 53.7887 95.6863 54.1037 94.2449L54.145 94.0665L75.4277 94.0298Z" fill="url(#paint2_linear_6695_750)"/>
<path d="M67.1 114.43C67.1973 114.456 67.3328 114.486 67.416 114.541C67.6751 114.713 67.7079 114.87 67.7708 115.148L67.4656 115.629L67.2851 115.57C66.922 115.415 66.9131 115.372 66.7842 115.019L67.1 114.43Z" fill="#7280C1"/>
<path d="M6.70655 113.64C6.96072 113.698 7.10681 113.778 7.31913 113.928C7.4493 114.415 7.33762 114.508 7.14249 114.959C6.81104 114.919 6.6208 114.878 6.33787 114.698C6.29756 114.15 6.41258 114.086 6.70655 113.64Z" fill="#95B0F9"/>
<path d="M43.1809 125.084C43.4309 125.189 43.5426 125.3 43.739 125.481C43.7683 126.116 43.7216 126.112 43.3105 126.608C43.035 126.39 42.8879 126.244 42.709 125.932C42.7452 125.506 42.9098 125.405 43.1809 125.084Z" fill="#7280C1"/>
<path d="M16.0359 158.835L16.2618 158.852C16.68 158.905 16.7758 158.996 17.0374 159.316C17.0708 159.862 16.9912 159.975 16.7548 160.45C16.2631 160.358 16.156 160.375 15.7879 160.013C15.6667 159.405 15.7576 159.363 16.0359 158.835Z" fill="#7280C1"/>
<path d="M58.9082 110.29C59.4194 110.226 60.026 110.163 60.5198 110.34C61.205 110.585 61.72 111.112 62.0232 111.763C62.3013 112.36 62.3518 113.036 62.0907 113.648C61.7149 114.53 61.2548 114.942 60.3696 115.309C60.0068 115.359 59.6237 115.431 59.2605 115.355C58.5164 115.201 57.9198 114.765 57.53 114.113C57.1097 113.409 57.1054 112.68 57.3331 111.91C57.586 111.056 58.1524 110.687 58.9082 110.29Z" fill="#DC4EB9"/>
<path d="M26.8394 146.74C27.3054 146.725 27.8569 146.691 28.3141 146.786C29.0238 146.933 29.6248 147.47 29.9629 148.091C30.3087 148.726 30.3318 149.447 30.0905 150.124C29.7971 150.948 29.1313 151.401 28.3927 151.79C27.8543 151.866 27.1793 151.961 26.6597 151.763C26.0584 151.534 25.3542 150.845 25.1018 150.249C24.8268 149.599 24.8476 148.747 25.1367 148.105C25.4561 147.395 26.1575 147.017 26.8394 146.74Z" fill="#539FFB"/>
<path d="M27.2334 147.119C27.5816 147.112 27.9592 147.09 28.2989 147.177C28.9009 147.332 29.3741 147.825 29.6316 148.377C29.8516 148.85 29.8866 149.597 29.686 150.079C29.4216 150.716 28.762 151.136 28.1515 151.384C27.807 151.38 27.3972 151.405 27.066 151.3C26.5094 151.125 25.8676 150.641 25.6034 150.112C25.3923 149.689 25.3515 148.955 25.5222 148.524C25.8296 147.747 26.514 147.422 27.2334 147.119Z" fill="#F3F2E7"/>
<path d="M48.6641 134.682C49.0867 134.249 49.5719 133.877 49.9901 133.436C50.7229 132.663 51.3162 131.785 52.3822 131.442C53.2756 131.154 54.4515 131.361 55.3917 131.287C55.9711 131.242 56.5837 130.975 57.1247 131.313C58.1085 131.928 58.2091 133.445 58.4618 134.484L58.101 135.557C57.6256 135.417 57.3375 135.572 56.8918 135.751L56.7092 136.029L56.7937 136.093C55.9316 136.343 55.0638 136.421 54.1722 136.472L54.0366 136.256L53.8512 135.95C52.965 135.934 51.5755 135.758 50.7704 136.15C50.4386 136.745 50.4992 137.453 50.5542 138.113L50.3816 138.42C50.1953 137.681 49.6669 137.24 49.1426 136.727C48.9308 136.045 48.7786 135.387 48.6641 134.682Z" fill="#3B219B"/>
<path d="M56.7932 136.093L56.7087 136.029L56.8912 135.751C57.3369 135.572 57.6247 135.417 58.1005 135.557L57.94 136.3C58.2568 136.85 58.2822 137.782 58.1053 138.392L57.931 138.785L57.7857 139.197C56.5688 140.079 55.9356 141.653 55.6984 143.117L55.6604 143.365C55.6045 143.827 55.4553 144.395 55.6666 144.825L55.5208 144.765L54.4537 147.681L53.9428 147.342C53.5688 147.12 53.4938 147.143 53.065 147.242C52.6568 146.727 52.2502 146.305 51.7605 145.869L50.7875 145.284C51.2255 144.912 51.4504 144.499 51.721 144.006L51.7182 141.904L51.6347 141.482C51.2296 141.201 50.8702 140.777 50.5159 140.431L50.3387 139.378C49.9875 139.303 49.1528 139.217 48.9839 138.893C48.7002 138.349 48.9472 137.272 49.1423 136.726C49.6666 137.24 50.1949 137.681 50.3813 138.42L50.5539 138.112C50.4989 137.452 50.4383 136.745 50.77 136.149C51.5752 135.757 52.9647 135.933 53.8509 135.95L54.0363 136.256L54.1718 136.471C55.0632 136.421 55.931 136.343 56.7932 136.093Z" fill="#F4C28E"/>
<path d="M56.7935 136.093L56.709 136.029L56.8915 135.751C57.3372 135.572 57.625 135.417 58.1008 135.557L57.9403 136.3L57.1264 138.737C57.032 138.017 57.1788 136.659 56.7935 136.093Z" fill="#202D3B"/>
<path d="M18.1171 122.566C18.3977 122.194 18.5846 121.715 18.854 121.374C19.0948 121.068 19.1733 121.09 19.533 121.08C20.142 121.487 20.8129 121.774 21.4522 122.13L20.4871 123.158C21.1133 124.116 22.017 124.898 22.6937 125.828L23.5556 125.004C23.8914 125.045 23.9846 125.013 24.2077 125.288C24.5348 125.691 24.8555 126.397 24.7885 126.925C24.76 127.149 24.5762 127.278 24.39 127.389L23.6486 127.748C23.6391 128.675 23.6568 129.597 23.5323 130.516L23.5125 130.745L24.7651 131.474L23.6825 133.559L22.2252 132.774C21.7613 133.548 20.9872 134.19 20.341 134.819C20.637 135.312 20.8622 135.7 20.9869 136.265C20.7148 136.43 20.8945 136.357 20.6308 136.401C20.055 136.498 19.5836 137.1 19.0016 136.687C18.665 136.449 18.37 136.063 18.0922 135.759L15.588 135.713C15.3079 136.061 15.0699 136.456 14.7623 136.774C14.3305 136.674 13.9151 136.541 13.475 136.477C13.0588 136.417 12.9002 136.396 12.6455 136.072C12.7523 135.513 13.2008 135.115 13.5477 134.66C13.4131 134.557 13.2853 134.477 13.1423 134.389C12.7405 134.14 12.3887 133.697 12.1307 133.311C11.9764 133.08 11.7579 132.847 11.5531 132.661C11.2416 132.668 11.1816 132.633 10.9112 132.797C10.4773 133.062 10.188 133.065 9.69169 133.037C9.50761 132.826 9.45164 132.739 9.38053 132.477C9.27988 132.107 9.12789 131.767 9.05113 131.387C9.52404 131.013 10.0409 131.029 10.4858 130.552C10.4596 129.767 10.3995 128.873 10.2311 128.113L10.2052 127.791L10.1009 127.743C9.89118 127.638 9.98412 127.682 9.76384 127.535C9.56538 127.403 9.40235 127.336 9.17822 127.262L8.93457 126.957L8.98823 126.817C9.19567 126.245 9.21904 125.616 9.75588 125.245L11.2334 125.738C11.5443 125.436 11.7695 125.186 12.0147 124.839C12.3672 124.341 13.0832 123.9 13.048 123.214C13.0298 122.862 12.5279 122.414 12.2961 122.144C12.4912 121.944 12.5628 121.812 12.835 121.729C13.4652 121.385 14.0596 121.062 14.7972 121.245C15.1343 121.663 15.2642 122.076 15.4298 122.583L18.1171 122.566Z" fill="#C8D4E2"/>
<path d="M18.1171 122.566C18.3977 122.194 18.5846 121.715 18.854 121.374C19.0948 121.068 19.1733 121.09 19.533 121.08C19.2786 121.322 19.1092 121.524 18.9179 121.823L18.1603 122.903C17.7066 122.844 17.1387 122.72 16.6863 122.792C16.1199 122.882 15.6214 123.158 15.028 123.084C14.6283 122.507 14.5949 121.934 14.5002 121.251L12.835 121.729C13.4653 121.385 14.0596 121.062 14.7972 121.245C15.1343 121.663 15.2642 122.076 15.4298 122.583L18.1171 122.566Z" fill="#A3AAB2"/>
<path d="M16.4634 125.697C17.0642 125.654 17.6298 125.695 18.1964 125.92C19.1291 126.29 19.7607 126.926 20.132 127.846C20.4588 128.656 20.3512 129.677 19.9751 130.453C19.4716 131.492 18.6267 132 17.5751 132.359C17.1358 132.366 16.6552 132.398 16.2221 132.316C15.0981 132.106 14.3173 131.112 13.7476 130.2C13.6937 129.523 13.6398 128.656 13.8891 128.015C14.3689 126.779 15.2906 126.17 16.4634 125.697Z" fill="white"/>
<path d="M55.6667 144.826C56.156 145.187 56.1057 145.286 56.2364 145.859C56.4223 145.766 56.5625 145.695 56.7668 145.65C59.3976 146.279 61.5104 147.12 63.791 148.596C65.0454 149.761 67.0585 151.469 67.5501 153.138C67.7707 154.912 67.8472 156.623 67.6305 158.405C66.1006 158.249 65.0267 157.86 63.6382 157.228C63.695 159.75 63.6847 162.27 63.6842 164.793C63.6839 166.023 63.5427 167.452 63.7815 168.66C63.9055 169.286 64.2639 169.891 64.7383 170.317C65.116 170.656 65.5584 170.857 66.0177 171.06C65.2459 171.214 64.3699 171.132 63.5822 171.129C62.2413 171.123 60.9009 171.115 59.5599 171.106L59.8924 167.361L59.7563 167.064L55.2685 167.268L46.089 167.11L45.7237 166.353C45.3997 166.282 45.1075 165.781 44.8924 165.513C43.7884 165.603 43.0177 165.531 42.2523 166.432C41.9024 166.844 41.592 167.24 41.1943 167.61L40.8975 167.575C39.5355 166.012 38.6492 164.274 37.9763 162.314C37.0292 159.555 36.9979 156.321 38.3181 153.677C40.1222 150.062 43.4865 147.549 47.2636 146.278C48.421 145.889 49.6269 145.671 50.7879 145.285L51.7609 145.87C52.2505 146.306 52.6572 146.728 53.0654 147.243C53.4942 147.143 53.5691 147.121 53.9432 147.343L54.4541 147.682L55.5211 144.766L55.6667 144.826Z" fill="#F8B13D"/>
<path d="M53.0654 147.242C53.4942 147.143 53.5692 147.12 53.9432 147.343L54.4541 147.681L54.2852 148.785C53.725 148.324 53.4228 147.857 53.0654 147.242Z" fill="#F3F2E7"/>
<path d="M55.6669 144.826C56.1563 145.187 56.1059 145.286 56.2366 145.859C55.7203 146.872 55.0674 147.962 54.2852 148.785L54.4541 147.681L55.5211 144.765L55.6669 144.826Z" fill="#E67D0D"/>
<path d="M45.632 153.683C45.9308 156.263 46.0327 158.885 45.9275 161.481C45.8612 163.115 45.6507 164.712 45.7239 166.353C45.3999 166.281 45.1077 165.781 44.8926 165.512C43.3149 163.472 42.3506 161.281 42.7113 158.64C42.9837 156.645 44.0412 154.886 45.632 153.683Z" fill="#F3F2E7"/>
<path d="M59.8926 167.36C61.2002 165.875 60.1886 159.12 59.8307 157.06C59.7011 156.313 59.1529 154.853 59.3499 154.209L63.6384 157.227C63.6952 159.749 63.6849 162.269 63.6844 164.792C63.6841 166.022 63.5429 167.452 63.7817 168.659C63.9057 169.286 64.2641 169.89 64.7386 170.316C65.1162 170.655 65.5586 170.856 66.0179 171.06C65.2461 171.214 64.3702 171.131 63.5825 171.128C62.2415 171.122 60.9011 171.114 59.5601 171.105L59.8926 167.36Z" fill="white"/>
<path d="M29.5068 163.414L29.8911 163.497C30.7132 163.542 31.467 163.871 32.2334 164.146C34.5987 164.995 36.8732 166.084 39.132 167.181L40.4591 167.873L40.8968 167.574L41.1936 167.609C41.5913 167.239 41.9017 166.843 42.2516 166.431C43.0167 165.531 43.7877 165.602 44.8917 165.512C45.1068 165.78 45.399 166.281 45.723 166.352L46.0883 167.109L55.2678 167.267L59.7556 167.063L59.8917 167.36L59.5592 171.105C59.103 177.372 58.8254 183.646 58.4306 189.918C58.3576 191.075 58.3137 192.233 58.2334 193.39C58.2077 193.762 58.2229 194.293 58.0067 194.609L57.4062 195.443L57.4462 195.572C57.5779 196.006 57.6573 196.419 57.7119 196.869C56.5815 196.75 55.5099 196.485 54.487 195.984C54.5746 195.547 54.551 195.146 54.5273 194.702L54.4344 195.447C53.7148 195.709 53.0059 195.908 52.246 196.014C51.3166 196.145 50.3656 196.176 49.429 196.236C49.0537 196.261 48.6085 196.222 48.284 196.424L47.3928 195.922L47.2064 196.001C46.2159 195.668 44.9923 194.877 44.3535 194.037C44.4919 193.769 44.5597 193.52 44.6403 193.232L45.0542 191.512C39.5666 188.252 33.7943 185.405 28.0262 182.68C23.6169 180.597 19.2349 178.585 14.696 176.788C12.999 176.117 11.3576 175.404 9.61489 174.845L9.36816 174.482C11.2262 174.086 13.2526 174.197 15.1425 174.218L15.305 174.236C16.6087 174.366 17.9184 174.278 19.2228 174.387C20.9974 174.534 22.9212 174.741 24.6498 175.172C26.7766 175.702 28.8436 176.54 30.8798 177.339C30.6549 176.52 30.6519 175.678 30.6157 174.835L30.8724 174.687C31.1972 174.523 31.5718 174.348 31.754 174.006C31.9076 173.717 31.9001 173.592 31.7676 173.304C31.5386 172.807 31.2118 172.593 30.7076 172.418C30.5189 172.352 30.5936 172.413 30.4511 172.223C29.9854 171.603 29.8236 170.479 29.6896 169.723C29.3422 167.763 28.9404 165.598 29.1712 163.608L29.5068 163.414Z" fill="#3B219B"/>
<path d="M52.2598 180.957C52.4562 179.763 52.7468 178.588 53.0064 177.407C53.1786 176.625 53.2757 175.783 53.6454 175.067C53.7984 176.635 53.9224 178.584 53.5781 180.124L53.5432 180.294L53.5204 180.395C53.1152 180.607 52.7114 180.875 52.2598 180.957Z" fill="#F4C28E"/>
<path d="M44.6413 193.232L48.213 194.429C47.9042 194.917 47.6128 195.384 47.3938 195.922L47.2074 196.002C46.2169 195.668 44.9933 194.877 44.3545 194.037C44.4929 193.769 44.5607 193.52 44.6413 193.232Z" fill="white"/>
<path d="M48.2128 194.429C48.4983 194.127 48.5989 193.617 48.7073 193.229C48.9466 192.371 49.1877 191.515 49.4218 190.656C49.8192 189.198 50.2503 187.694 50.7366 186.264L50.8408 186.281C51.3111 187.258 51.6488 188.287 52.105 189.271C52.5651 190.264 53.1746 191.24 53.5458 192.266C53.914 193.284 54.0662 194.402 54.4351 195.447C53.7155 195.709 53.0066 195.908 52.2467 196.014C51.3173 196.145 50.3663 196.176 49.4298 196.237C49.0544 196.261 48.6092 196.223 48.2847 196.424L47.3936 195.922C47.6126 195.384 47.904 194.917 48.2128 194.429Z" fill="#6027CD"/>
<path d="M29.8916 163.497C30.7137 163.542 31.4675 163.871 32.2338 164.146C34.5992 164.995 36.8736 166.084 39.1324 167.181L40.4595 167.873L40.8973 167.574L41.194 167.61C41.5917 167.239 41.9021 166.843 42.2521 166.431C43.0171 165.531 43.7881 165.602 44.8921 165.512C45.1073 165.78 45.3994 166.281 45.7234 166.353L46.0888 167.109C46.5419 167.925 47.1424 168.816 47.1635 169.769C46.8988 170.312 46.5062 170.544 46.1342 170.988C46.3422 171.38 46.4526 171.443 46.286 171.897L46.2482 171.953C46.954 172.56 47.3032 173.405 47.8349 174.152C48.0775 174.166 48.1114 174.244 48.2973 174.39C48.2947 175.597 48.0644 176.839 47.8626 178.03C47.5311 179.986 47.1432 181.918 46.6641 183.844C46.3632 183.229 46.021 182.699 45.6354 182.137L43.6916 179.525L42.6595 178.241L37.1853 171.342L38.4282 168.91C38.4957 168.743 38.5504 168.584 38.6472 168.431C38.8854 168.052 38.9727 167.734 39.0659 167.297C38.4775 167.656 38.0957 168.699 37.8195 169.326C37.7401 169.506 37.668 169.659 37.5599 169.825C37.2978 170.229 37.0903 170.631 36.9109 171.077L36.5851 170.733C34.518 168.214 32.1804 165.828 29.8916 163.497Z" fill="#6027CD"/>
<path d="M46.2479 171.953C46.9537 172.56 47.3028 173.406 47.8345 174.152C47.0897 174.111 46.2666 173.011 45.7686 172.474L46.2479 171.953Z" fill="#F3F2E7"/>
<path d="M44.8926 165.512C45.1077 165.78 45.3999 166.281 45.7239 166.353L46.0892 167.11C46.5424 167.925 47.1429 168.816 47.1639 169.769C46.8992 170.312 46.5067 170.544 46.1347 170.988C46.3426 171.38 46.453 171.443 46.2864 171.897L46.2487 171.953L45.7693 172.474C44.2517 172.238 43.1259 171.712 42.3211 170.351C42.0132 169.831 41.8214 169.028 41.4343 168.589C41.1863 168.307 40.7727 168.079 40.46 167.873L40.8977 167.575L41.1945 167.61C41.5922 167.239 41.9026 166.843 42.2525 166.431C43.0179 165.531 43.7886 165.602 44.8926 165.512Z" fill="#F4C28E"/>
<path d="M30.8802 177.338C30.6553 176.519 30.6522 175.678 30.616 174.835L30.8728 174.687C31.1976 174.523 31.5721 174.348 31.7544 174.005C31.908 173.717 31.9005 173.591 31.768 173.304C31.539 172.806 31.2122 172.592 30.708 172.417C30.5193 172.352 30.594 172.412 30.4515 172.223C29.9857 171.602 29.824 170.478 29.69 169.723C29.3426 167.762 28.9408 165.598 29.1716 163.607L29.5069 163.414C29.7362 163.687 29.9593 163.953 30.165 164.244C30.6759 164.966 31.4795 165.486 32.0294 166.175C33.2543 167.711 34.7585 169.04 35.9585 170.59C36.3128 171.048 36.7662 171.394 37.1141 171.874C38.4438 173.707 40.0019 175.433 41.413 177.211C41.7311 177.611 42.2422 178.028 42.4261 178.499C41.9755 178.507 41.6415 178.489 41.2065 178.404C40.4296 178.252 39.4972 178.361 38.702 178.241C37.4784 178.058 36.0163 177.749 34.7881 177.764L34.5318 177.811V177.92C34.6761 178.024 34.7236 178.105 34.9056 178.103C35.7408 178.095 36.7295 178.311 37.548 178.476C38.1572 178.598 38.8651 178.514 39.4748 178.627C40.5098 178.817 41.4797 178.876 42.5562 178.887C42.9295 179.249 43.2222 179.555 43.5246 179.974C44.5881 181.447 45.6445 182.824 46.5003 184.439C46.3126 185.644 46.1981 187.041 45.74 188.172C41.454 183.944 36.3701 179.864 30.8802 177.338Z" fill="#6027CD"/>
<path d="M9.36914 174.482C11.2272 174.086 13.2536 174.197 15.1435 174.218L15.306 174.236C16.6097 174.366 17.9193 174.278 19.2238 174.387C20.9984 174.534 22.9222 174.74 24.6508 175.171C26.7776 175.702 28.8446 176.54 30.8808 177.338C36.3707 179.864 41.4546 183.944 45.7406 188.172L45.0893 191.334C35.4313 185.808 25.3645 180.663 14.9758 176.646C13.0965 175.919 11.307 175.051 9.36914 174.482Z" fill="#F69AF3"/>
<path d="M55.2685 167.268L59.7564 167.063L59.8924 167.361L59.5599 171.105C59.1037 177.373 58.8262 183.647 58.4313 189.918C58.3584 191.075 58.3145 192.234 58.2342 193.391C58.2085 193.762 58.2236 194.293 58.0074 194.61L57.4069 195.443L57.447 195.572C57.5787 196.007 57.658 196.419 57.7127 196.869C56.5823 196.751 55.5107 196.485 54.4878 195.984C54.5754 195.547 54.5517 195.146 54.5281 194.703L54.4352 195.448C54.0662 194.402 53.914 193.284 53.5458 192.266C53.1746 191.24 52.5651 190.264 52.105 189.271C51.6488 188.287 51.3112 187.258 50.8408 186.281L51.1648 185.998C51.028 185.259 51.2419 184.68 51.4159 183.962C51.6611 182.949 51.8999 181.936 52.2596 180.957C52.7112 180.875 53.115 180.608 53.5202 180.395L53.543 180.294L53.5779 180.124C53.9222 178.584 53.7982 176.635 53.6452 175.067C53.4146 174.635 53.6745 172.823 53.809 172.297L54.3625 168.961C54.4824 168.451 54.4927 167.983 54.5001 167.463L55.0703 167.404L55.2685 167.268Z" fill="#202D3B"/>
<path d="M54.5276 194.702L54.5831 194.528C55.7407 194.49 56.8537 194.46 58.0069 194.609L57.4064 195.443L57.4465 195.572C57.5782 196.006 57.6575 196.419 57.7122 196.869C56.5818 196.75 55.5102 196.485 54.4873 195.984C54.5749 195.547 54.5512 195.146 54.5276 194.702Z" fill="#F3F2E7"/>
<path d="M53.52 180.395L53.7077 191.647C52.7295 189.979 51.7231 187.855 51.1647 185.998C51.0278 185.259 51.2417 184.68 51.4157 183.962C51.6609 182.949 51.8997 181.936 52.2594 180.957C52.711 180.875 53.1148 180.607 53.52 180.395Z" fill="#6027CD"/>
<path d="M75.4273 94.0298C75.5934 93.961 75.7667 93.893 75.9505 93.9438L76.1873 94.0321L76.2835 93.8704C76.7775 94.0532 77.386 94.0118 77.91 94.0295L82.2288 93.9546L92.1757 103.448L90.2019 117.953L94.6722 118.385L94.8263 118.622L89.4083 150.987L83.4373 185.43C83.7364 185.697 84.0009 185.604 84.3893 185.604L83.4417 189.761C83.1046 190.632 83.0378 191.619 82.8699 192.535C82.511 194.492 82.1575 196.471 81.8964 198.445L81.7136 198.971C76.3613 198.82 70.9677 198.959 65.6111 198.938C64.4712 198.933 63.3308 198.928 62.1908 198.923C61.7993 198.921 61.3 199.019 60.986 198.78L61.0594 197.827L60.9244 197.76L60.712 197.659C59.7772 197.205 58.7269 197.059 57.712 196.869C57.6573 196.419 57.578 196.007 57.4463 195.572L57.4062 195.443L58.0068 194.609C58.2229 194.293 58.2078 193.762 58.2335 193.39C58.3138 192.233 58.3577 191.075 58.4306 189.918C58.8255 183.646 59.103 177.373 59.5593 171.105C60.9 171.114 62.2407 171.122 63.5816 171.128C64.3693 171.131 65.2453 171.213 66.017 171.06C65.5577 170.856 65.1151 170.655 64.7377 170.316C64.2632 169.89 63.9048 169.285 63.7808 168.659C63.5421 167.452 63.6833 166.022 63.6835 164.792C63.684 162.269 63.6943 159.749 63.6376 157.227C65.026 157.86 66.1 158.249 67.6299 158.404C67.8468 156.622 67.7703 154.911 67.5495 153.137C67.0579 151.468 65.0448 149.76 63.7903 148.595L63.74 145.616C63.7025 143.036 63.672 140.455 63.6697 137.874C63.6686 136.893 63.5197 135.576 63.7626 134.638C63.8915 134.139 64.244 133.658 64.6096 133.304C65.3595 132.58 66.2376 132.628 67.206 132.625L75.4722 132.625L75.6504 94.123L75.4273 94.0298Z" fill="#539FFB"/>
<path d="M82.2287 93.9546L92.1755 103.448L90.2017 117.953L94.672 118.385L94.8261 118.622L89.4081 150.987C89.2186 149.971 89.3247 148.854 89.3419 147.821C89.3722 146.031 89.4222 144.241 89.4353 142.451C89.469 137.766 89.3735 133.079 89.3968 128.394C89.4143 124.866 89.604 121.255 89.3955 117.736C88.86 116.904 88.5039 116.549 87.6605 116.057C85.6833 115.995 83.7029 116.022 81.7249 116.029C79.9393 116.035 78.2148 115.902 76.4893 116.425L76.4014 113.97L76.3799 94.0434L77.9093 94.0296L82.2287 93.9546Z" fill="#F3F2E7"/>
<path d="M87.2672 106.817C87.4834 106.85 87.7265 106.879 87.9286 106.964C88.2256 107.089 88.5222 107.436 88.6397 107.723C88.8125 108.144 88.6621 108.808 88.4569 109.194C88.1781 109.72 87.6241 109.91 87.0947 110.09C86.7594 110.017 86.3519 109.935 86.0724 109.723C85.4718 109.266 85.5317 108.486 85.4785 107.8C86.0903 107.263 86.4813 107.022 87.2672 106.817Z" fill="#C8D4E2"/>
<path d="M63.7908 148.596L63.7405 145.617C63.703 143.036 63.6724 140.455 63.6701 137.875C63.6691 136.894 63.5202 135.576 63.7631 134.638C63.892 134.14 64.2445 133.658 64.6101 133.305C65.36 132.58 66.238 132.628 67.2065 132.626L75.7176 132.752C76.4049 133.112 76.7133 133.361 77.1441 134.021L76.8976 168.129C76.6843 169.251 76.0547 170.139 75.0881 170.753C74.7323 170.979 74.2763 171.188 73.8573 171.247C72.4504 171.445 70.7875 171.28 69.3567 171.279C68.4789 171.279 67.209 171.441 66.3672 171.216C66.2221 171.177 66.1428 171.127 66.0175 171.061C65.5582 170.857 65.1156 170.656 64.7382 170.317C64.2637 169.891 63.9053 169.286 63.7813 168.66C63.5425 167.453 63.6837 166.023 63.684 164.793C63.6845 162.27 63.6948 159.75 63.638 157.228C65.0265 157.861 66.1004 158.25 67.6303 158.405C67.8473 156.623 67.7708 154.912 67.55 153.138C67.0581 151.469 65.0452 149.761 63.7908 148.596Z" fill="#2574F0"/>
<path d="M71.1371 145.442C70.8298 144.737 70.895 143.503 71.1594 142.786L71.2259 142.619C71.3928 142.18 71.5048 142.025 71.887 141.742L72.1143 141.856L72.2783 143.004L72.2318 143.115C71.8865 143.979 71.9941 144.937 71.1371 145.442Z" fill="#F3F2E7"/>
<path d="M72.2777 143.004C72.7855 142.703 73.0042 142.526 73.6196 142.661C74.2864 142.806 75.3896 143.747 75.6967 144.352C75.9403 144.832 75.8733 145.388 75.6897 145.879C75.3983 146.659 74.3478 147.078 74.1611 147.731C73.4702 151.14 72.1154 155.563 69.1244 157.687C68.6748 158.006 68.1416 158.207 67.6302 158.404C67.8471 156.622 67.7706 154.912 67.5498 153.138C69.4443 151.488 71.1234 148.763 72.0497 146.445C71.9121 145.937 71.5413 145.732 71.1367 145.442C71.9937 144.937 71.8861 143.979 72.2314 143.116L72.2777 143.004Z" fill="#F4C28E"/>
</g>
<defs>
<linearGradient id="paint0_linear_6695_750" x1="170.632" y1="184.952" x2="169.45" y2="199.206" gradientUnits="userSpaceOnUse">
<stop stop-color="#6997FD"/>
<stop offset="1" stop-color="#99B5FE"/>
</linearGradient>
<linearGradient id="paint1_linear_6695_750" x1="110.289" y1="78.1579" x2="78.147" y2="89.8146" gradientUnits="userSpaceOnUse">
<stop stop-color="#5550C8"/>
<stop offset="1" stop-color="#7C64E2"/>
</linearGradient>
<linearGradient id="paint2_linear_6695_750" x1="-0.0300602" y1="144.317" x2="74.6906" y2="146.53" gradientUnits="userSpaceOnUse">
<stop stop-color="#CBD1F5"/>
<stop offset="1" stop-color="#F1F2F7"/>
</linearGradient>
<clipPath id="clip0_6695_750">
<rect width="218.485" height="200" fill="white"/>
</clipPath>
</defs>
</svg>
